ISO-10303-21;
HEADER;
/* Generated by software containing ST-Developer
 * from STEP Tools, Inc. (www.steptools.com) 
 */

FILE_DESCRIPTION(
/* description */ (''),
/* implementation_level */ '2;1');

FILE_NAME(
/* name */ 'Back.step',
/* time_stamp */ '2026-05-30T00:02:47+02:00',
/* author */ (''),
/* organization */ (''),
/* preprocessor_version */ 'ST-DEVELOPER v20.1',
/* originating_system */ 'Autodesk Translation Framework v15.8.0.0',
/* authorisation */ '');

FILE_SCHEMA (('AUTOMOTIVE_DESIGN { 1 0 10303 214 3 1 1 }'));
ENDSEC;

DATA;
#10=MECHANICAL_DESIGN_GEOMETRIC_PRESENTATION_REPRESENTATION('',(#13),#696);
#11=SHAPE_REPRESENTATION_RELATIONSHIP('SRR','None',#703,#12);
#12=ADVANCED_BREP_SHAPE_REPRESENTATION('',(#14),#695);
#13=STYLED_ITEM('',(#712),#14);
#14=MANIFOLD_SOLID_BREP('K\X\F6rper1',#428);
#15=FACE_BOUND('',#63,.T.);
#16=FACE_BOUND('',#64,.T.);
#17=FACE_BOUND('',#84,.T.);
#18=PLANE('',#445);
#19=PLANE('',#446);
#20=PLANE('',#448);
#21=PLANE('',#449);
#22=PLANE('',#450);
#23=PLANE('',#451);
#24=PLANE('',#452);
#25=PLANE('',#453);
#26=PLANE('',#454);
#27=PLANE('',#455);
#28=PLANE('',#456);
#29=PLANE('',#457);
#30=PLANE('',#458);
#31=PLANE('',#459);
#32=PLANE('',#460);
#33=PLANE('',#461);
#34=PLANE('',#462);
#35=PLANE('',#463);
#36=PLANE('',#464);
#37=PLANE('',#467);
#38=FACE_OUTER_BOUND('',#60,.T.);
#39=FACE_OUTER_BOUND('',#61,.T.);
#40=FACE_OUTER_BOUND('',#62,.T.);
#41=FACE_OUTER_BOUND('',#65,.T.);
#42=FACE_OUTER_BOUND('',#66,.T.);
#43=FACE_OUTER_BOUND('',#67,.T.);
#44=FACE_OUTER_BOUND('',#68,.T.);
#45=FACE_OUTER_BOUND('',#69,.T.);
#46=FACE_OUTER_BOUND('',#70,.T.);
#47=FACE_OUTER_BOUND('',#71,.T.);
#48=FACE_OUTER_BOUND('',#72,.T.);
#49=FACE_OUTER_BOUND('',#73,.T.);
#50=FACE_OUTER_BOUND('',#74,.T.);
#51=FACE_OUTER_BOUND('',#75,.T.);
#52=FACE_OUTER_BOUND('',#76,.T.);
#53=FACE_OUTER_BOUND('',#77,.T.);
#54=FACE_OUTER_BOUND('',#78,.T.);
#55=FACE_OUTER_BOUND('',#79,.T.);
#56=FACE_OUTER_BOUND('',#80,.T.);
#57=FACE_OUTER_BOUND('',#81,.T.);
#58=FACE_OUTER_BOUND('',#82,.T.);
#59=FACE_OUTER_BOUND('',#83,.T.);
#60=EDGE_LOOP('',(#290,#291,#292,#293));
#61=EDGE_LOOP('',(#294,#295,#296,#297));
#62=EDGE_LOOP('',(#298,#299,#300,#301,#302,#303,#304));
#63=EDGE_LOOP('',(#305,#306,#307,#308,#309,#310,#311,#312));
#64=EDGE_LOOP('',(#313,#314,#315,#316));
#65=EDGE_LOOP('',(#317,#318,#319,#320));
#66=EDGE_LOOP('',(#321,#322,#323,#324));
#67=EDGE_LOOP('',(#325,#326,#327,#328));
#68=EDGE_LOOP('',(#329,#330,#331,#332));
#69=EDGE_LOOP('',(#333,#334,#335,#336));
#70=EDGE_LOOP('',(#337,#338,#339,#340));
#71=EDGE_LOOP('',(#341,#342,#343,#344));
#72=EDGE_LOOP('',(#345,#346,#347,#348));
#73=EDGE_LOOP('',(#349,#350,#351,#352));
#74=EDGE_LOOP('',(#353,#354,#355,#356));
#75=EDGE_LOOP('',(#357,#358,#359,#360));
#76=EDGE_LOOP('',(#361,#362,#363,#364));
#77=EDGE_LOOP('',(#365,#366,#367,#368));
#78=EDGE_LOOP('',(#369,#370,#371,#372));
#79=EDGE_LOOP('',(#373,#374,#375,#376,#377,#378,#379,#380));
#80=EDGE_LOOP('',(#381,#382,#383,#384));
#81=EDGE_LOOP('',(#385,#386,#387,#388));
#82=EDGE_LOOP('',(#389,#390,#391,#392));
#83=EDGE_LOOP('',(#393,#394,#395,#396,#397,#398,#399));
#84=EDGE_LOOP('',(#400,#401,#402,#403));
#85=LINE('',#581,#138);
#86=LINE('',#584,#139);
#87=LINE('',#588,#140);
#88=LINE('',#590,#141);
#89=LINE('',#592,#142);
#90=LINE('',#593,#143);
#91=LINE('',#596,#144);
#92=LINE('',#598,#145);
#93=LINE('',#600,#146);
#94=LINE('',#601,#147);
#95=LINE('',#605,#148);
#96=LINE('',#607,#149);
#97=LINE('',#609,#150);
#98=LINE('',#611,#151);
#99=LINE('',#613,#152);
#100=LINE('',#615,#153);
#101=LINE('',#617,#154);
#102=LINE('',#618,#155);
#103=LINE('',#621,#156);
#104=LINE('',#623,#157);
#105=LINE('',#625,#158);
#106=LINE('',#626,#159);
#107=LINE('',#629,#160);
#108=LINE('',#631,#161);
#109=LINE('',#632,#162);
#110=LINE('',#634,#163);
#111=LINE('',#638,#164);
#112=LINE('',#639,#165);
#113=LINE('',#640,#166);
#114=LINE('',#643,#167);
#115=LINE('',#644,#168);
#116=LINE('',#647,#169);
#117=LINE('',#648,#170);
#118=LINE('',#650,#171);
#119=LINE('',#653,#172);
#120=LINE('',#655,#173);
#121=LINE('',#656,#174);
#122=LINE('',#659,#175);
#123=LINE('',#660,#176);
#124=LINE('',#663,#177);
#125=LINE('',#664,#178);
#126=LINE('',#667,#179);
#127=LINE('',#668,#180);
#128=LINE('',#671,#181);
#129=LINE('',#672,#182);
#130=LINE('',#675,#183);
#131=LINE('',#676,#184);
#132=LINE('',#679,#185);
#133=LINE('',#680,#186);
#134=LINE('',#682,#187);
#135=LINE('',#686,#188);
#136=LINE('',#687,#189);
#137=LINE('',#689,#190);
#138=VECTOR('',#474,10.);
#139=VECTOR('',#477,10.);
#140=VECTOR('',#480,10.);
#141=VECTOR('',#481,10.);
#142=VECTOR('',#482,10.);
#143=VECTOR('',#483,10.);
#144=VECTOR('',#486,10.);
#145=VECTOR('',#487,10.);
#146=VECTOR('',#488,10.);
#147=VECTOR('',#489,10.);
#148=VECTOR('',#492,10.);
#149=VECTOR('',#493,10.);
#150=VECTOR('',#494,10.);
#151=VECTOR('',#495,10.);
#152=VECTOR('',#496,10.);
#153=VECTOR('',#497,10.);
#154=VECTOR('',#498,10.);
#155=VECTOR('',#499,10.);
#156=VECTOR('',#500,10.);
#157=VECTOR('',#501,10.);
#158=VECTOR('',#502,10.);
#159=VECTOR('',#503,10.);
#160=VECTOR('',#506,10.);
#161=VECTOR('',#507,10.);
#162=VECTOR('',#508,10.);
#163=VECTOR('',#511,10.);
#164=VECTOR('',#514,10.);
#165=VECTOR('',#515,10.);
#166=VECTOR('',#516,10.);
#167=VECTOR('',#519,10.);
#168=VECTOR('',#520,10.);
#169=VECTOR('',#523,10.);
#170=VECTOR('',#524,10.);
#171=VECTOR('',#527,10.);
#172=VECTOR('',#530,10.);
#173=VECTOR('',#531,10.);
#174=VECTOR('',#532,10.);
#175=VECTOR('',#535,10.);
#176=VECTOR('',#536,10.);
#177=VECTOR('',#539,10.);
#178=VECTOR('',#540,10.);
#179=VECTOR('',#543,10.);
#180=VECTOR('',#544,10.);
#181=VECTOR('',#547,10.);
#182=VECTOR('',#548,10.);
#183=VECTOR('',#551,10.);
#184=VECTOR('',#552,10.);
#185=VECTOR('',#555,10.);
#186=VECTOR('',#556,10.);
#187=VECTOR('',#559,10.);
#188=VECTOR('',#564,10.);
#189=VECTOR('',#565,10.);
#190=VECTOR('',#568,10.);
#191=CIRCLE('',#443,5.);
#192=CIRCLE('',#444,5.);
#193=CIRCLE('',#447,5.);
#194=CIRCLE('',#466,5.);
#195=VERTEX_POINT('',#577);
#196=VERTEX_POINT('',#578);
#197=VERTEX_POINT('',#580);
#198=VERTEX_POINT('',#582);
#199=VERTEX_POINT('',#586);
#200=VERTEX_POINT('',#587);
#201=VERTEX_POINT('',#589);
#202=VERTEX_POINT('',#591);
#203=VERTEX_POINT('',#595);
#204=VERTEX_POINT('',#597);
#205=VERTEX_POINT('',#599);
#206=VERTEX_POINT('',#603);
#207=VERTEX_POINT('',#604);
#208=VERTEX_POINT('',#606);
#209=VERTEX_POINT('',#608);
#210=VERTEX_POINT('',#610);
#211=VERTEX_POINT('',#612);
#212=VERTEX_POINT('',#614);
#213=VERTEX_POINT('',#616);
#214=VERTEX_POINT('',#619);
#215=VERTEX_POINT('',#620);
#216=VERTEX_POINT('',#622);
#217=VERTEX_POINT('',#624);
#218=VERTEX_POINT('',#628);
#219=VERTEX_POINT('',#630);
#220=VERTEX_POINT('',#636);
#221=VERTEX_POINT('',#637);
#222=VERTEX_POINT('',#642);
#223=VERTEX_POINT('',#646);
#224=VERTEX_POINT('',#652);
#225=VERTEX_POINT('',#654);
#226=VERTEX_POINT('',#658);
#227=VERTEX_POINT('',#662);
#228=VERTEX_POINT('',#666);
#229=VERTEX_POINT('',#670);
#230=VERTEX_POINT('',#674);
#231=VERTEX_POINT('',#678);
#232=VERTEX_POINT('',#685);
#233=EDGE_CURVE('',#195,#196,#191,.T.);
#234=EDGE_CURVE('',#195,#197,#85,.T.);
#235=EDGE_CURVE('',#198,#197,#192,.T.);
#236=EDGE_CURVE('',#196,#198,#86,.T.);
#237=EDGE_CURVE('',#199,#200,#87,.T.);
#238=EDGE_CURVE('',#200,#201,#88,.T.);
#239=EDGE_CURVE('',#202,#201,#89,.T.);
#240=EDGE_CURVE('',#199,#202,#90,.T.);
#241=EDGE_CURVE('',#195,#203,#91,.T.);
#242=EDGE_CURVE('',#204,#196,#92,.T.);
#243=EDGE_CURVE('',#205,#204,#93,.T.);
#244=EDGE_CURVE('',#200,#205,#94,.T.);
#245=EDGE_CURVE('',#203,#199,#193,.T.);
#246=EDGE_CURVE('',#206,#207,#95,.T.);
#247=EDGE_CURVE('',#207,#208,#96,.T.);
#248=EDGE_CURVE('',#208,#209,#97,.T.);
#249=EDGE_CURVE('',#209,#210,#98,.T.);
#250=EDGE_CURVE('',#211,#210,#99,.T.);
#251=EDGE_CURVE('',#211,#212,#100,.T.);
#252=EDGE_CURVE('',#212,#213,#101,.T.);
#253=EDGE_CURVE('',#213,#206,#102,.T.);
#254=EDGE_CURVE('',#214,#215,#103,.T.);
#255=EDGE_CURVE('',#215,#216,#104,.T.);
#256=EDGE_CURVE('',#216,#217,#105,.T.);
#257=EDGE_CURVE('',#217,#214,#106,.T.);
#258=EDGE_CURVE('',#205,#218,#107,.T.);
#259=EDGE_CURVE('',#204,#219,#108,.T.);
#260=EDGE_CURVE('',#218,#219,#109,.T.);
#261=EDGE_CURVE('',#219,#198,#110,.T.);
#262=EDGE_CURVE('',#220,#221,#111,.T.);
#263=EDGE_CURVE('',#220,#216,#112,.T.);
#264=EDGE_CURVE('',#221,#215,#113,.T.);
#265=EDGE_CURVE('',#222,#220,#114,.T.);
#266=EDGE_CURVE('',#222,#217,#115,.T.);
#267=EDGE_CURVE('',#223,#222,#116,.T.);
#268=EDGE_CURVE('',#223,#214,#117,.T.);
#269=EDGE_CURVE('',#221,#223,#118,.T.);
#270=EDGE_CURVE('',#212,#224,#119,.T.);
#271=EDGE_CURVE('',#225,#224,#120,.T.);
#272=EDGE_CURVE('',#213,#225,#121,.T.);
#273=EDGE_CURVE('',#226,#225,#122,.T.);
#274=EDGE_CURVE('',#206,#226,#123,.T.);
#275=EDGE_CURVE('',#227,#226,#124,.T.);
#276=EDGE_CURVE('',#207,#227,#125,.T.);
#277=EDGE_CURVE('',#228,#227,#126,.T.);
#278=EDGE_CURVE('',#208,#228,#127,.T.);
#279=EDGE_CURVE('',#229,#228,#128,.T.);
#280=EDGE_CURVE('',#209,#229,#129,.T.);
#281=EDGE_CURVE('',#230,#229,#130,.T.);
#282=EDGE_CURVE('',#210,#230,#131,.T.);
#283=EDGE_CURVE('',#231,#230,#132,.T.);
#284=EDGE_CURVE('',#211,#231,#133,.T.);
#285=EDGE_CURVE('',#224,#231,#134,.T.);
#286=EDGE_CURVE('',#203,#232,#135,.T.);
#287=EDGE_CURVE('',#197,#232,#136,.T.);
#288=EDGE_CURVE('',#201,#218,#137,.T.);
#289=EDGE_CURVE('',#232,#202,#194,.T.);
#290=ORIENTED_EDGE('',*,*,#233,.F.);
#291=ORIENTED_EDGE('',*,*,#234,.T.);
#292=ORIENTED_EDGE('',*,*,#235,.F.);
#293=ORIENTED_EDGE('',*,*,#236,.F.);
#294=ORIENTED_EDGE('',*,*,#237,.T.);
#295=ORIENTED_EDGE('',*,*,#238,.T.);
#296=ORIENTED_EDGE('',*,*,#239,.F.);
#297=ORIENTED_EDGE('',*,*,#240,.F.);
#298=ORIENTED_EDGE('',*,*,#241,.F.);
#299=ORIENTED_EDGE('',*,*,#233,.T.);
#300=ORIENTED_EDGE('',*,*,#242,.F.);
#301=ORIENTED_EDGE('',*,*,#243,.F.);
#302=ORIENTED_EDGE('',*,*,#244,.F.);
#303=ORIENTED_EDGE('',*,*,#237,.F.);
#304=ORIENTED_EDGE('',*,*,#245,.F.);
#305=ORIENTED_EDGE('',*,*,#246,.T.);
#306=ORIENTED_EDGE('',*,*,#247,.T.);
#307=ORIENTED_EDGE('',*,*,#248,.T.);
#308=ORIENTED_EDGE('',*,*,#249,.T.);
#309=ORIENTED_EDGE('',*,*,#250,.F.);
#310=ORIENTED_EDGE('',*,*,#251,.T.);
#311=ORIENTED_EDGE('',*,*,#252,.T.);
#312=ORIENTED_EDGE('',*,*,#253,.T.);
#313=ORIENTED_EDGE('',*,*,#254,.T.);
#314=ORIENTED_EDGE('',*,*,#255,.T.);
#315=ORIENTED_EDGE('',*,*,#256,.T.);
#316=ORIENTED_EDGE('',*,*,#257,.T.);
#317=ORIENTED_EDGE('',*,*,#258,.F.);
#318=ORIENTED_EDGE('',*,*,#243,.T.);
#319=ORIENTED_EDGE('',*,*,#259,.T.);
#320=ORIENTED_EDGE('',*,*,#260,.F.);
#321=ORIENTED_EDGE('',*,*,#242,.T.);
#322=ORIENTED_EDGE('',*,*,#236,.T.);
#323=ORIENTED_EDGE('',*,*,#261,.F.);
#324=ORIENTED_EDGE('',*,*,#259,.F.);
#325=ORIENTED_EDGE('',*,*,#262,.F.);
#326=ORIENTED_EDGE('',*,*,#263,.T.);
#327=ORIENTED_EDGE('',*,*,#255,.F.);
#328=ORIENTED_EDGE('',*,*,#264,.F.);
#329=ORIENTED_EDGE('',*,*,#265,.F.);
#330=ORIENTED_EDGE('',*,*,#266,.T.);
#331=ORIENTED_EDGE('',*,*,#256,.F.);
#332=ORIENTED_EDGE('',*,*,#263,.F.);
#333=ORIENTED_EDGE('',*,*,#267,.F.);
#334=ORIENTED_EDGE('',*,*,#268,.T.);
#335=ORIENTED_EDGE('',*,*,#257,.F.);
#336=ORIENTED_EDGE('',*,*,#266,.F.);
#337=ORIENTED_EDGE('',*,*,#269,.F.);
#338=ORIENTED_EDGE('',*,*,#264,.T.);
#339=ORIENTED_EDGE('',*,*,#254,.F.);
#340=ORIENTED_EDGE('',*,*,#268,.F.);
#341=ORIENTED_EDGE('',*,*,#252,.F.);
#342=ORIENTED_EDGE('',*,*,#270,.T.);
#343=ORIENTED_EDGE('',*,*,#271,.F.);
#344=ORIENTED_EDGE('',*,*,#272,.F.);
#345=ORIENTED_EDGE('',*,*,#253,.F.);
#346=ORIENTED_EDGE('',*,*,#272,.T.);
#347=ORIENTED_EDGE('',*,*,#273,.F.);
#348=ORIENTED_EDGE('',*,*,#274,.F.);
#349=ORIENTED_EDGE('',*,*,#246,.F.);
#350=ORIENTED_EDGE('',*,*,#274,.T.);
#351=ORIENTED_EDGE('',*,*,#275,.F.);
#352=ORIENTED_EDGE('',*,*,#276,.F.);
#353=ORIENTED_EDGE('',*,*,#247,.F.);
#354=ORIENTED_EDGE('',*,*,#276,.T.);
#355=ORIENTED_EDGE('',*,*,#277,.F.);
#356=ORIENTED_EDGE('',*,*,#278,.F.);
#357=ORIENTED_EDGE('',*,*,#248,.F.);
#358=ORIENTED_EDGE('',*,*,#278,.T.);
#359=ORIENTED_EDGE('',*,*,#279,.F.);
#360=ORIENTED_EDGE('',*,*,#280,.F.);
#361=ORIENTED_EDGE('',*,*,#249,.F.);
#362=ORIENTED_EDGE('',*,*,#280,.T.);
#363=ORIENTED_EDGE('',*,*,#281,.F.);
#364=ORIENTED_EDGE('',*,*,#282,.F.);
#365=ORIENTED_EDGE('',*,*,#250,.T.);
#366=ORIENTED_EDGE('',*,*,#282,.T.);
#367=ORIENTED_EDGE('',*,*,#283,.F.);
#368=ORIENTED_EDGE('',*,*,#284,.F.);
#369=ORIENTED_EDGE('',*,*,#251,.F.);
#370=ORIENTED_EDGE('',*,*,#284,.T.);
#371=ORIENTED_EDGE('',*,*,#285,.F.);
#372=ORIENTED_EDGE('',*,*,#270,.F.);
#373=ORIENTED_EDGE('',*,*,#285,.T.);
#374=ORIENTED_EDGE('',*,*,#283,.T.);
#375=ORIENTED_EDGE('',*,*,#281,.T.);
#376=ORIENTED_EDGE('',*,*,#279,.T.);
#377=ORIENTED_EDGE('',*,*,#277,.T.);
#378=ORIENTED_EDGE('',*,*,#275,.T.);
#379=ORIENTED_EDGE('',*,*,#273,.T.);
#380=ORIENTED_EDGE('',*,*,#271,.T.);
#381=ORIENTED_EDGE('',*,*,#241,.T.);
#382=ORIENTED_EDGE('',*,*,#286,.T.);
#383=ORIENTED_EDGE('',*,*,#287,.F.);
#384=ORIENTED_EDGE('',*,*,#234,.F.);
#385=ORIENTED_EDGE('',*,*,#244,.T.);
#386=ORIENTED_EDGE('',*,*,#258,.T.);
#387=ORIENTED_EDGE('',*,*,#288,.F.);
#388=ORIENTED_EDGE('',*,*,#238,.F.);
#389=ORIENTED_EDGE('',*,*,#245,.T.);
#390=ORIENTED_EDGE('',*,*,#240,.T.);
#391=ORIENTED_EDGE('',*,*,#289,.F.);
#392=ORIENTED_EDGE('',*,*,#286,.F.);
#393=ORIENTED_EDGE('',*,*,#287,.T.);
#394=ORIENTED_EDGE('',*,*,#289,.T.);
#395=ORIENTED_EDGE('',*,*,#239,.T.);
#396=ORIENTED_EDGE('',*,*,#288,.T.);
#397=ORIENTED_EDGE('',*,*,#260,.T.);
#398=ORIENTED_EDGE('',*,*,#261,.T.);
#399=ORIENTED_EDGE('',*,*,#235,.T.);
#400=ORIENTED_EDGE('',*,*,#267,.T.);
#401=ORIENTED_EDGE('',*,*,#265,.T.);
#402=ORIENTED_EDGE('',*,*,#262,.T.);
#403=ORIENTED_EDGE('',*,*,#269,.T.);
#404=CYLINDRICAL_SURFACE('',#442,5.);
#405=CYLINDRICAL_SURFACE('',#465,5.);
#406=ADVANCED_FACE('',(#38),#404,.T.);
#407=ADVANCED_FACE('',(#39),#18,.T.);
#408=ADVANCED_FACE('',(#40,#15,#16),#19,.F.);
#409=ADVANCED_FACE('',(#41),#20,.T.);
#410=ADVANCED_FACE('',(#42),#21,.T.);
#411=ADVANCED_FACE('',(#43),#22,.F.);
#412=ADVANCED_FACE('',(#44),#23,.F.);
#413=ADVANCED_FACE('',(#45),#24,.F.);
#414=ADVANCED_FACE('',(#46),#25,.F.);
#415=ADVANCED_FACE('',(#47),#26,.T.);
#416=ADVANCED_FACE('',(#48),#27,.T.);
#417=ADVANCED_FACE('',(#49),#28,.T.);
#418=ADVANCED_FACE('',(#50),#29,.T.);
#419=ADVANCED_FACE('',(#51),#30,.T.);
#420=ADVANCED_FACE('',(#52),#31,.T.);
#421=ADVANCED_FACE('',(#53),#32,.T.);
#422=ADVANCED_FACE('',(#54),#33,.T.);
#423=ADVANCED_FACE('',(#55),#34,.T.);
#424=ADVANCED_FACE('',(#56),#35,.T.);
#425=ADVANCED_FACE('',(#57),#36,.T.);
#426=ADVANCED_FACE('',(#58),#405,.T.);
#427=ADVANCED_FACE('',(#59,#17),#37,.T.);
#428=CLOSED_SHELL('',(#406,#407,#408,#409,#410,#411,#412,#413,#414,#415,
#416,#417,#418,#419,#420,#421,#422,#423,#424,#425,#426,#427));
#429=DERIVED_UNIT_ELEMENT(#431,1.);
#430=DERIVED_UNIT_ELEMENT(#698,-3.);
#431=(
MASS_UNIT()
NAMED_UNIT(*)
SI_UNIT(.KILO.,.GRAM.)
);
#432=DERIVED_UNIT((#429,#430));
#433=MEASURE_REPRESENTATION_ITEM('density measure',
POSITIVE_RATIO_MEASURE(7850.),#432);
#434=PROPERTY_DEFINITION_REPRESENTATION(#439,#436);
#435=PROPERTY_DEFINITION_REPRESENTATION(#440,#437);
#436=REPRESENTATION('material name',(#438),#695);
#437=REPRESENTATION('density',(#433),#695);
#438=DESCRIPTIVE_REPRESENTATION_ITEM('Stahl','Stahl');
#439=PROPERTY_DEFINITION('material property','material name',#705);
#440=PROPERTY_DEFINITION('material property','density of part',#705);
#441=AXIS2_PLACEMENT_3D('',#575,#468,#469);
#442=AXIS2_PLACEMENT_3D('',#576,#470,#471);
#443=AXIS2_PLACEMENT_3D('',#579,#472,#473);
#444=AXIS2_PLACEMENT_3D('',#583,#475,#476);
#445=AXIS2_PLACEMENT_3D('',#585,#478,#479);
#446=AXIS2_PLACEMENT_3D('',#594,#484,#485);
#447=AXIS2_PLACEMENT_3D('',#602,#490,#491);
#448=AXIS2_PLACEMENT_3D('',#627,#504,#505);
#449=AXIS2_PLACEMENT_3D('',#633,#509,#510);
#450=AXIS2_PLACEMENT_3D('',#635,#512,#513);
#451=AXIS2_PLACEMENT_3D('',#641,#517,#518);
#452=AXIS2_PLACEMENT_3D('',#645,#521,#522);
#453=AXIS2_PLACEMENT_3D('',#649,#525,#526);
#454=AXIS2_PLACEMENT_3D('',#651,#528,#529);
#455=AXIS2_PLACEMENT_3D('',#657,#533,#534);
#456=AXIS2_PLACEMENT_3D('',#661,#537,#538);
#457=AXIS2_PLACEMENT_3D('',#665,#541,#542);
#458=AXIS2_PLACEMENT_3D('',#669,#545,#546);
#459=AXIS2_PLACEMENT_3D('',#673,#549,#550);
#460=AXIS2_PLACEMENT_3D('',#677,#553,#554);
#461=AXIS2_PLACEMENT_3D('',#681,#557,#558);
#462=AXIS2_PLACEMENT_3D('',#683,#560,#561);
#463=AXIS2_PLACEMENT_3D('',#684,#562,#563);
#464=AXIS2_PLACEMENT_3D('',#688,#566,#567);
#465=AXIS2_PLACEMENT_3D('',#690,#569,#570);
#466=AXIS2_PLACEMENT_3D('',#691,#571,#572);
#467=AXIS2_PLACEMENT_3D('',#692,#573,#574);
#468=DIRECTION('axis',(0.,0.,1.));
#469=DIRECTION('refdir',(1.,0.,0.));
#470=DIRECTION('center_axis',(0.,1.,0.));
#471=DIRECTION('ref_axis',(-0.707106781186547,0.,0.707106781186547));
#472=DIRECTION('center_axis',(0.,-1.,0.));
#473=DIRECTION('ref_axis',(-0.707106781186547,0.,0.707106781186547));
#474=DIRECTION('',(0.,1.,0.));
#475=DIRECTION('center_axis',(0.,1.,0.));
#476=DIRECTION('ref_axis',(-0.707106781186547,0.,0.707106781186547));
#477=DIRECTION('',(0.,1.,0.));
#478=DIRECTION('center_axis',(1.,0.,0.));
#479=DIRECTION('ref_axis',(0.,0.,-1.));
#480=DIRECTION('',(0.,0.,-1.));
#481=DIRECTION('',(0.,1.,0.));
#482=DIRECTION('',(0.,0.,-1.));
#483=DIRECTION('',(0.,1.,0.));
#484=DIRECTION('center_axis',(0.,1.,0.));
#485=DIRECTION('ref_axis',(-1.,0.,0.));
#486=DIRECTION('',(1.,0.,0.));
#487=DIRECTION('',(0.,0.,1.));
#488=DIRECTION('',(-1.,0.,0.));
#489=DIRECTION('',(-1.,0.,-9.31887353248696E-9));
#490=DIRECTION('center_axis',(0.,1.,0.));
#491=DIRECTION('ref_axis',(1.77635683940025E-15,0.,1.));
#492=DIRECTION('',(1.,0.,3.70074341541719E-17));
#493=DIRECTION('',(-8.88178419700126E-16,0.,-1.));
#494=DIRECTION('',(-1.,0.,-3.60072332310862E-16));
#495=DIRECTION('',(0.,0.,1.));
#496=DIRECTION('',(1.,0.,7.20144664621723E-16));
#497=DIRECTION('',(0.,0.,-1.));
#498=DIRECTION('',(-1.,0.,0.));
#499=DIRECTION('',(0.,0.,1.));
#500=DIRECTION('',(-1.,0.,0.));
#501=DIRECTION('',(0.,0.,1.));
#502=DIRECTION('',(1.,0.,0.));
#503=DIRECTION('',(0.,0.,-1.));
#504=DIRECTION('center_axis',(0.,0.,-1.));
#505=DIRECTION('ref_axis',(-1.,0.,0.));
#506=DIRECTION('',(0.,1.,0.));
#507=DIRECTION('',(0.,1.,0.));
#508=DIRECTION('',(-1.,0.,0.));
#509=DIRECTION('center_axis',(-1.,0.,0.));
#510=DIRECTION('ref_axis',(0.,0.,1.));
#511=DIRECTION('',(0.,0.,1.));
#512=DIRECTION('center_axis',(-1.,0.,0.));
#513=DIRECTION('ref_axis',(0.,0.,-1.));
#514=DIRECTION('',(0.,0.,-1.));
#515=DIRECTION('',(0.,-1.,0.));
#516=DIRECTION('',(0.,-1.,0.));
#517=DIRECTION('center_axis',(0.,0.,1.));
#518=DIRECTION('ref_axis',(-1.,0.,0.));
#519=DIRECTION('',(-1.,0.,0.));
#520=DIRECTION('',(0.,-1.,0.));
#521=DIRECTION('center_axis',(1.,0.,0.));
#522=DIRECTION('ref_axis',(0.,0.,1.));
#523=DIRECTION('',(0.,0.,1.));
#524=DIRECTION('',(0.,-1.,0.));
#525=DIRECTION('center_axis',(0.,0.,-1.));
#526=DIRECTION('ref_axis',(1.,0.,0.));
#527=DIRECTION('',(1.,0.,0.));
#528=DIRECTION('center_axis',(0.,0.,-1.));
#529=DIRECTION('ref_axis',(1.,0.,0.));
#530=DIRECTION('',(0.,-1.,0.));
#531=DIRECTION('',(1.,0.,0.));
#532=DIRECTION('',(0.,-1.,0.));
#533=DIRECTION('center_axis',(-1.,0.,0.));
#534=DIRECTION('ref_axis',(0.,0.,-1.));
#535=DIRECTION('',(0.,0.,-1.));
#536=DIRECTION('',(0.,-1.,0.));
#537=DIRECTION('center_axis',(-3.70074341541719E-17,0.,1.));
#538=DIRECTION('ref_axis',(-1.,0.,-3.70074341541719E-17));
#539=DIRECTION('',(-1.,0.,-3.70074341541719E-17));
#540=DIRECTION('',(0.,-1.,0.));
#541=DIRECTION('center_axis',(1.,0.,-8.88178419700126E-16));
#542=DIRECTION('ref_axis',(8.88178419700126E-16,0.,1.));
#543=DIRECTION('',(8.88178419700126E-16,0.,1.));
#544=DIRECTION('',(0.,-1.,0.));
#545=DIRECTION('center_axis',(3.60072332310862E-16,0.,-1.));
#546=DIRECTION('ref_axis',(1.,0.,3.60072332310862E-16));
#547=DIRECTION('',(1.,0.,3.60072332310862E-16));
#548=DIRECTION('',(0.,-1.,0.));
#549=DIRECTION('center_axis',(-1.,0.,0.));
#550=DIRECTION('ref_axis',(0.,0.,-1.));
#551=DIRECTION('',(0.,0.,-1.));
#552=DIRECTION('',(0.,-1.,0.));
#553=DIRECTION('center_axis',(7.20144664621723E-16,0.,-1.));
#554=DIRECTION('ref_axis',(1.,0.,7.20144664621723E-16));
#555=DIRECTION('',(1.,0.,7.20144664621723E-16));
#556=DIRECTION('',(0.,-1.,0.));
#557=DIRECTION('center_axis',(1.,0.,0.));
#558=DIRECTION('ref_axis',(0.,0.,1.));
#559=DIRECTION('',(0.,0.,1.));
#560=DIRECTION('center_axis',(0.,-1.,0.));
#561=DIRECTION('ref_axis',(0.,0.,-1.));
#562=DIRECTION('center_axis',(0.,0.,1.));
#563=DIRECTION('ref_axis',(1.,0.,0.));
#564=DIRECTION('',(0.,1.,0.));
#565=DIRECTION('',(1.,0.,0.));
#566=DIRECTION('center_axis',(9.31887353248696E-9,0.,-1.));
#567=DIRECTION('ref_axis',(-1.,0.,-9.31887353248696E-9));
#568=DIRECTION('',(-1.,0.,-9.31887353248696E-9));
#569=DIRECTION('center_axis',(0.,1.,0.));
#570=DIRECTION('ref_axis',(1.77635683940025E-15,0.,1.));
#571=DIRECTION('center_axis',(0.,1.,0.));
#572=DIRECTION('ref_axis',(1.77635683940025E-15,0.,1.));
#573=DIRECTION('center_axis',(0.,1.,0.));
#574=DIRECTION('ref_axis',(-1.,0.,0.));
#575=CARTESIAN_POINT('',(0.,0.,0.));
#576=CARTESIAN_POINT('Origin',(-30.,60.,20.));
#577=CARTESIAN_POINT('',(-30.,60.,25.));
#578=CARTESIAN_POINT('',(-35.,60.,20.));
#579=CARTESIAN_POINT('Origin',(-30.,60.,20.));
#580=CARTESIAN_POINT('',(-30.,62.,25.));
#581=CARTESIAN_POINT('',(-30.,60.,25.));
#582=CARTESIAN_POINT('',(-35.,62.,20.));
#583=CARTESIAN_POINT('Origin',(-30.,62.,20.));
#584=CARTESIAN_POINT('',(-35.,60.,20.));
#585=CARTESIAN_POINT('Origin',(72.,60.,20.));
#586=CARTESIAN_POINT('',(72.,60.,20.));
#587=CARTESIAN_POINT('',(72.,60.,-24.999999114707));
#588=CARTESIAN_POINT('',(72.,60.,25.));
#589=CARTESIAN_POINT('',(72.,62.,-24.999999114707));
#590=CARTESIAN_POINT('',(72.,60.,-24.999999114707));
#591=CARTESIAN_POINT('',(72.,62.,20.));
#592=CARTESIAN_POINT('',(72.,62.,25.));
#593=CARTESIAN_POINT('',(72.,60.,20.));
#594=CARTESIAN_POINT('Origin',(18.5,60.,0.));
#595=CARTESIAN_POINT('',(67.,60.,25.));
#596=CARTESIAN_POINT('',(72.,60.,25.));
#597=CARTESIAN_POINT('',(-35.,60.,-25.));
#598=CARTESIAN_POINT('',(-35.,60.,25.));
#599=CARTESIAN_POINT('',(-23.,60.,-25.));
#600=CARTESIAN_POINT('',(-35.,60.,-25.));
#601=CARTESIAN_POINT('',(72.,60.,-24.999999114707));
#602=CARTESIAN_POINT('Origin',(67.,60.,20.));
#603=CARTESIAN_POINT('',(-30.,60.,20.));
#604=CARTESIAN_POINT('',(67.,60.,20.));
#605=CARTESIAN_POINT('',(42.75,60.,20.));
#606=CARTESIAN_POINT('',(67.,60.,-20.));
#607=CARTESIAN_POINT('',(67.,60.,-10.));
#608=CARTESIAN_POINT('',(65.,60.,-20.));
#609=CARTESIAN_POINT('',(41.75,60.,-20.));
#610=CARTESIAN_POINT('',(65.,60.,18.));
#611=CARTESIAN_POINT('',(65.,60.,9.00000000000001));
#612=CARTESIAN_POINT('',(-28.,60.,18.));
#613=CARTESIAN_POINT('',(28.,60.,18.));
#614=CARTESIAN_POINT('',(-28.,60.,-20.));
#615=CARTESIAN_POINT('',(-28.,60.,-18.));
#616=CARTESIAN_POINT('',(-30.,60.,-20.));
#617=CARTESIAN_POINT('',(30.,60.,-20.));
#618=CARTESIAN_POINT('',(-30.,60.,-20.));
#619=CARTESIAN_POINT('',(6.46620935310001,60.,-19.9999995554508));
#620=CARTESIAN_POINT('',(-4.53379064689999,60.,-19.9999995554508));
#621=CARTESIAN_POINT('',(6.98310467655001,60.,-19.9999995554508));
#622=CARTESIAN_POINT('',(-4.53379064689999,60.,-14.8499995554508));
#623=CARTESIAN_POINT('',(-4.53379064689999,60.,-7.42499977772541));
#624=CARTESIAN_POINT('',(6.46620935310001,60.,-14.8499995554508));
#625=CARTESIAN_POINT('',(12.48310467655,60.,-14.8499995554508));
#626=CARTESIAN_POINT('',(6.46620935310001,60.,-9.99999977772541));
#627=CARTESIAN_POINT('Origin',(72.,60.,-25.));
#628=CARTESIAN_POINT('',(-23.,62.,-25.));
#629=CARTESIAN_POINT('',(-23.,60.,-25.));
#630=CARTESIAN_POINT('',(-35.,62.,-25.));
#631=CARTESIAN_POINT('',(-35.,60.,-25.));
#632=CARTESIAN_POINT('',(-35.,62.,-25.));
#633=CARTESIAN_POINT('Origin',(-35.,60.,-25.));
#634=CARTESIAN_POINT('',(-35.,62.,25.));
#635=CARTESIAN_POINT('Origin',(-4.53379064689999,62.,-14.8499995554508));
#636=CARTESIAN_POINT('',(-4.53379064689999,62.,-14.8499995554508));
#637=CARTESIAN_POINT('',(-4.53379064689999,62.,-19.9999995554508));
#638=CARTESIAN_POINT('',(-4.53379064689999,62.,-7.42499977772541));
#639=CARTESIAN_POINT('',(-4.53379064689999,62.,-14.8499995554508));
#640=CARTESIAN_POINT('',(-4.53379064689999,62.,-19.9999995554508));
#641=CARTESIAN_POINT('Origin',(6.46620935310001,62.,-14.8499995554508));
#642=CARTESIAN_POINT('',(6.46620935310001,62.,-14.8499995554508));
#643=CARTESIAN_POINT('',(12.48310467655,62.,-14.8499995554508));
#644=CARTESIAN_POINT('',(6.46620935310001,62.,-14.8499995554508));
#645=CARTESIAN_POINT('Origin',(6.46620935310001,62.,-19.9999995554508));
#646=CARTESIAN_POINT('',(6.46620935310001,62.,-19.9999995554508));
#647=CARTESIAN_POINT('',(6.46620935310001,62.,-9.99999977772541));
#648=CARTESIAN_POINT('',(6.46620935310001,62.,-19.9999995554508));
#649=CARTESIAN_POINT('Origin',(-4.53379064689999,62.,-19.9999995554508));
#650=CARTESIAN_POINT('',(6.98310467655001,62.,-19.9999995554508));
#651=CARTESIAN_POINT('Origin',(-30.,60.,-20.));
#652=CARTESIAN_POINT('',(-28.,58.,-20.));
#653=CARTESIAN_POINT('',(-28.,60.,-20.));
#654=CARTESIAN_POINT('',(-30.,58.,-20.));
#655=CARTESIAN_POINT('',(30.,58.,-20.));
#656=CARTESIAN_POINT('',(-30.,60.,-20.));
#657=CARTESIAN_POINT('Origin',(-30.,60.,20.));
#658=CARTESIAN_POINT('',(-30.,58.,20.));
#659=CARTESIAN_POINT('',(-30.,58.,-20.));
#660=CARTESIAN_POINT('',(-30.,60.,20.));
#661=CARTESIAN_POINT('Origin',(67.,60.,20.));
#662=CARTESIAN_POINT('',(67.,58.,20.));
#663=CARTESIAN_POINT('',(-30.,58.,20.));
#664=CARTESIAN_POINT('',(67.,60.,20.));
#665=CARTESIAN_POINT('Origin',(67.,60.,-20.));
#666=CARTESIAN_POINT('',(67.,58.,-20.));
#667=CARTESIAN_POINT('',(67.,58.,20.));
#668=CARTESIAN_POINT('',(67.,60.,-20.));
#669=CARTESIAN_POINT('Origin',(65.,60.,-20.));
#670=CARTESIAN_POINT('',(65.,58.,-20.));
#671=CARTESIAN_POINT('',(67.,58.,-20.));
#672=CARTESIAN_POINT('',(65.,60.,-20.));
#673=CARTESIAN_POINT('Origin',(65.,60.,18.));
#674=CARTESIAN_POINT('',(65.,58.,18.));
#675=CARTESIAN_POINT('',(65.,58.,-18.));
#676=CARTESIAN_POINT('',(65.,60.,18.));
#677=CARTESIAN_POINT('Origin',(-28.,60.,18.));
#678=CARTESIAN_POINT('',(-28.,58.,18.));
#679=CARTESIAN_POINT('',(28.,58.,18.));
#680=CARTESIAN_POINT('',(-28.,60.,18.));
#681=CARTESIAN_POINT('Origin',(-28.,60.,-20.));
#682=CARTESIAN_POINT('',(-28.,58.,-18.));
#683=CARTESIAN_POINT('Origin',(18.5,58.,-2.22044604925031E-15));
#684=CARTESIAN_POINT('Origin',(-23.,60.,25.));
#685=CARTESIAN_POINT('',(67.,62.,25.));
#686=CARTESIAN_POINT('',(67.,60.,25.));
#687=CARTESIAN_POINT('',(72.,62.,25.));
#688=CARTESIAN_POINT('Origin',(72.,60.,-24.999999114707));
#689=CARTESIAN_POINT('',(72.,62.,-24.999999114707));
#690=CARTESIAN_POINT('Origin',(67.,60.,20.));
#691=CARTESIAN_POINT('Origin',(67.,62.,20.));
#692=CARTESIAN_POINT('Origin',(18.5,62.,0.));
#693=UNCERTAINTY_MEASURE_WITH_UNIT(LENGTH_MEASURE(0.01),#697,
'DISTANCE_ACCURACY_VALUE',
'Maximum model space distance between geometric entities at asserted c
onnectivities');
#694=UNCERTAINTY_MEASURE_WITH_UNIT(LENGTH_MEASURE(0.01),#697,
'DISTANCE_ACCURACY_VALUE',
'Maximum model space distance between geometric entities at asserted c
onnectivities');
#695=(
GEOMETRIC_REPRESENTATION_CONTEXT(3)
GLOBAL_UNCERTAINTY_ASSIGNED_CONTEXT((#693))
GLOBAL_UNIT_ASSIGNED_CONTEXT((#697,#699,#700))
REPRESENTATION_CONTEXT('','3D')
);
#696=(
GEOMETRIC_REPRESENTATION_CONTEXT(3)
GLOBAL_UNCERTAINTY_ASSIGNED_CONTEXT((#694))
GLOBAL_UNIT_ASSIGNED_CONTEXT((#697,#699,#700))
REPRESENTATION_CONTEXT('','3D')
);
#697=(
LENGTH_UNIT()
NAMED_UNIT(*)
SI_UNIT(.MILLI.,.METRE.)
);
#698=(
LENGTH_UNIT()
NAMED_UNIT(*)
SI_UNIT($,.METRE.)
);
#699=(
NAMED_UNIT(*)
PLANE_ANGLE_UNIT()
SI_UNIT($,.RADIAN.)
);
#700=(
NAMED_UNIT(*)
SI_UNIT($,.STERADIAN.)
SOLID_ANGLE_UNIT()
);
#701=SHAPE_DEFINITION_REPRESENTATION(#702,#703);
#702=PRODUCT_DEFINITION_SHAPE('',$,#705);
#703=SHAPE_REPRESENTATION('',(#441),#695);
#704=PRODUCT_DEFINITION_CONTEXT('part definition',#709,'design');
#705=PRODUCT_DEFINITION('Fusion-Komponente','Fusion-Komponente',#706,#704);
#706=PRODUCT_DEFINITION_FORMATION('',$,#711);
#707=PRODUCT_RELATED_PRODUCT_CATEGORY('Fusion-Komponente',
'Fusion-Komponente',(#711));
#708=APPLICATION_PROTOCOL_DEFINITION('international standard',
'automotive_design',2009,#709);
#709=APPLICATION_CONTEXT(
'Core Data for Automotive Mechanical Design Process');
#710=PRODUCT_CONTEXT('part definition',#709,'mechanical');
#711=PRODUCT('Fusion-Komponente','Fusion-Komponente',$,(#710));
#712=PRESENTATION_STYLE_ASSIGNMENT((#713));
#713=SURFACE_STYLE_USAGE(.BOTH.,#714);
#714=SURFACE_SIDE_STYLE('',(#715));
#715=SURFACE_STYLE_FILL_AREA(#716);
#716=FILL_AREA_STYLE('Stahl - satiniert',(#717));
#717=FILL_AREA_STYLE_COLOUR('Stahl - satiniert',#718);
#718=COLOUR_RGB('Stahl - satiniert',0.627450980392157,0.627450980392157,
0.627450980392157);
ENDSEC;
END-ISO-10303-21;
