ISO-10303-21;
HEADER;
/* Generated by software containing ST-Developer
 * from STEP Tools, Inc. (www.steptools.com) 
 */

FILE_DESCRIPTION(
/* description */ (''),
/* implementation_level */ '2;1');

FILE_NAME(
/* name */ 'MainSDisplay.step',
/* time_stamp */ '2026-05-30T00:04:30+02:00',
/* author */ (''),
/* organization */ (''),
/* preprocessor_version */ 'ST-DEVELOPER v20.1',
/* originating_system */ 'Autodesk Translation Framework v15.8.0.0',
/* authorisation */ '');

FILE_SCHEMA (('AUTOMOTIVE_DESIGN { 1 0 10303 214 3 1 1 }'));
ENDSEC;

DATA;
#10=MECHANICAL_DESIGN_GEOMETRIC_PRESENTATION_REPRESENTATION('',(#13),#1830);
#11=SHAPE_REPRESENTATION_RELATIONSHIP('SRR','None',#1837,#12);
#12=ADVANCED_BREP_SHAPE_REPRESENTATION('',(#14),#1829);
#13=STYLED_ITEM('',(#1846),#14);
#14=MANIFOLD_SOLID_BREP('K\X\F6rper1',#1127);
#15=FACE_BOUND('',#152,.T.);
#16=FACE_BOUND('',#153,.T.);
#17=FACE_BOUND('',#154,.T.);
#18=FACE_BOUND('',#155,.T.);
#19=FACE_BOUND('',#156,.T.);
#20=FACE_BOUND('',#157,.T.);
#21=FACE_BOUND('',#158,.T.);
#22=FACE_BOUND('',#161,.T.);
#23=FACE_BOUND('',#200,.T.);
#24=PLANE('',#1144);
#25=PLANE('',#1148);
#26=PLANE('',#1152);
#27=PLANE('',#1156);
#28=PLANE('',#1160);
#29=PLANE('',#1161);
#30=PLANE('',#1162);
#31=PLANE('',#1163);
#32=PLANE('',#1164);
#33=PLANE('',#1166);
#34=PLANE('',#1167);
#35=PLANE('',#1170);
#36=PLANE('',#1171);
#37=PLANE('',#1172);
#38=PLANE('',#1173);
#39=PLANE('',#1174);
#40=PLANE('',#1175);
#41=PLANE('',#1176);
#42=PLANE('',#1177);
#43=PLANE('',#1178);
#44=PLANE('',#1179);
#45=PLANE('',#1180);
#46=PLANE('',#1181);
#47=PLANE('',#1182);
#48=PLANE('',#1183);
#49=PLANE('',#1184);
#50=PLANE('',#1185);
#51=PLANE('',#1187);
#52=PLANE('',#1189);
#53=PLANE('',#1190);
#54=PLANE('',#1191);
#55=PLANE('',#1192);
#56=PLANE('',#1193);
#57=PLANE('',#1194);
#58=PLANE('',#1195);
#59=PLANE('',#1196);
#60=PLANE('',#1197);
#61=PLANE('',#1198);
#62=PLANE('',#1199);
#63=PLANE('',#1200);
#64=PLANE('',#1201);
#65=PLANE('',#1202);
#66=PLANE('',#1203);
#67=PLANE('',#1204);
#68=PLANE('',#1205);
#69=PLANE('',#1206);
#70=PLANE('',#1207);
#71=PLANE('',#1208);
#72=PLANE('',#1213);
#73=PLANE('',#1214);
#74=PLANE('',#1215);
#75=PLANE('',#1216);
#76=PLANE('',#1217);
#77=FACE_OUTER_BOUND('',#138,.T.);
#78=FACE_OUTER_BOUND('',#139,.T.);
#79=FACE_OUTER_BOUND('',#140,.T.);
#80=FACE_OUTER_BOUND('',#141,.T.);
#81=FACE_OUTER_BOUND('',#142,.T.);
#82=FACE_OUTER_BOUND('',#143,.T.);
#83=FACE_OUTER_BOUND('',#144,.T.);
#84=FACE_OUTER_BOUND('',#145,.T.);
#85=FACE_OUTER_BOUND('',#146,.T.);
#86=FACE_OUTER_BOUND('',#147,.T.);
#87=FACE_OUTER_BOUND('',#148,.T.);
#88=FACE_OUTER_BOUND('',#149,.T.);
#89=FACE_OUTER_BOUND('',#150,.T.);
#90=FACE_OUTER_BOUND('',#151,.T.);
#91=FACE_OUTER_BOUND('',#159,.T.);
#92=FACE_OUTER_BOUND('',#160,.T.);
#93=FACE_OUTER_BOUND('',#162,.T.);
#94=FACE_OUTER_BOUND('',#163,.T.);
#95=FACE_OUTER_BOUND('',#164,.T.);
#96=FACE_OUTER_BOUND('',#165,.T.);
#97=FACE_OUTER_BOUND('',#166,.T.);
#98=FACE_OUTER_BOUND('',#167,.T.);
#99=FACE_OUTER_BOUND('',#168,.T.);
#100=FACE_OUTER_BOUND('',#169,.T.);
#101=FACE_OUTER_BOUND('',#170,.T.);
#102=FACE_OUTER_BOUND('',#171,.T.);
#103=FACE_OUTER_BOUND('',#172,.T.);
#104=FACE_OUTER_BOUND('',#173,.T.);
#105=FACE_OUTER_BOUND('',#174,.T.);
#106=FACE_OUTER_BOUND('',#175,.T.);
#107=FACE_OUTER_BOUND('',#176,.T.);
#108=FACE_OUTER_BOUND('',#177,.T.);
#109=FACE_OUTER_BOUND('',#178,.T.);
#110=FACE_OUTER_BOUND('',#179,.T.);
#111=FACE_OUTER_BOUND('',#180,.T.);
#112=FACE_OUTER_BOUND('',#181,.T.);
#113=FACE_OUTER_BOUND('',#182,.T.);
#114=FACE_OUTER_BOUND('',#183,.T.);
#115=FACE_OUTER_BOUND('',#184,.T.);
#116=FACE_OUTER_BOUND('',#185,.T.);
#117=FACE_OUTER_BOUND('',#186,.T.);
#118=FACE_OUTER_BOUND('',#187,.T.);
#119=FACE_OUTER_BOUND('',#188,.T.);
#120=FACE_OUTER_BOUND('',#189,.T.);
#121=FACE_OUTER_BOUND('',#190,.T.);
#122=FACE_OUTER_BOUND('',#191,.T.);
#123=FACE_OUTER_BOUND('',#192,.T.);
#124=FACE_OUTER_BOUND('',#193,.T.);
#125=FACE_OUTER_BOUND('',#194,.T.);
#126=FACE_OUTER_BOUND('',#195,.T.);
#127=FACE_OUTER_BOUND('',#196,.T.);
#128=FACE_OUTER_BOUND('',#197,.T.);
#129=FACE_OUTER_BOUND('',#198,.T.);
#130=FACE_OUTER_BOUND('',#199,.T.);
#131=FACE_OUTER_BOUND('',#201,.T.);
#132=FACE_OUTER_BOUND('',#202,.T.);
#133=FACE_OUTER_BOUND('',#203,.T.);
#134=FACE_OUTER_BOUND('',#204,.T.);
#135=FACE_OUTER_BOUND('',#205,.T.);
#136=FACE_OUTER_BOUND('',#206,.T.);
#137=FACE_OUTER_BOUND('',#207,.T.);
#138=EDGE_LOOP('',(#752,#753,#754,#755));
#139=EDGE_LOOP('',(#756));
#140=EDGE_LOOP('',(#757,#758,#759,#760));
#141=EDGE_LOOP('',(#761));
#142=EDGE_LOOP('',(#762,#763,#764,#765));
#143=EDGE_LOOP('',(#766));
#144=EDGE_LOOP('',(#767,#768,#769,#770));
#145=EDGE_LOOP('',(#771));
#146=EDGE_LOOP('',(#772,#773,#774,#775));
#147=EDGE_LOOP('',(#776));
#148=EDGE_LOOP('',(#777,#778,#779,#780));
#149=EDGE_LOOP('',(#781,#782,#783,#784));
#150=EDGE_LOOP('',(#785,#786,#787,#788));
#151=EDGE_LOOP('',(#789,#790,#791,#792,#793,#794,#795,#796,#797,#798));
#152=EDGE_LOOP('',(#799));
#153=EDGE_LOOP('',(#800));
#154=EDGE_LOOP('',(#801));
#155=EDGE_LOOP('',(#802));
#156=EDGE_LOOP('',(#803));
#157=EDGE_LOOP('',(#804,#805,#806,#807));
#158=EDGE_LOOP('',(#808));
#159=EDGE_LOOP('',(#809,#810,#811,#812));
#160=EDGE_LOOP('',(#813,#814,#815,#816,#817,#818,#819,#820));
#161=EDGE_LOOP('',(#821,#822,#823,#824));
#162=EDGE_LOOP('',(#825,#826,#827,#828));
#163=EDGE_LOOP('',(#829));
#164=EDGE_LOOP('',(#830,#831,#832,#833,#834));
#165=EDGE_LOOP('',(#835,#836,#837,#838));
#166=EDGE_LOOP('',(#839,#840,#841,#842));
#167=EDGE_LOOP('',(#843,#844,#845,#846));
#168=EDGE_LOOP('',(#847,#848,#849,#850,#851,#852));
#169=EDGE_LOOP('',(#853,#854,#855,#856));
#170=EDGE_LOOP('',(#857,#858,#859,#860));
#171=EDGE_LOOP('',(#861,#862,#863,#864));
#172=EDGE_LOOP('',(#865,#866,#867,#868));
#173=EDGE_LOOP('',(#869,#870,#871,#872));
#174=EDGE_LOOP('',(#873,#874,#875,#876));
#175=EDGE_LOOP('',(#877,#878,#879,#880));
#176=EDGE_LOOP('',(#881,#882,#883,#884));
#177=EDGE_LOOP('',(#885,#886,#887,#888));
#178=EDGE_LOOP('',(#889,#890,#891,#892,#893,#894,#895));
#179=EDGE_LOOP('',(#896,#897,#898,#899,#900,#901,#902));
#180=EDGE_LOOP('',(#903,#904,#905,#906));
#181=EDGE_LOOP('',(#907,#908,#909,#910));
#182=EDGE_LOOP('',(#911,#912,#913,#914,#915,#916,#917,#918,#919,#920,#921,
#922,#923,#924,#925,#926));
#183=EDGE_LOOP('',(#927,#928,#929,#930));
#184=EDGE_LOOP('',(#931,#932,#933,#934,#935,#936,#937,#938));
#185=EDGE_LOOP('',(#939,#940,#941,#942,#943,#944,#945,#946));
#186=EDGE_LOOP('',(#947,#948,#949,#950,#951,#952));
#187=EDGE_LOOP('',(#953,#954,#955,#956));
#188=EDGE_LOOP('',(#957,#958,#959,#960,#961));
#189=EDGE_LOOP('',(#962,#963,#964,#965));
#190=EDGE_LOOP('',(#966,#967,#968,#969,#970,#971,#972,#973));
#191=EDGE_LOOP('',(#974,#975,#976,#977));
#192=EDGE_LOOP('',(#978,#979,#980,#981));
#193=EDGE_LOOP('',(#982,#983,#984,#985));
#194=EDGE_LOOP('',(#986,#987,#988,#989));
#195=EDGE_LOOP('',(#990,#991,#992,#993));
#196=EDGE_LOOP('',(#994,#995,#996,#997));
#197=EDGE_LOOP('',(#998,#999,#1000,#1001,#1002,#1003,#1004,#1005));
#198=EDGE_LOOP('',(#1006,#1007,#1008,#1009));
#199=EDGE_LOOP('',(#1010,#1011,#1012,#1013,#1014,#1015,#1016,#1017,#1018,
#1019,#1020,#1021,#1022,#1023));
#200=EDGE_LOOP('',(#1024,#1025,#1026,#1027));
#201=EDGE_LOOP('',(#1028,#1029,#1030,#1031));
#202=EDGE_LOOP('',(#1032,#1033,#1034,#1035));
#203=EDGE_LOOP('',(#1036,#1037,#1038,#1039));
#204=EDGE_LOOP('',(#1040,#1041,#1042,#1043));
#205=EDGE_LOOP('',(#1044,#1045,#1046,#1047));
#206=EDGE_LOOP('',(#1048,#1049,#1050,#1051));
#207=EDGE_LOOP('',(#1052,#1053,#1054,#1055,#1056,#1057));
#208=LINE('',#1516,#345);
#209=LINE('',#1523,#346);
#210=LINE('',#1530,#347);
#211=LINE('',#1537,#348);
#212=LINE('',#1544,#349);
#213=LINE('',#1550,#350);
#214=LINE('',#1552,#351);
#215=LINE('',#1554,#352);
#216=LINE('',#1555,#353);
#217=LINE('',#1558,#354);
#218=LINE('',#1560,#355);
#219=LINE('',#1561,#356);
#220=LINE('',#1565,#357);
#221=LINE('',#1566,#358);
#222=LINE('',#1567,#359);
#223=LINE('',#1571,#360);
#224=LINE('',#1573,#361);
#225=LINE('',#1575,#362);
#226=LINE('',#1577,#363);
#227=LINE('',#1579,#364);
#228=LINE('',#1581,#365);
#229=LINE('',#1583,#366);
#230=LINE('',#1585,#367);
#231=LINE('',#1587,#368);
#232=LINE('',#1588,#369);
#233=LINE('',#1589,#370);
#234=LINE('',#1593,#371);
#235=LINE('',#1597,#372);
#236=LINE('',#1599,#373);
#237=LINE('',#1601,#374);
#238=LINE('',#1603,#375);
#239=LINE('',#1605,#376);
#240=LINE('',#1607,#377);
#241=LINE('',#1609,#378);
#242=LINE('',#1610,#379);
#243=LINE('',#1614,#380);
#244=LINE('',#1619,#381);
#245=LINE('',#1621,#382);
#246=LINE('',#1623,#383);
#247=LINE('',#1625,#384);
#248=LINE('',#1626,#385);
#249=LINE('',#1629,#386);
#250=LINE('',#1631,#387);
#251=LINE('',#1632,#388);
#252=LINE('',#1635,#389);
#253=LINE('',#1637,#390);
#254=LINE('',#1638,#391);
#255=LINE('',#1640,#392);
#256=LINE('',#1643,#393);
#257=LINE('',#1645,#394);
#258=LINE('',#1647,#395);
#259=LINE('',#1649,#396);
#260=LINE('',#1650,#397);
#261=LINE('',#1653,#398);
#262=LINE('',#1655,#399);
#263=LINE('',#1656,#400);
#264=LINE('',#1659,#401);
#265=LINE('',#1660,#402);
#266=LINE('',#1663,#403);
#267=LINE('',#1664,#404);
#268=LINE('',#1668,#405);
#269=LINE('',#1670,#406);
#270=LINE('',#1672,#407);
#271=LINE('',#1673,#408);
#272=LINE('',#1676,#409);
#273=LINE('',#1678,#410);
#274=LINE('',#1679,#411);
#275=LINE('',#1683,#412);
#276=LINE('',#1685,#413);
#277=LINE('',#1687,#414);
#278=LINE('',#1688,#415);
#279=LINE('',#1692,#416);
#280=LINE('',#1694,#417);
#281=LINE('',#1696,#418);
#282=LINE('',#1697,#419);
#283=LINE('',#1699,#420);
#284=LINE('',#1700,#421);
#285=LINE('',#1702,#422);
#286=LINE('',#1703,#423);
#287=LINE('',#1708,#424);
#288=LINE('',#1710,#425);
#289=LINE('',#1711,#426);
#290=LINE('',#1712,#427);
#291=LINE('',#1714,#428);
#292=LINE('',#1716,#429);
#293=LINE('',#1718,#430);
#294=LINE('',#1720,#431);
#295=LINE('',#1724,#432);
#296=LINE('',#1725,#433);
#297=LINE('',#1728,#434);
#298=LINE('',#1729,#435);
#299=LINE('',#1732,#436);
#300=LINE('',#1734,#437);
#301=LINE('',#1736,#438);
#302=LINE('',#1738,#439);
#303=LINE('',#1740,#440);
#304=LINE('',#1742,#441);
#305=LINE('',#1744,#442);
#306=LINE('',#1746,#443);
#307=LINE('',#1747,#444);
#308=LINE('',#1749,#445);
#309=LINE('',#1751,#446);
#310=LINE('',#1752,#447);
#311=LINE('',#1755,#448);
#312=LINE('',#1756,#449);
#313=LINE('',#1759,#450);
#314=LINE('',#1760,#451);
#315=LINE('',#1763,#452);
#316=LINE('',#1764,#453);
#317=LINE('',#1767,#454);
#318=LINE('',#1768,#455);
#319=LINE('',#1770,#456);
#320=LINE('',#1771,#457);
#321=LINE('',#1772,#458);
#322=LINE('',#1776,#459);
#323=LINE('',#1777,#460);
#324=LINE('',#1779,#461);
#325=LINE('',#1782,#462);
#326=LINE('',#1784,#463);
#327=LINE('',#1785,#464);
#328=LINE('',#1788,#465);
#329=LINE('',#1790,#466);
#330=LINE('',#1791,#467);
#331=LINE('',#1793,#468);
#332=LINE('',#1794,#469);
#333=LINE('',#1797,#470);
#334=LINE('',#1799,#471);
#335=LINE('',#1800,#472);
#336=LINE('',#1803,#473);
#337=LINE('',#1805,#474);
#338=LINE('',#1806,#475);
#339=LINE('',#1808,#476);
#340=LINE('',#1809,#477);
#341=LINE('',#1815,#478);
#342=LINE('',#1820,#479);
#343=LINE('',#1821,#480);
#344=LINE('',#1825,#481);
#345=VECTOR('',#1224,1.4);
#346=VECTOR('',#1233,0.750000000000002);
#347=VECTOR('',#1242,0.750000000000002);
#348=VECTOR('',#1251,0.750000000000002);
#349=VECTOR('',#1260,0.750000000000002);
#350=VECTOR('',#1267,10.);
#351=VECTOR('',#1268,10.);
#352=VECTOR('',#1269,10.);
#353=VECTOR('',#1270,10.);
#354=VECTOR('',#1273,10.);
#355=VECTOR('',#1274,10.);
#356=VECTOR('',#1275,10.);
#357=VECTOR('',#1278,10.);
#358=VECTOR('',#1279,10.);
#359=VECTOR('',#1280,10.);
#360=VECTOR('',#1283,10.);
#361=VECTOR('',#1284,10.);
#362=VECTOR('',#1285,10.);
#363=VECTOR('',#1286,10.);
#364=VECTOR('',#1287,10.);
#365=VECTOR('',#1288,10.);
#366=VECTOR('',#1289,10.);
#367=VECTOR('',#1290,10.);
#368=VECTOR('',#1291,10.);
#369=VECTOR('',#1292,10.);
#370=VECTOR('',#1293,10.);
#371=VECTOR('',#1298,10.);
#372=VECTOR('',#1301,10.);
#373=VECTOR('',#1302,10.);
#374=VECTOR('',#1303,10.);
#375=VECTOR('',#1304,10.);
#376=VECTOR('',#1305,10.);
#377=VECTOR('',#1306,10.);
#378=VECTOR('',#1307,10.);
#379=VECTOR('',#1308,10.);
#380=VECTOR('',#1313,1.4);
#381=VECTOR('',#1318,10.);
#382=VECTOR('',#1319,10.);
#383=VECTOR('',#1320,10.);
#384=VECTOR('',#1321,10.);
#385=VECTOR('',#1322,10.);
#386=VECTOR('',#1325,10.);
#387=VECTOR('',#1326,10.);
#388=VECTOR('',#1327,10.);
#389=VECTOR('',#1330,10.);
#390=VECTOR('',#1331,10.);
#391=VECTOR('',#1332,10.);
#392=VECTOR('',#1335,10.);
#393=VECTOR('',#1338,10.);
#394=VECTOR('',#1339,10.);
#395=VECTOR('',#1340,10.);
#396=VECTOR('',#1341,10.);
#397=VECTOR('',#1342,10.);
#398=VECTOR('',#1345,10.);
#399=VECTOR('',#1346,10.);
#400=VECTOR('',#1347,10.);
#401=VECTOR('',#1350,10.);
#402=VECTOR('',#1351,10.);
#403=VECTOR('',#1354,10.);
#404=VECTOR('',#1355,10.);
#405=VECTOR('',#1358,10.);
#406=VECTOR('',#1359,10.);
#407=VECTOR('',#1360,10.);
#408=VECTOR('',#1361,10.);
#409=VECTOR('',#1364,10.);
#410=VECTOR('',#1365,10.);
#411=VECTOR('',#1366,10.);
#412=VECTOR('',#1369,10.);
#413=VECTOR('',#1370,10.);
#414=VECTOR('',#1371,10.);
#415=VECTOR('',#1372,10.);
#416=VECTOR('',#1375,10.);
#417=VECTOR('',#1376,10.);
#418=VECTOR('',#1377,10.);
#419=VECTOR('',#1378,10.);
#420=VECTOR('',#1381,10.);
#421=VECTOR('',#1382,10.);
#422=VECTOR('',#1385,10.);
#423=VECTOR('',#1386,10.);
#424=VECTOR('',#1391,10.);
#425=VECTOR('',#1392,10.);
#426=VECTOR('',#1393,10.);
#427=VECTOR('',#1394,10.);
#428=VECTOR('',#1397,10.);
#429=VECTOR('',#1398,10.);
#430=VECTOR('',#1399,10.);
#431=VECTOR('',#1400,10.);
#432=VECTOR('',#1405,10.);
#433=VECTOR('',#1406,10.);
#434=VECTOR('',#1409,10.);
#435=VECTOR('',#1410,10.);
#436=VECTOR('',#1413,10.);
#437=VECTOR('',#1414,10.);
#438=VECTOR('',#1415,10.);
#439=VECTOR('',#1416,10.);
#440=VECTOR('',#1417,10.);
#441=VECTOR('',#1418,10.);
#442=VECTOR('',#1419,10.);
#443=VECTOR('',#1420,10.);
#444=VECTOR('',#1421,10.);
#445=VECTOR('',#1422,10.);
#446=VECTOR('',#1423,10.);
#447=VECTOR('',#1424,10.);
#448=VECTOR('',#1427,10.);
#449=VECTOR('',#1428,10.);
#450=VECTOR('',#1431,10.);
#451=VECTOR('',#1432,10.);
#452=VECTOR('',#1435,10.);
#453=VECTOR('',#1436,10.);
#454=VECTOR('',#1439,10.);
#455=VECTOR('',#1440,10.);
#456=VECTOR('',#1443,10.);
#457=VECTOR('',#1444,10.);
#458=VECTOR('',#1445,10.);
#459=VECTOR('',#1450,10.);
#460=VECTOR('',#1451,10.);
#461=VECTOR('',#1454,10.);
#462=VECTOR('',#1457,10.);
#463=VECTOR('',#1458,10.);
#464=VECTOR('',#1459,10.);
#465=VECTOR('',#1462,10.);
#466=VECTOR('',#1463,10.);
#467=VECTOR('',#1464,10.);
#468=VECTOR('',#1467,10.);
#469=VECTOR('',#1468,10.);
#470=VECTOR('',#1471,10.);
#471=VECTOR('',#1472,10.);
#472=VECTOR('',#1473,10.);
#473=VECTOR('',#1476,10.);
#474=VECTOR('',#1477,10.);
#475=VECTOR('',#1478,10.);
#476=VECTOR('',#1481,10.);
#477=VECTOR('',#1482,10.);
#478=VECTOR('',#1491,10.);
#479=VECTOR('',#1500,10.);
#480=VECTOR('',#1501,10.);
#481=VECTOR('',#1508,10.);
#482=CIRCLE('',#1142,1.4);
#483=CIRCLE('',#1143,1.4);
#484=CIRCLE('',#1146,0.750000000000002);
#485=CIRCLE('',#1147,0.750000000000002);
#486=CIRCLE('',#1150,0.750000000000002);
#487=CIRCLE('',#1151,0.750000000000002);
#488=CIRCLE('',#1154,0.750000000000002);
#489=CIRCLE('',#1155,0.750000000000002);
#490=CIRCLE('',#1158,0.750000000000002);
#491=CIRCLE('',#1159,0.750000000000002);
#492=CIRCLE('',#1165,1.4);
#493=CIRCLE('',#1169,1.4);
#494=CIRCLE('',#1186,5.);
#495=CIRCLE('',#1188,5.);
#496=CIRCLE('',#1210,5.);
#497=CIRCLE('',#1212,5.);
#498=VERTEX_POINT('',#1513);
#499=VERTEX_POINT('',#1515);
#500=VERTEX_POINT('',#1520);
#501=VERTEX_POINT('',#1522);
#502=VERTEX_POINT('',#1527);
#503=VERTEX_POINT('',#1529);
#504=VERTEX_POINT('',#1534);
#505=VERTEX_POINT('',#1536);
#506=VERTEX_POINT('',#1541);
#507=VERTEX_POINT('',#1543);
#508=VERTEX_POINT('',#1548);
#509=VERTEX_POINT('',#1549);
#510=VERTEX_POINT('',#1551);
#511=VERTEX_POINT('',#1553);
#512=VERTEX_POINT('',#1557);
#513=VERTEX_POINT('',#1559);
#514=VERTEX_POINT('',#1563);
#515=VERTEX_POINT('',#1564);
#516=VERTEX_POINT('',#1569);
#517=VERTEX_POINT('',#1570);
#518=VERTEX_POINT('',#1572);
#519=VERTEX_POINT('',#1574);
#520=VERTEX_POINT('',#1576);
#521=VERTEX_POINT('',#1578);
#522=VERTEX_POINT('',#1580);
#523=VERTEX_POINT('',#1582);
#524=VERTEX_POINT('',#1584);
#525=VERTEX_POINT('',#1586);
#526=VERTEX_POINT('',#1590);
#527=VERTEX_POINT('',#1595);
#528=VERTEX_POINT('',#1596);
#529=VERTEX_POINT('',#1598);
#530=VERTEX_POINT('',#1600);
#531=VERTEX_POINT('',#1602);
#532=VERTEX_POINT('',#1604);
#533=VERTEX_POINT('',#1606);
#534=VERTEX_POINT('',#1608);
#535=VERTEX_POINT('',#1612);
#536=VERTEX_POINT('',#1617);
#537=VERTEX_POINT('',#1618);
#538=VERTEX_POINT('',#1620);
#539=VERTEX_POINT('',#1622);
#540=VERTEX_POINT('',#1624);
#541=VERTEX_POINT('',#1628);
#542=VERTEX_POINT('',#1630);
#543=VERTEX_POINT('',#1634);
#544=VERTEX_POINT('',#1636);
#545=VERTEX_POINT('',#1642);
#546=VERTEX_POINT('',#1644);
#547=VERTEX_POINT('',#1646);
#548=VERTEX_POINT('',#1648);
#549=VERTEX_POINT('',#1652);
#550=VERTEX_POINT('',#1654);
#551=VERTEX_POINT('',#1658);
#552=VERTEX_POINT('',#1662);
#553=VERTEX_POINT('',#1666);
#554=VERTEX_POINT('',#1667);
#555=VERTEX_POINT('',#1669);
#556=VERTEX_POINT('',#1671);
#557=VERTEX_POINT('',#1675);
#558=VERTEX_POINT('',#1677);
#559=VERTEX_POINT('',#1681);
#560=VERTEX_POINT('',#1682);
#561=VERTEX_POINT('',#1684);
#562=VERTEX_POINT('',#1686);
#563=VERTEX_POINT('',#1690);
#564=VERTEX_POINT('',#1691);
#565=VERTEX_POINT('',#1693);
#566=VERTEX_POINT('',#1695);
#567=VERTEX_POINT('',#1705);
#568=VERTEX_POINT('',#1707);
#569=VERTEX_POINT('',#1709);
#570=VERTEX_POINT('',#1715);
#571=VERTEX_POINT('',#1717);
#572=VERTEX_POINT('',#1719);
#573=VERTEX_POINT('',#1723);
#574=VERTEX_POINT('',#1727);
#575=VERTEX_POINT('',#1731);
#576=VERTEX_POINT('',#1733);
#577=VERTEX_POINT('',#1735);
#578=VERTEX_POINT('',#1737);
#579=VERTEX_POINT('',#1739);
#580=VERTEX_POINT('',#1741);
#581=VERTEX_POINT('',#1743);
#582=VERTEX_POINT('',#1745);
#583=VERTEX_POINT('',#1748);
#584=VERTEX_POINT('',#1750);
#585=VERTEX_POINT('',#1754);
#586=VERTEX_POINT('',#1758);
#587=VERTEX_POINT('',#1762);
#588=VERTEX_POINT('',#1766);
#589=VERTEX_POINT('',#1775);
#590=VERTEX_POINT('',#1781);
#591=VERTEX_POINT('',#1783);
#592=VERTEX_POINT('',#1787);
#593=VERTEX_POINT('',#1789);
#594=VERTEX_POINT('',#1796);
#595=VERTEX_POINT('',#1798);
#596=VERTEX_POINT('',#1802);
#597=VERTEX_POINT('',#1804);
#598=VERTEX_POINT('',#1814);
#599=EDGE_CURVE('',#498,#498,#482,.T.);
#600=EDGE_CURVE('',#498,#499,#208,.T.);
#601=EDGE_CURVE('',#499,#499,#483,.T.);
#602=EDGE_CURVE('',#500,#500,#484,.T.);
#603=EDGE_CURVE('',#500,#501,#209,.T.);
#604=EDGE_CURVE('',#501,#501,#485,.T.);
#605=EDGE_CURVE('',#502,#502,#486,.T.);
#606=EDGE_CURVE('',#502,#503,#210,.T.);
#607=EDGE_CURVE('',#503,#503,#487,.T.);
#608=EDGE_CURVE('',#504,#504,#488,.T.);
#609=EDGE_CURVE('',#504,#505,#211,.T.);
#610=EDGE_CURVE('',#505,#505,#489,.T.);
#611=EDGE_CURVE('',#506,#506,#490,.T.);
#612=EDGE_CURVE('',#506,#507,#212,.T.);
#613=EDGE_CURVE('',#507,#507,#491,.T.);
#614=EDGE_CURVE('',#508,#509,#213,.T.);
#615=EDGE_CURVE('',#510,#509,#214,.T.);
#616=EDGE_CURVE('',#510,#511,#215,.T.);
#617=EDGE_CURVE('',#508,#511,#216,.T.);
#618=EDGE_CURVE('',#512,#511,#217,.T.);
#619=EDGE_CURVE('',#512,#513,#218,.T.);
#620=EDGE_CURVE('',#508,#513,#219,.T.);
#621=EDGE_CURVE('',#514,#515,#220,.T.);
#622=EDGE_CURVE('',#513,#514,#221,.T.);
#623=EDGE_CURVE('',#515,#512,#222,.T.);
#624=EDGE_CURVE('',#516,#517,#223,.T.);
#625=EDGE_CURVE('',#516,#518,#224,.T.);
#626=EDGE_CURVE('',#519,#518,#225,.T.);
#627=EDGE_CURVE('',#519,#520,#226,.T.);
#628=EDGE_CURVE('',#521,#520,#227,.T.);
#629=EDGE_CURVE('',#522,#521,#228,.T.);
#630=EDGE_CURVE('',#523,#522,#229,.T.);
#631=EDGE_CURVE('',#523,#524,#230,.T.);
#632=EDGE_CURVE('',#525,#524,#231,.T.);
#633=EDGE_CURVE('',#517,#525,#232,.T.);
#634=EDGE_CURVE('',#510,#515,#233,.T.);
#635=EDGE_CURVE('',#526,#526,#492,.T.);
#636=EDGE_CURVE('',#514,#509,#234,.T.);
#637=EDGE_CURVE('',#527,#528,#235,.T.);
#638=EDGE_CURVE('',#529,#528,#236,.T.);
#639=EDGE_CURVE('',#529,#530,#237,.T.);
#640=EDGE_CURVE('',#531,#530,#238,.T.);
#641=EDGE_CURVE('',#531,#532,#239,.T.);
#642=EDGE_CURVE('',#532,#533,#240,.T.);
#643=EDGE_CURVE('',#533,#534,#241,.T.);
#644=EDGE_CURVE('',#534,#527,#242,.T.);
#645=EDGE_CURVE('',#535,#535,#493,.T.);
#646=EDGE_CURVE('',#535,#526,#243,.T.);
#647=EDGE_CURVE('',#536,#537,#244,.T.);
#648=EDGE_CURVE('',#538,#536,#245,.T.);
#649=EDGE_CURVE('',#539,#538,#246,.T.);
#650=EDGE_CURVE('',#540,#539,#247,.T.);
#651=EDGE_CURVE('',#540,#537,#248,.T.);
#652=EDGE_CURVE('',#541,#539,#249,.T.);
#653=EDGE_CURVE('',#542,#538,#250,.T.);
#654=EDGE_CURVE('',#541,#542,#251,.T.);
#655=EDGE_CURVE('',#541,#543,#252,.T.);
#656=EDGE_CURVE('',#544,#542,#253,.T.);
#657=EDGE_CURVE('',#543,#544,#254,.T.);
#658=EDGE_CURVE('',#536,#544,#255,.T.);
#659=EDGE_CURVE('',#543,#545,#256,.T.);
#660=EDGE_CURVE('',#545,#546,#257,.T.);
#661=EDGE_CURVE('',#546,#547,#258,.T.);
#662=EDGE_CURVE('',#548,#547,#259,.T.);
#663=EDGE_CURVE('',#548,#541,#260,.T.);
#664=EDGE_CURVE('',#545,#549,#261,.T.);
#665=EDGE_CURVE('',#550,#549,#262,.T.);
#666=EDGE_CURVE('',#546,#550,#263,.T.);
#667=EDGE_CURVE('',#551,#550,#264,.T.);
#668=EDGE_CURVE('',#547,#551,#265,.T.);
#669=EDGE_CURVE('',#549,#552,#266,.T.);
#670=EDGE_CURVE('',#552,#551,#267,.T.);
#671=EDGE_CURVE('',#553,#554,#268,.T.);
#672=EDGE_CURVE('',#553,#555,#269,.T.);
#673=EDGE_CURVE('',#556,#555,#270,.T.);
#674=EDGE_CURVE('',#554,#556,#271,.T.);
#675=EDGE_CURVE('',#555,#557,#272,.T.);
#676=EDGE_CURVE('',#557,#558,#273,.T.);
#677=EDGE_CURVE('',#558,#556,#274,.T.);
#678=EDGE_CURVE('',#559,#560,#275,.T.);
#679=EDGE_CURVE('',#559,#561,#276,.T.);
#680=EDGE_CURVE('',#562,#561,#277,.T.);
#681=EDGE_CURVE('',#560,#562,#278,.T.);
#682=EDGE_CURVE('',#563,#564,#279,.T.);
#683=EDGE_CURVE('',#565,#563,#280,.T.);
#684=EDGE_CURVE('',#566,#565,#281,.T.);
#685=EDGE_CURVE('',#566,#564,#282,.T.);
#686=EDGE_CURVE('',#563,#562,#283,.T.);
#687=EDGE_CURVE('',#561,#565,#284,.T.);
#688=EDGE_CURVE('',#554,#559,#285,.T.);
#689=EDGE_CURVE('',#553,#560,#286,.T.);
#690=EDGE_CURVE('',#567,#531,#494,.T.);
#691=EDGE_CURVE('',#568,#567,#287,.T.);
#692=EDGE_CURVE('',#569,#568,#288,.T.);
#693=EDGE_CURVE('',#518,#569,#289,.T.);
#694=EDGE_CURVE('',#532,#516,#290,.T.);
#695=EDGE_CURVE('',#527,#524,#291,.T.);
#696=EDGE_CURVE('',#570,#523,#292,.T.);
#697=EDGE_CURVE('',#571,#570,#293,.T.);
#698=EDGE_CURVE('',#572,#571,#294,.T.);
#699=EDGE_CURVE('',#528,#572,#495,.T.);
#700=EDGE_CURVE('',#573,#522,#295,.T.);
#701=EDGE_CURVE('',#570,#573,#296,.T.);
#702=EDGE_CURVE('',#574,#569,#297,.T.);
#703=EDGE_CURVE('',#574,#519,#298,.T.);
#704=EDGE_CURVE('',#573,#575,#299,.T.);
#705=EDGE_CURVE('',#575,#576,#300,.T.);
#706=EDGE_CURVE('',#577,#576,#301,.T.);
#707=EDGE_CURVE('',#578,#577,#302,.T.);
#708=EDGE_CURVE('',#578,#579,#303,.T.);
#709=EDGE_CURVE('',#579,#580,#304,.T.);
#710=EDGE_CURVE('',#581,#580,#305,.T.);
#711=EDGE_CURVE('',#582,#581,#306,.T.);
#712=EDGE_CURVE('',#582,#574,#307,.T.);
#713=EDGE_CURVE('',#568,#583,#308,.T.);
#714=EDGE_CURVE('',#583,#584,#309,.T.);
#715=EDGE_CURVE('',#584,#571,#310,.T.);
#716=EDGE_CURVE('',#585,#567,#311,.T.);
#717=EDGE_CURVE('',#585,#583,#312,.T.);
#718=EDGE_CURVE('',#552,#586,#313,.T.);
#719=EDGE_CURVE('',#586,#537,#314,.T.);
#720=EDGE_CURVE('',#587,#558,#315,.T.);
#721=EDGE_CURVE('',#587,#566,#316,.T.);
#722=EDGE_CURVE('',#586,#588,#317,.T.);
#723=EDGE_CURVE('',#588,#548,#318,.T.);
#724=EDGE_CURVE('',#588,#521,#319,.T.);
#725=EDGE_CURVE('',#520,#540,#320,.T.);
#726=EDGE_CURVE('',#588,#540,#321,.T.);
#727=EDGE_CURVE('',#557,#589,#322,.T.);
#728=EDGE_CURVE('',#589,#587,#323,.T.);
#729=EDGE_CURVE('',#589,#564,#324,.T.);
#730=EDGE_CURVE('',#578,#590,#325,.T.);
#731=EDGE_CURVE('',#591,#577,#326,.T.);
#732=EDGE_CURVE('',#590,#591,#327,.T.);
#733=EDGE_CURVE('',#590,#592,#328,.T.);
#734=EDGE_CURVE('',#593,#591,#329,.T.);
#735=EDGE_CURVE('',#592,#593,#330,.T.);
#736=EDGE_CURVE('',#592,#579,#331,.T.);
#737=EDGE_CURVE('',#580,#593,#332,.T.);
#738=EDGE_CURVE('',#582,#594,#333,.T.);
#739=EDGE_CURVE('',#595,#581,#334,.T.);
#740=EDGE_CURVE('',#594,#595,#335,.T.);
#741=EDGE_CURVE('',#594,#596,#336,.T.);
#742=EDGE_CURVE('',#597,#595,#337,.T.);
#743=EDGE_CURVE('',#596,#597,#338,.T.);
#744=EDGE_CURVE('',#596,#575,#339,.T.);
#745=EDGE_CURVE('',#576,#597,#340,.T.);
#746=EDGE_CURVE('',#572,#598,#341,.T.);
#747=EDGE_CURVE('',#598,#529,#496,.T.);
#748=EDGE_CURVE('',#530,#585,#497,.T.);
#749=EDGE_CURVE('',#534,#525,#342,.T.);
#750=EDGE_CURVE('',#533,#517,#343,.T.);
#751=EDGE_CURVE('',#598,#584,#344,.T.);
#752=ORIENTED_EDGE('',*,*,#599,.F.);
#753=ORIENTED_EDGE('',*,*,#600,.T.);
#754=ORIENTED_EDGE('',*,*,#601,.F.);
#755=ORIENTED_EDGE('',*,*,#600,.F.);
#756=ORIENTED_EDGE('',*,*,#599,.T.);
#757=ORIENTED_EDGE('',*,*,#602,.F.);
#758=ORIENTED_EDGE('',*,*,#603,.T.);
#759=ORIENTED_EDGE('',*,*,#604,.F.);
#760=ORIENTED_EDGE('',*,*,#603,.F.);
#761=ORIENTED_EDGE('',*,*,#602,.T.);
#762=ORIENTED_EDGE('',*,*,#605,.F.);
#763=ORIENTED_EDGE('',*,*,#606,.T.);
#764=ORIENTED_EDGE('',*,*,#607,.F.);
#765=ORIENTED_EDGE('',*,*,#606,.F.);
#766=ORIENTED_EDGE('',*,*,#605,.T.);
#767=ORIENTED_EDGE('',*,*,#608,.F.);
#768=ORIENTED_EDGE('',*,*,#609,.T.);
#769=ORIENTED_EDGE('',*,*,#610,.F.);
#770=ORIENTED_EDGE('',*,*,#609,.F.);
#771=ORIENTED_EDGE('',*,*,#608,.T.);
#772=ORIENTED_EDGE('',*,*,#611,.F.);
#773=ORIENTED_EDGE('',*,*,#612,.T.);
#774=ORIENTED_EDGE('',*,*,#613,.F.);
#775=ORIENTED_EDGE('',*,*,#612,.F.);
#776=ORIENTED_EDGE('',*,*,#611,.T.);
#777=ORIENTED_EDGE('',*,*,#614,.T.);
#778=ORIENTED_EDGE('',*,*,#615,.F.);
#779=ORIENTED_EDGE('',*,*,#616,.T.);
#780=ORIENTED_EDGE('',*,*,#617,.F.);
#781=ORIENTED_EDGE('',*,*,#617,.T.);
#782=ORIENTED_EDGE('',*,*,#618,.F.);
#783=ORIENTED_EDGE('',*,*,#619,.T.);
#784=ORIENTED_EDGE('',*,*,#620,.F.);
#785=ORIENTED_EDGE('',*,*,#621,.F.);
#786=ORIENTED_EDGE('',*,*,#622,.F.);
#787=ORIENTED_EDGE('',*,*,#619,.F.);
#788=ORIENTED_EDGE('',*,*,#623,.F.);
#789=ORIENTED_EDGE('',*,*,#624,.F.);
#790=ORIENTED_EDGE('',*,*,#625,.T.);
#791=ORIENTED_EDGE('',*,*,#626,.F.);
#792=ORIENTED_EDGE('',*,*,#627,.T.);
#793=ORIENTED_EDGE('',*,*,#628,.F.);
#794=ORIENTED_EDGE('',*,*,#629,.F.);
#795=ORIENTED_EDGE('',*,*,#630,.F.);
#796=ORIENTED_EDGE('',*,*,#631,.T.);
#797=ORIENTED_EDGE('',*,*,#632,.F.);
#798=ORIENTED_EDGE('',*,*,#633,.F.);
#799=ORIENTED_EDGE('',*,*,#601,.T.);
#800=ORIENTED_EDGE('',*,*,#604,.T.);
#801=ORIENTED_EDGE('',*,*,#607,.T.);
#802=ORIENTED_EDGE('',*,*,#610,.T.);
#803=ORIENTED_EDGE('',*,*,#613,.T.);
#804=ORIENTED_EDGE('',*,*,#634,.T.);
#805=ORIENTED_EDGE('',*,*,#623,.T.);
#806=ORIENTED_EDGE('',*,*,#618,.T.);
#807=ORIENTED_EDGE('',*,*,#616,.F.);
#808=ORIENTED_EDGE('',*,*,#635,.T.);
#809=ORIENTED_EDGE('',*,*,#615,.T.);
#810=ORIENTED_EDGE('',*,*,#636,.F.);
#811=ORIENTED_EDGE('',*,*,#621,.T.);
#812=ORIENTED_EDGE('',*,*,#634,.F.);
#813=ORIENTED_EDGE('',*,*,#637,.T.);
#814=ORIENTED_EDGE('',*,*,#638,.F.);
#815=ORIENTED_EDGE('',*,*,#639,.T.);
#816=ORIENTED_EDGE('',*,*,#640,.F.);
#817=ORIENTED_EDGE('',*,*,#641,.T.);
#818=ORIENTED_EDGE('',*,*,#642,.T.);
#819=ORIENTED_EDGE('',*,*,#643,.T.);
#820=ORIENTED_EDGE('',*,*,#644,.T.);
#821=ORIENTED_EDGE('',*,*,#636,.T.);
#822=ORIENTED_EDGE('',*,*,#614,.F.);
#823=ORIENTED_EDGE('',*,*,#620,.T.);
#824=ORIENTED_EDGE('',*,*,#622,.T.);
#825=ORIENTED_EDGE('',*,*,#645,.F.);
#826=ORIENTED_EDGE('',*,*,#646,.T.);
#827=ORIENTED_EDGE('',*,*,#635,.F.);
#828=ORIENTED_EDGE('',*,*,#646,.F.);
#829=ORIENTED_EDGE('',*,*,#645,.T.);
#830=ORIENTED_EDGE('',*,*,#647,.F.);
#831=ORIENTED_EDGE('',*,*,#648,.F.);
#832=ORIENTED_EDGE('',*,*,#649,.F.);
#833=ORIENTED_EDGE('',*,*,#650,.F.);
#834=ORIENTED_EDGE('',*,*,#651,.T.);
#835=ORIENTED_EDGE('',*,*,#652,.T.);
#836=ORIENTED_EDGE('',*,*,#649,.T.);
#837=ORIENTED_EDGE('',*,*,#653,.F.);
#838=ORIENTED_EDGE('',*,*,#654,.F.);
#839=ORIENTED_EDGE('',*,*,#655,.F.);
#840=ORIENTED_EDGE('',*,*,#654,.T.);
#841=ORIENTED_EDGE('',*,*,#656,.F.);
#842=ORIENTED_EDGE('',*,*,#657,.F.);
#843=ORIENTED_EDGE('',*,*,#658,.T.);
#844=ORIENTED_EDGE('',*,*,#656,.T.);
#845=ORIENTED_EDGE('',*,*,#653,.T.);
#846=ORIENTED_EDGE('',*,*,#648,.T.);
#847=ORIENTED_EDGE('',*,*,#655,.T.);
#848=ORIENTED_EDGE('',*,*,#659,.T.);
#849=ORIENTED_EDGE('',*,*,#660,.T.);
#850=ORIENTED_EDGE('',*,*,#661,.T.);
#851=ORIENTED_EDGE('',*,*,#662,.F.);
#852=ORIENTED_EDGE('',*,*,#663,.T.);
#853=ORIENTED_EDGE('',*,*,#660,.F.);
#854=ORIENTED_EDGE('',*,*,#664,.T.);
#855=ORIENTED_EDGE('',*,*,#665,.F.);
#856=ORIENTED_EDGE('',*,*,#666,.F.);
#857=ORIENTED_EDGE('',*,*,#661,.F.);
#858=ORIENTED_EDGE('',*,*,#666,.T.);
#859=ORIENTED_EDGE('',*,*,#667,.F.);
#860=ORIENTED_EDGE('',*,*,#668,.F.);
#861=ORIENTED_EDGE('',*,*,#669,.T.);
#862=ORIENTED_EDGE('',*,*,#670,.T.);
#863=ORIENTED_EDGE('',*,*,#667,.T.);
#864=ORIENTED_EDGE('',*,*,#665,.T.);
#865=ORIENTED_EDGE('',*,*,#671,.F.);
#866=ORIENTED_EDGE('',*,*,#672,.T.);
#867=ORIENTED_EDGE('',*,*,#673,.F.);
#868=ORIENTED_EDGE('',*,*,#674,.F.);
#869=ORIENTED_EDGE('',*,*,#675,.T.);
#870=ORIENTED_EDGE('',*,*,#676,.T.);
#871=ORIENTED_EDGE('',*,*,#677,.T.);
#872=ORIENTED_EDGE('',*,*,#673,.T.);
#873=ORIENTED_EDGE('',*,*,#678,.F.);
#874=ORIENTED_EDGE('',*,*,#679,.T.);
#875=ORIENTED_EDGE('',*,*,#680,.F.);
#876=ORIENTED_EDGE('',*,*,#681,.F.);
#877=ORIENTED_EDGE('',*,*,#682,.F.);
#878=ORIENTED_EDGE('',*,*,#683,.F.);
#879=ORIENTED_EDGE('',*,*,#684,.F.);
#880=ORIENTED_EDGE('',*,*,#685,.T.);
#881=ORIENTED_EDGE('',*,*,#683,.T.);
#882=ORIENTED_EDGE('',*,*,#686,.T.);
#883=ORIENTED_EDGE('',*,*,#680,.T.);
#884=ORIENTED_EDGE('',*,*,#687,.T.);
#885=ORIENTED_EDGE('',*,*,#671,.T.);
#886=ORIENTED_EDGE('',*,*,#688,.T.);
#887=ORIENTED_EDGE('',*,*,#678,.T.);
#888=ORIENTED_EDGE('',*,*,#689,.F.);
#889=ORIENTED_EDGE('',*,*,#690,.F.);
#890=ORIENTED_EDGE('',*,*,#691,.F.);
#891=ORIENTED_EDGE('',*,*,#692,.F.);
#892=ORIENTED_EDGE('',*,*,#693,.F.);
#893=ORIENTED_EDGE('',*,*,#625,.F.);
#894=ORIENTED_EDGE('',*,*,#694,.F.);
#895=ORIENTED_EDGE('',*,*,#641,.F.);
#896=ORIENTED_EDGE('',*,*,#695,.T.);
#897=ORIENTED_EDGE('',*,*,#631,.F.);
#898=ORIENTED_EDGE('',*,*,#696,.F.);
#899=ORIENTED_EDGE('',*,*,#697,.F.);
#900=ORIENTED_EDGE('',*,*,#698,.F.);
#901=ORIENTED_EDGE('',*,*,#699,.F.);
#902=ORIENTED_EDGE('',*,*,#637,.F.);
#903=ORIENTED_EDGE('',*,*,#696,.T.);
#904=ORIENTED_EDGE('',*,*,#630,.T.);
#905=ORIENTED_EDGE('',*,*,#700,.F.);
#906=ORIENTED_EDGE('',*,*,#701,.F.);
#907=ORIENTED_EDGE('',*,*,#693,.T.);
#908=ORIENTED_EDGE('',*,*,#702,.F.);
#909=ORIENTED_EDGE('',*,*,#703,.T.);
#910=ORIENTED_EDGE('',*,*,#626,.T.);
#911=ORIENTED_EDGE('',*,*,#697,.T.);
#912=ORIENTED_EDGE('',*,*,#701,.T.);
#913=ORIENTED_EDGE('',*,*,#704,.T.);
#914=ORIENTED_EDGE('',*,*,#705,.T.);
#915=ORIENTED_EDGE('',*,*,#706,.F.);
#916=ORIENTED_EDGE('',*,*,#707,.F.);
#917=ORIENTED_EDGE('',*,*,#708,.T.);
#918=ORIENTED_EDGE('',*,*,#709,.T.);
#919=ORIENTED_EDGE('',*,*,#710,.F.);
#920=ORIENTED_EDGE('',*,*,#711,.F.);
#921=ORIENTED_EDGE('',*,*,#712,.T.);
#922=ORIENTED_EDGE('',*,*,#702,.T.);
#923=ORIENTED_EDGE('',*,*,#692,.T.);
#924=ORIENTED_EDGE('',*,*,#713,.T.);
#925=ORIENTED_EDGE('',*,*,#714,.T.);
#926=ORIENTED_EDGE('',*,*,#715,.T.);
#927=ORIENTED_EDGE('',*,*,#691,.T.);
#928=ORIENTED_EDGE('',*,*,#716,.F.);
#929=ORIENTED_EDGE('',*,*,#717,.T.);
#930=ORIENTED_EDGE('',*,*,#713,.F.);
#931=ORIENTED_EDGE('',*,*,#718,.F.);
#932=ORIENTED_EDGE('',*,*,#669,.F.);
#933=ORIENTED_EDGE('',*,*,#664,.F.);
#934=ORIENTED_EDGE('',*,*,#659,.F.);
#935=ORIENTED_EDGE('',*,*,#657,.T.);
#936=ORIENTED_EDGE('',*,*,#658,.F.);
#937=ORIENTED_EDGE('',*,*,#647,.T.);
#938=ORIENTED_EDGE('',*,*,#719,.F.);
#939=ORIENTED_EDGE('',*,*,#720,.F.);
#940=ORIENTED_EDGE('',*,*,#721,.T.);
#941=ORIENTED_EDGE('',*,*,#684,.T.);
#942=ORIENTED_EDGE('',*,*,#687,.F.);
#943=ORIENTED_EDGE('',*,*,#679,.F.);
#944=ORIENTED_EDGE('',*,*,#688,.F.);
#945=ORIENTED_EDGE('',*,*,#674,.T.);
#946=ORIENTED_EDGE('',*,*,#677,.F.);
#947=ORIENTED_EDGE('',*,*,#718,.T.);
#948=ORIENTED_EDGE('',*,*,#722,.T.);
#949=ORIENTED_EDGE('',*,*,#723,.T.);
#950=ORIENTED_EDGE('',*,*,#662,.T.);
#951=ORIENTED_EDGE('',*,*,#668,.T.);
#952=ORIENTED_EDGE('',*,*,#670,.F.);
#953=ORIENTED_EDGE('',*,*,#724,.T.);
#954=ORIENTED_EDGE('',*,*,#628,.T.);
#955=ORIENTED_EDGE('',*,*,#725,.T.);
#956=ORIENTED_EDGE('',*,*,#726,.F.);
#957=ORIENTED_EDGE('',*,*,#723,.F.);
#958=ORIENTED_EDGE('',*,*,#726,.T.);
#959=ORIENTED_EDGE('',*,*,#650,.T.);
#960=ORIENTED_EDGE('',*,*,#652,.F.);
#961=ORIENTED_EDGE('',*,*,#663,.F.);
#962=ORIENTED_EDGE('',*,*,#720,.T.);
#963=ORIENTED_EDGE('',*,*,#676,.F.);
#964=ORIENTED_EDGE('',*,*,#727,.T.);
#965=ORIENTED_EDGE('',*,*,#728,.T.);
#966=ORIENTED_EDGE('',*,*,#682,.T.);
#967=ORIENTED_EDGE('',*,*,#729,.F.);
#968=ORIENTED_EDGE('',*,*,#727,.F.);
#969=ORIENTED_EDGE('',*,*,#675,.F.);
#970=ORIENTED_EDGE('',*,*,#672,.F.);
#971=ORIENTED_EDGE('',*,*,#689,.T.);
#972=ORIENTED_EDGE('',*,*,#681,.T.);
#973=ORIENTED_EDGE('',*,*,#686,.F.);
#974=ORIENTED_EDGE('',*,*,#730,.F.);
#975=ORIENTED_EDGE('',*,*,#707,.T.);
#976=ORIENTED_EDGE('',*,*,#731,.F.);
#977=ORIENTED_EDGE('',*,*,#732,.F.);
#978=ORIENTED_EDGE('',*,*,#733,.F.);
#979=ORIENTED_EDGE('',*,*,#732,.T.);
#980=ORIENTED_EDGE('',*,*,#734,.F.);
#981=ORIENTED_EDGE('',*,*,#735,.F.);
#982=ORIENTED_EDGE('',*,*,#736,.F.);
#983=ORIENTED_EDGE('',*,*,#735,.T.);
#984=ORIENTED_EDGE('',*,*,#737,.F.);
#985=ORIENTED_EDGE('',*,*,#709,.F.);
#986=ORIENTED_EDGE('',*,*,#738,.F.);
#987=ORIENTED_EDGE('',*,*,#711,.T.);
#988=ORIENTED_EDGE('',*,*,#739,.F.);
#989=ORIENTED_EDGE('',*,*,#740,.F.);
#990=ORIENTED_EDGE('',*,*,#741,.F.);
#991=ORIENTED_EDGE('',*,*,#740,.T.);
#992=ORIENTED_EDGE('',*,*,#742,.F.);
#993=ORIENTED_EDGE('',*,*,#743,.F.);
#994=ORIENTED_EDGE('',*,*,#744,.F.);
#995=ORIENTED_EDGE('',*,*,#743,.T.);
#996=ORIENTED_EDGE('',*,*,#745,.F.);
#997=ORIENTED_EDGE('',*,*,#705,.F.);
#998=ORIENTED_EDGE('',*,*,#706,.T.);
#999=ORIENTED_EDGE('',*,*,#745,.T.);
#1000=ORIENTED_EDGE('',*,*,#742,.T.);
#1001=ORIENTED_EDGE('',*,*,#739,.T.);
#1002=ORIENTED_EDGE('',*,*,#710,.T.);
#1003=ORIENTED_EDGE('',*,*,#737,.T.);
#1004=ORIENTED_EDGE('',*,*,#734,.T.);
#1005=ORIENTED_EDGE('',*,*,#731,.T.);
#1006=ORIENTED_EDGE('',*,*,#736,.T.);
#1007=ORIENTED_EDGE('',*,*,#708,.F.);
#1008=ORIENTED_EDGE('',*,*,#730,.T.);
#1009=ORIENTED_EDGE('',*,*,#733,.T.);
#1010=ORIENTED_EDGE('',*,*,#651,.F.);
#1011=ORIENTED_EDGE('',*,*,#725,.F.);
#1012=ORIENTED_EDGE('',*,*,#627,.F.);
#1013=ORIENTED_EDGE('',*,*,#703,.F.);
#1014=ORIENTED_EDGE('',*,*,#712,.F.);
#1015=ORIENTED_EDGE('',*,*,#738,.T.);
#1016=ORIENTED_EDGE('',*,*,#741,.T.);
#1017=ORIENTED_EDGE('',*,*,#744,.T.);
#1018=ORIENTED_EDGE('',*,*,#704,.F.);
#1019=ORIENTED_EDGE('',*,*,#700,.T.);
#1020=ORIENTED_EDGE('',*,*,#629,.T.);
#1021=ORIENTED_EDGE('',*,*,#724,.F.);
#1022=ORIENTED_EDGE('',*,*,#722,.F.);
#1023=ORIENTED_EDGE('',*,*,#719,.T.);
#1024=ORIENTED_EDGE('',*,*,#721,.F.);
#1025=ORIENTED_EDGE('',*,*,#728,.F.);
#1026=ORIENTED_EDGE('',*,*,#729,.T.);
#1027=ORIENTED_EDGE('',*,*,#685,.F.);
#1028=ORIENTED_EDGE('',*,*,#699,.T.);
#1029=ORIENTED_EDGE('',*,*,#746,.T.);
#1030=ORIENTED_EDGE('',*,*,#747,.T.);
#1031=ORIENTED_EDGE('',*,*,#638,.T.);
#1032=ORIENTED_EDGE('',*,*,#690,.T.);
#1033=ORIENTED_EDGE('',*,*,#640,.T.);
#1034=ORIENTED_EDGE('',*,*,#748,.T.);
#1035=ORIENTED_EDGE('',*,*,#716,.T.);
#1036=ORIENTED_EDGE('',*,*,#633,.T.);
#1037=ORIENTED_EDGE('',*,*,#749,.F.);
#1038=ORIENTED_EDGE('',*,*,#643,.F.);
#1039=ORIENTED_EDGE('',*,*,#750,.T.);
#1040=ORIENTED_EDGE('',*,*,#632,.T.);
#1041=ORIENTED_EDGE('',*,*,#695,.F.);
#1042=ORIENTED_EDGE('',*,*,#644,.F.);
#1043=ORIENTED_EDGE('',*,*,#749,.T.);
#1044=ORIENTED_EDGE('',*,*,#624,.T.);
#1045=ORIENTED_EDGE('',*,*,#750,.F.);
#1046=ORIENTED_EDGE('',*,*,#642,.F.);
#1047=ORIENTED_EDGE('',*,*,#694,.T.);
#1048=ORIENTED_EDGE('',*,*,#698,.T.);
#1049=ORIENTED_EDGE('',*,*,#715,.F.);
#1050=ORIENTED_EDGE('',*,*,#751,.F.);
#1051=ORIENTED_EDGE('',*,*,#746,.F.);
#1052=ORIENTED_EDGE('',*,*,#747,.F.);
#1053=ORIENTED_EDGE('',*,*,#751,.T.);
#1054=ORIENTED_EDGE('',*,*,#714,.F.);
#1055=ORIENTED_EDGE('',*,*,#717,.F.);
#1056=ORIENTED_EDGE('',*,*,#748,.F.);
#1057=ORIENTED_EDGE('',*,*,#639,.F.);
#1058=CYLINDRICAL_SURFACE('',#1141,1.4);
#1059=CYLINDRICAL_SURFACE('',#1145,0.750000000000002);
#1060=CYLINDRICAL_SURFACE('',#1149,0.750000000000002);
#1061=CYLINDRICAL_SURFACE('',#1153,0.750000000000002);
#1062=CYLINDRICAL_SURFACE('',#1157,0.750000000000002);
#1063=CYLINDRICAL_SURFACE('',#1168,1.4);
#1064=CYLINDRICAL_SURFACE('',#1209,5.);
#1065=CYLINDRICAL_SURFACE('',#1211,5.);
#1066=ADVANCED_FACE('',(#77),#1058,.T.);
#1067=ADVANCED_FACE('',(#78),#24,.T.);
#1068=ADVANCED_FACE('',(#79),#1059,.T.);
#1069=ADVANCED_FACE('',(#80),#25,.T.);
#1070=ADVANCED_FACE('',(#81),#1060,.T.);
#1071=ADVANCED_FACE('',(#82),#26,.T.);
#1072=ADVANCED_FACE('',(#83),#1061,.T.);
#1073=ADVANCED_FACE('',(#84),#27,.T.);
#1074=ADVANCED_FACE('',(#85),#1062,.T.);
#1075=ADVANCED_FACE('',(#86),#28,.T.);
#1076=ADVANCED_FACE('',(#87),#29,.T.);
#1077=ADVANCED_FACE('',(#88),#30,.F.);
#1078=ADVANCED_FACE('',(#89),#31,.F.);
#1079=ADVANCED_FACE('',(#90,#15,#16,#17,#18,#19,#20,#21),#32,.F.);
#1080=ADVANCED_FACE('',(#91),#33,.F.);
#1081=ADVANCED_FACE('',(#92,#22),#34,.F.);
#1082=ADVANCED_FACE('',(#93),#1063,.T.);
#1083=ADVANCED_FACE('',(#94),#35,.T.);
#1084=ADVANCED_FACE('',(#95),#36,.T.);
#1085=ADVANCED_FACE('',(#96),#37,.T.);
#1086=ADVANCED_FACE('',(#97),#38,.T.);
#1087=ADVANCED_FACE('',(#98),#39,.T.);
#1088=ADVANCED_FACE('',(#99),#40,.F.);
#1089=ADVANCED_FACE('',(#100),#41,.T.);
#1090=ADVANCED_FACE('',(#101),#42,.T.);
#1091=ADVANCED_FACE('',(#102),#43,.T.);
#1092=ADVANCED_FACE('',(#103),#44,.T.);
#1093=ADVANCED_FACE('',(#104),#45,.T.);
#1094=ADVANCED_FACE('',(#105),#46,.T.);
#1095=ADVANCED_FACE('',(#106),#47,.T.);
#1096=ADVANCED_FACE('',(#107),#48,.T.);
#1097=ADVANCED_FACE('',(#108),#49,.F.);
#1098=ADVANCED_FACE('',(#109),#50,.F.);
#1099=ADVANCED_FACE('',(#110),#51,.F.);
#1100=ADVANCED_FACE('',(#111),#52,.F.);
#1101=ADVANCED_FACE('',(#112),#53,.F.);
#1102=ADVANCED_FACE('',(#113),#54,.T.);
#1103=ADVANCED_FACE('',(#114),#55,.T.);
#1104=ADVANCED_FACE('',(#115),#56,.F.);
#1105=ADVANCED_FACE('',(#116),#57,.F.);
#1106=ADVANCED_FACE('',(#117),#58,.F.);
#1107=ADVANCED_FACE('',(#118),#59,.F.);
#1108=ADVANCED_FACE('',(#119),#60,.F.);
#1109=ADVANCED_FACE('',(#120),#61,.F.);
#1110=ADVANCED_FACE('',(#121),#62,.F.);
#1111=ADVANCED_FACE('',(#122),#63,.T.);
#1112=ADVANCED_FACE('',(#123),#64,.T.);
#1113=ADVANCED_FACE('',(#124),#65,.T.);
#1114=ADVANCED_FACE('',(#125),#66,.T.);
#1115=ADVANCED_FACE('',(#126),#67,.T.);
#1116=ADVANCED_FACE('',(#127),#68,.T.);
#1117=ADVANCED_FACE('',(#128),#69,.T.);
#1118=ADVANCED_FACE('',(#129),#70,.F.);
#1119=ADVANCED_FACE('',(#130,#23),#71,.F.);
#1120=ADVANCED_FACE('',(#131),#1064,.T.);
#1121=ADVANCED_FACE('',(#132),#1065,.T.);
#1122=ADVANCED_FACE('',(#133),#72,.F.);
#1123=ADVANCED_FACE('',(#134),#73,.F.);
#1124=ADVANCED_FACE('',(#135),#74,.F.);
#1125=ADVANCED_FACE('',(#136),#75,.T.);
#1126=ADVANCED_FACE('',(#137),#76,.T.);
#1127=CLOSED_SHELL('',(#1066,#1067,#1068,#1069,#1070,#1071,#1072,#1073,
#1074,#1075,#1076,#1077,#1078,#1079,#1080,#1081,#1082,#1083,#1084,#1085,
#1086,#1087,#1088,#1089,#1090,#1091,#1092,#1093,#1094,#1095,#1096,#1097,
#1098,#1099,#1100,#1101,#1102,#1103,#1104,#1105,#1106,#1107,#1108,#1109,
#1110,#1111,#1112,#1113,#1114,#1115,#1116,#1117,#1118,#1119,#1120,#1121,
#1122,#1123,#1124,#1125,#1126));
#1128=DERIVED_UNIT_ELEMENT(#1130,1.);
#1129=DERIVED_UNIT_ELEMENT(#1832,-3.);
#1130=(
MASS_UNIT()
NAMED_UNIT(*)
SI_UNIT(.KILO.,.GRAM.)
);
#1131=DERIVED_UNIT((#1128,#1129));
#1132=MEASURE_REPRESENTATION_ITEM('density measure',
POSITIVE_RATIO_MEASURE(7850.),#1131);
#1133=PROPERTY_DEFINITION_REPRESENTATION(#1138,#1135);
#1134=PROPERTY_DEFINITION_REPRESENTATION(#1139,#1136);
#1135=REPRESENTATION('material name',(#1137),#1829);
#1136=REPRESENTATION('density',(#1132),#1829);
#1137=DESCRIPTIVE_REPRESENTATION_ITEM('Stahl','Stahl');
#1138=PROPERTY_DEFINITION('material property','material name',#1839);
#1139=PROPERTY_DEFINITION('material property','density of part',#1839);
#1140=AXIS2_PLACEMENT_3D('',#1511,#1218,#1219);
#1141=AXIS2_PLACEMENT_3D('',#1512,#1220,#1221);
#1142=AXIS2_PLACEMENT_3D('',#1514,#1222,#1223);
#1143=AXIS2_PLACEMENT_3D('',#1517,#1225,#1226);
#1144=AXIS2_PLACEMENT_3D('',#1518,#1227,#1228);
#1145=AXIS2_PLACEMENT_3D('',#1519,#1229,#1230);
#1146=AXIS2_PLACEMENT_3D('',#1521,#1231,#1232);
#1147=AXIS2_PLACEMENT_3D('',#1524,#1234,#1235);
#1148=AXIS2_PLACEMENT_3D('',#1525,#1236,#1237);
#1149=AXIS2_PLACEMENT_3D('',#1526,#1238,#1239);
#1150=AXIS2_PLACEMENT_3D('',#1528,#1240,#1241);
#1151=AXIS2_PLACEMENT_3D('',#1531,#1243,#1244);
#1152=AXIS2_PLACEMENT_3D('',#1532,#1245,#1246);
#1153=AXIS2_PLACEMENT_3D('',#1533,#1247,#1248);
#1154=AXIS2_PLACEMENT_3D('',#1535,#1249,#1250);
#1155=AXIS2_PLACEMENT_3D('',#1538,#1252,#1253);
#1156=AXIS2_PLACEMENT_3D('',#1539,#1254,#1255);
#1157=AXIS2_PLACEMENT_3D('',#1540,#1256,#1257);
#1158=AXIS2_PLACEMENT_3D('',#1542,#1258,#1259);
#1159=AXIS2_PLACEMENT_3D('',#1545,#1261,#1262);
#1160=AXIS2_PLACEMENT_3D('',#1546,#1263,#1264);
#1161=AXIS2_PLACEMENT_3D('',#1547,#1265,#1266);
#1162=AXIS2_PLACEMENT_3D('',#1556,#1271,#1272);
#1163=AXIS2_PLACEMENT_3D('',#1562,#1276,#1277);
#1164=AXIS2_PLACEMENT_3D('',#1568,#1281,#1282);
#1165=AXIS2_PLACEMENT_3D('',#1591,#1294,#1295);
#1166=AXIS2_PLACEMENT_3D('',#1592,#1296,#1297);
#1167=AXIS2_PLACEMENT_3D('',#1594,#1299,#1300);
#1168=AXIS2_PLACEMENT_3D('',#1611,#1309,#1310);
#1169=AXIS2_PLACEMENT_3D('',#1613,#1311,#1312);
#1170=AXIS2_PLACEMENT_3D('',#1615,#1314,#1315);
#1171=AXIS2_PLACEMENT_3D('',#1616,#1316,#1317);
#1172=AXIS2_PLACEMENT_3D('',#1627,#1323,#1324);
#1173=AXIS2_PLACEMENT_3D('',#1633,#1328,#1329);
#1174=AXIS2_PLACEMENT_3D('',#1639,#1333,#1334);
#1175=AXIS2_PLACEMENT_3D('',#1641,#1336,#1337);
#1176=AXIS2_PLACEMENT_3D('',#1651,#1343,#1344);
#1177=AXIS2_PLACEMENT_3D('',#1657,#1348,#1349);
#1178=AXIS2_PLACEMENT_3D('',#1661,#1352,#1353);
#1179=AXIS2_PLACEMENT_3D('',#1665,#1356,#1357);
#1180=AXIS2_PLACEMENT_3D('',#1674,#1362,#1363);
#1181=AXIS2_PLACEMENT_3D('',#1680,#1367,#1368);
#1182=AXIS2_PLACEMENT_3D('',#1689,#1373,#1374);
#1183=AXIS2_PLACEMENT_3D('',#1698,#1379,#1380);
#1184=AXIS2_PLACEMENT_3D('',#1701,#1383,#1384);
#1185=AXIS2_PLACEMENT_3D('',#1704,#1387,#1388);
#1186=AXIS2_PLACEMENT_3D('',#1706,#1389,#1390);
#1187=AXIS2_PLACEMENT_3D('',#1713,#1395,#1396);
#1188=AXIS2_PLACEMENT_3D('',#1721,#1401,#1402);
#1189=AXIS2_PLACEMENT_3D('',#1722,#1403,#1404);
#1190=AXIS2_PLACEMENT_3D('',#1726,#1407,#1408);
#1191=AXIS2_PLACEMENT_3D('',#1730,#1411,#1412);
#1192=AXIS2_PLACEMENT_3D('',#1753,#1425,#1426);
#1193=AXIS2_PLACEMENT_3D('',#1757,#1429,#1430);
#1194=AXIS2_PLACEMENT_3D('',#1761,#1433,#1434);
#1195=AXIS2_PLACEMENT_3D('',#1765,#1437,#1438);
#1196=AXIS2_PLACEMENT_3D('',#1769,#1441,#1442);
#1197=AXIS2_PLACEMENT_3D('',#1773,#1446,#1447);
#1198=AXIS2_PLACEMENT_3D('',#1774,#1448,#1449);
#1199=AXIS2_PLACEMENT_3D('',#1778,#1452,#1453);
#1200=AXIS2_PLACEMENT_3D('',#1780,#1455,#1456);
#1201=AXIS2_PLACEMENT_3D('',#1786,#1460,#1461);
#1202=AXIS2_PLACEMENT_3D('',#1792,#1465,#1466);
#1203=AXIS2_PLACEMENT_3D('',#1795,#1469,#1470);
#1204=AXIS2_PLACEMENT_3D('',#1801,#1474,#1475);
#1205=AXIS2_PLACEMENT_3D('',#1807,#1479,#1480);
#1206=AXIS2_PLACEMENT_3D('',#1810,#1483,#1484);
#1207=AXIS2_PLACEMENT_3D('',#1811,#1485,#1486);
#1208=AXIS2_PLACEMENT_3D('',#1812,#1487,#1488);
#1209=AXIS2_PLACEMENT_3D('',#1813,#1489,#1490);
#1210=AXIS2_PLACEMENT_3D('',#1816,#1492,#1493);
#1211=AXIS2_PLACEMENT_3D('',#1817,#1494,#1495);
#1212=AXIS2_PLACEMENT_3D('',#1818,#1496,#1497);
#1213=AXIS2_PLACEMENT_3D('',#1819,#1498,#1499);
#1214=AXIS2_PLACEMENT_3D('',#1822,#1502,#1503);
#1215=AXIS2_PLACEMENT_3D('',#1823,#1504,#1505);
#1216=AXIS2_PLACEMENT_3D('',#1824,#1506,#1507);
#1217=AXIS2_PLACEMENT_3D('',#1826,#1509,#1510);
#1218=DIRECTION('axis',(0.,0.,1.));
#1219=DIRECTION('refdir',(1.,0.,0.));
#1220=DIRECTION('center_axis',(0.,1.,0.));
#1221=DIRECTION('ref_axis',(-1.,0.,0.));
#1222=DIRECTION('center_axis',(0.,1.,0.));
#1223=DIRECTION('ref_axis',(-1.,0.,0.));
#1224=DIRECTION('',(0.,-1.,0.));
#1225=DIRECTION('center_axis',(0.,-1.,0.));
#1226=DIRECTION('ref_axis',(-1.,0.,0.));
#1227=DIRECTION('center_axis',(0.,1.,0.));
#1228=DIRECTION('ref_axis',(-1.,0.,0.));
#1229=DIRECTION('center_axis',(0.,1.,0.));
#1230=DIRECTION('ref_axis',(-1.,0.,0.));
#1231=DIRECTION('center_axis',(0.,1.,0.));
#1232=DIRECTION('ref_axis',(-1.,0.,0.));
#1233=DIRECTION('',(0.,-1.,0.));
#1234=DIRECTION('center_axis',(0.,-1.,0.));
#1235=DIRECTION('ref_axis',(-1.,0.,0.));
#1236=DIRECTION('center_axis',(0.,1.,0.));
#1237=DIRECTION('ref_axis',(-1.,0.,0.));
#1238=DIRECTION('center_axis',(0.,1.,0.));
#1239=DIRECTION('ref_axis',(-1.,0.,0.));
#1240=DIRECTION('center_axis',(0.,1.,0.));
#1241=DIRECTION('ref_axis',(-1.,0.,0.));
#1242=DIRECTION('',(0.,-1.,0.));
#1243=DIRECTION('center_axis',(0.,-1.,0.));
#1244=DIRECTION('ref_axis',(-1.,0.,0.));
#1245=DIRECTION('center_axis',(0.,1.,0.));
#1246=DIRECTION('ref_axis',(-1.,0.,0.));
#1247=DIRECTION('center_axis',(0.,1.,0.));
#1248=DIRECTION('ref_axis',(-1.,0.,0.));
#1249=DIRECTION('center_axis',(0.,1.,0.));
#1250=DIRECTION('ref_axis',(-1.,0.,0.));
#1251=DIRECTION('',(0.,-1.,0.));
#1252=DIRECTION('center_axis',(0.,-1.,0.));
#1253=DIRECTION('ref_axis',(-1.,0.,0.));
#1254=DIRECTION('center_axis',(0.,1.,0.));
#1255=DIRECTION('ref_axis',(-1.,0.,0.));
#1256=DIRECTION('center_axis',(0.,1.,0.));
#1257=DIRECTION('ref_axis',(-1.,0.,0.));
#1258=DIRECTION('center_axis',(0.,1.,0.));
#1259=DIRECTION('ref_axis',(-1.,0.,0.));
#1260=DIRECTION('',(0.,-1.,0.));
#1261=DIRECTION('center_axis',(0.,-1.,0.));
#1262=DIRECTION('ref_axis',(-1.,0.,0.));
#1263=DIRECTION('center_axis',(0.,1.,0.));
#1264=DIRECTION('ref_axis',(-1.,0.,0.));
#1265=DIRECTION('center_axis',(1.,0.,0.));
#1266=DIRECTION('ref_axis',(0.,0.,-1.));
#1267=DIRECTION('',(0.,0.,-1.));
#1268=DIRECTION('',(0.,-1.,0.));
#1269=DIRECTION('',(0.,0.,1.));
#1270=DIRECTION('',(0.,1.,0.));
#1271=DIRECTION('center_axis',(0.,0.,1.));
#1272=DIRECTION('ref_axis',(1.,0.,0.));
#1273=DIRECTION('',(-1.,0.,0.));
#1274=DIRECTION('',(0.,-1.,0.));
#1275=DIRECTION('',(1.,0.,0.));
#1276=DIRECTION('center_axis',(1.,0.,0.));
#1277=DIRECTION('ref_axis',(0.,0.,-1.));
#1278=DIRECTION('',(0.,1.,0.));
#1279=DIRECTION('',(0.,0.,-1.));
#1280=DIRECTION('',(0.,0.,1.));
#1281=DIRECTION('center_axis',(0.,-1.,0.));
#1282=DIRECTION('ref_axis',(0.,0.,-1.));
#1283=DIRECTION('',(0.,0.,-1.));
#1284=DIRECTION('',(1.,0.,0.));
#1285=DIRECTION('',(0.,0.,1.));
#1286=DIRECTION('',(-1.,0.,0.));
#1287=DIRECTION('',(1.,0.,0.));
#1288=DIRECTION('',(1.,0.,0.));
#1289=DIRECTION('',(0.,0.,-1.));
#1290=DIRECTION('',(1.,0.,0.));
#1291=DIRECTION('',(0.,0.,1.));
#1292=DIRECTION('',(-1.,0.,0.));
#1293=DIRECTION('',(1.,0.,0.));
#1294=DIRECTION('center_axis',(0.,-1.,0.));
#1295=DIRECTION('ref_axis',(-1.,0.,0.));
#1296=DIRECTION('center_axis',(0.,0.,-1.));
#1297=DIRECTION('ref_axis',(-1.,0.,0.));
#1298=DIRECTION('',(-1.,0.,0.));
#1299=DIRECTION('center_axis',(0.,1.,0.));
#1300=DIRECTION('ref_axis',(1.,0.,0.));
#1301=DIRECTION('',(-1.,0.,0.));
#1302=DIRECTION('',(0.,0.,1.));
#1303=DIRECTION('',(1.,0.,0.));
#1304=DIRECTION('',(0.,0.,-1.));
#1305=DIRECTION('',(-1.,0.,0.));
#1306=DIRECTION('',(0.,0.,-1.));
#1307=DIRECTION('',(-1.,0.,0.));
#1308=DIRECTION('',(0.,0.,1.));
#1309=DIRECTION('center_axis',(0.,1.,0.));
#1310=DIRECTION('ref_axis',(-1.,0.,0.));
#1311=DIRECTION('center_axis',(0.,1.,0.));
#1312=DIRECTION('ref_axis',(-1.,0.,0.));
#1313=DIRECTION('',(0.,-1.,0.));
#1314=DIRECTION('center_axis',(0.,1.,0.));
#1315=DIRECTION('ref_axis',(-1.,0.,0.));
#1316=DIRECTION('center_axis',(1.,0.,0.));
#1317=DIRECTION('ref_axis',(0.,1.,0.));
#1318=DIRECTION('',(0.,0.,-1.));
#1319=DIRECTION('',(0.,1.,0.));
#1320=DIRECTION('',(0.,0.,1.));
#1321=DIRECTION('',(0.,9.03100671621475E-9,1.));
#1322=DIRECTION('',(0.,1.,0.));
#1323=DIRECTION('center_axis',(0.,-1.,0.));
#1324=DIRECTION('ref_axis',(1.,0.,0.));
#1325=DIRECTION('',(1.,0.,0.));
#1326=DIRECTION('',(1.,0.,0.));
#1327=DIRECTION('',(0.,0.,1.));
#1328=DIRECTION('center_axis',(-1.,0.,0.));
#1329=DIRECTION('ref_axis',(0.,-1.,0.));
#1330=DIRECTION('',(0.,1.,0.));
#1331=DIRECTION('',(0.,-1.,0.));
#1332=DIRECTION('',(0.,0.,1.));
#1333=DIRECTION('center_axis',(0.,0.,1.));
#1334=DIRECTION('ref_axis',(1.,0.,0.));
#1335=DIRECTION('',(-1.,0.,0.));
#1336=DIRECTION('center_axis',(0.,0.,-1.));
#1337=DIRECTION('ref_axis',(1.,0.,0.));
#1338=DIRECTION('',(-1.,0.,0.));
#1339=DIRECTION('',(0.,-1.,0.));
#1340=DIRECTION('',(-1.,0.,0.));
#1341=DIRECTION('',(0.,1.,0.));
#1342=DIRECTION('',(1.,0.,0.));
#1343=DIRECTION('center_axis',(1.,0.,0.));
#1344=DIRECTION('ref_axis',(0.,1.,0.));
#1345=DIRECTION('',(0.,0.,1.));
#1346=DIRECTION('',(0.,1.,0.));
#1347=DIRECTION('',(0.,0.,1.));
#1348=DIRECTION('center_axis',(0.,-1.,0.));
#1349=DIRECTION('ref_axis',(1.,0.,0.));
#1350=DIRECTION('',(1.,0.,0.));
#1351=DIRECTION('',(0.,0.,1.));
#1352=DIRECTION('center_axis',(0.,0.,1.));
#1353=DIRECTION('ref_axis',(1.,0.,0.));
#1354=DIRECTION('',(-1.,0.,0.));
#1355=DIRECTION('',(0.,-1.,0.));
#1356=DIRECTION('center_axis',(1.,0.,0.));
#1357=DIRECTION('ref_axis',(0.,1.,0.));
#1358=DIRECTION('',(0.,-1.,0.));
#1359=DIRECTION('',(0.,0.,1.));
#1360=DIRECTION('',(0.,1.,0.));
#1361=DIRECTION('',(0.,0.,1.));
#1362=DIRECTION('center_axis',(0.,0.,1.));
#1363=DIRECTION('ref_axis',(1.,0.,0.));
#1364=DIRECTION('',(-1.,0.,0.));
#1365=DIRECTION('',(0.,-1.,0.));
#1366=DIRECTION('',(1.,0.,0.));
#1367=DIRECTION('center_axis',(-1.,0.,0.));
#1368=DIRECTION('ref_axis',(0.,-1.,0.));
#1369=DIRECTION('',(0.,1.,0.));
#1370=DIRECTION('',(0.,0.,1.));
#1371=DIRECTION('',(0.,-1.,0.));
#1372=DIRECTION('',(0.,0.,1.));
#1373=DIRECTION('center_axis',(1.,0.,0.));
#1374=DIRECTION('ref_axis',(0.,1.,0.));
#1375=DIRECTION('',(0.,0.,-1.));
#1376=DIRECTION('',(0.,1.,0.));
#1377=DIRECTION('',(0.,0.,1.));
#1378=DIRECTION('',(0.,1.,0.));
#1379=DIRECTION('center_axis',(0.,0.,1.));
#1380=DIRECTION('ref_axis',(1.,0.,0.));
#1381=DIRECTION('',(-1.,0.,0.));
#1382=DIRECTION('',(1.,0.,0.));
#1383=DIRECTION('center_axis',(0.,0.,-1.));
#1384=DIRECTION('ref_axis',(1.,0.,0.));
#1385=DIRECTION('',(1.,0.,0.));
#1386=DIRECTION('',(1.,0.,0.));
#1387=DIRECTION('center_axis',(0.,0.,-1.));
#1388=DIRECTION('ref_axis',(-1.,0.,0.));
#1389=DIRECTION('center_axis',(0.,0.,-1.));
#1390=DIRECTION('ref_axis',(0.707106781186547,-0.707106781186547,0.));
#1391=DIRECTION('',(0.,-1.,0.));
#1392=DIRECTION('',(1.,0.,0.));
#1393=DIRECTION('',(0.,1.,0.));
#1394=DIRECTION('',(0.,1.,0.));
#1395=DIRECTION('center_axis',(0.,0.,-1.));
#1396=DIRECTION('ref_axis',(-1.,0.,0.));
#1397=DIRECTION('',(0.,1.,0.));
#1398=DIRECTION('',(0.,-1.,0.));
#1399=DIRECTION('',(1.,0.,0.));
#1400=DIRECTION('',(0.,1.,0.));
#1401=DIRECTION('center_axis',(0.,0.,-1.));
#1402=DIRECTION('ref_axis',(-0.707106781186547,-0.707106781186547,0.));
#1403=DIRECTION('center_axis',(-1.,0.,0.));
#1404=DIRECTION('ref_axis',(0.,0.,-1.));
#1405=DIRECTION('',(0.,-1.,0.));
#1406=DIRECTION('',(0.,0.,-1.));
#1407=DIRECTION('center_axis',(1.,0.,0.));
#1408=DIRECTION('ref_axis',(0.,0.,1.));
#1409=DIRECTION('',(0.,0.,1.));
#1410=DIRECTION('',(0.,-1.,0.));
#1411=DIRECTION('center_axis',(0.,1.,0.));
#1412=DIRECTION('ref_axis',(0.,0.,1.));
#1413=DIRECTION('',(1.,0.,0.));
#1414=DIRECTION('',(0.,0.,1.));
#1415=DIRECTION('',(-1.,0.,0.));
#1416=DIRECTION('',(0.,0.,1.));
#1417=DIRECTION('',(1.,0.,0.));
#1418=DIRECTION('',(0.,0.,1.));
#1419=DIRECTION('',(-1.,0.,0.));
#1420=DIRECTION('',(0.,0.,1.));
#1421=DIRECTION('',(1.,0.,0.));
#1422=DIRECTION('',(0.,0.,-1.));
#1423=DIRECTION('',(-1.,0.,0.));
#1424=DIRECTION('',(0.,0.,1.));
#1425=DIRECTION('center_axis',(1.,0.,0.));
#1426=DIRECTION('ref_axis',(0.,0.,-1.));
#1427=DIRECTION('',(0.,0.,1.));
#1428=DIRECTION('',(0.,1.,0.));
#1429=DIRECTION('center_axis',(0.,-1.,0.));
#1430=DIRECTION('ref_axis',(0.,0.,-1.));
#1431=DIRECTION('',(0.,0.,-1.));
#1432=DIRECTION('',(1.,0.,0.));
#1433=DIRECTION('center_axis',(0.,1.,0.));
#1434=DIRECTION('ref_axis',(0.,0.,1.));
#1435=DIRECTION('',(0.,0.,1.));
#1436=DIRECTION('',(1.,0.,0.));
#1437=DIRECTION('center_axis',(1.,0.,0.));
#1438=DIRECTION('ref_axis',(0.,0.,1.));
#1439=DIRECTION('',(0.,-1.,0.));
#1440=DIRECTION('',(0.,9.03100671621475E-9,1.));
#1441=DIRECTION('center_axis',(0.,-9.03100678415009E-9,-1.));
#1442=DIRECTION('ref_axis',(0.,1.,-9.03100678415009E-9));
#1443=DIRECTION('',(0.,-1.,0.));
#1444=DIRECTION('',(0.,1.,-9.03100678415009E-9));
#1445=DIRECTION('',(1.,0.,0.));
#1446=DIRECTION('center_axis',(0.,1.,-9.03100671621475E-9));
#1447=DIRECTION('ref_axis',(0.,9.03100671621475E-9,1.));
#1448=DIRECTION('center_axis',(1.,0.,0.));
#1449=DIRECTION('ref_axis',(0.,0.,1.));
#1450=DIRECTION('',(0.,0.,-1.));
#1451=DIRECTION('',(0.,-1.,0.));
#1452=DIRECTION('center_axis',(0.,-1.,0.));
#1453=DIRECTION('ref_axis',(0.,0.,-1.));
#1454=DIRECTION('',(1.,0.,0.));
#1455=DIRECTION('center_axis',(1.,0.,0.));
#1456=DIRECTION('ref_axis',(0.,1.,0.));
#1457=DIRECTION('',(0.,-1.,0.));
#1458=DIRECTION('',(0.,1.,0.));
#1459=DIRECTION('',(0.,0.,1.));
#1460=DIRECTION('center_axis',(0.,1.,0.));
#1461=DIRECTION('ref_axis',(-1.,0.,0.));
#1462=DIRECTION('',(1.,0.,0.));
#1463=DIRECTION('',(-1.,0.,0.));
#1464=DIRECTION('',(0.,0.,1.));
#1465=DIRECTION('center_axis',(-1.,0.,0.));
#1466=DIRECTION('ref_axis',(0.,-1.,0.));
#1467=DIRECTION('',(0.,1.,0.));
#1468=DIRECTION('',(0.,-1.,0.));
#1469=DIRECTION('center_axis',(1.,0.,0.));
#1470=DIRECTION('ref_axis',(0.,1.,0.));
#1471=DIRECTION('',(0.,-1.,0.));
#1472=DIRECTION('',(0.,1.,0.));
#1473=DIRECTION('',(0.,0.,1.));
#1474=DIRECTION('center_axis',(0.,-1.,0.));
#1475=DIRECTION('ref_axis',(1.,0.,0.));
#1476=DIRECTION('',(-1.,0.,0.));
#1477=DIRECTION('',(1.,0.,0.));
#1478=DIRECTION('',(0.,0.,1.));
#1479=DIRECTION('center_axis',(-1.,0.,0.));
#1480=DIRECTION('ref_axis',(0.,-1.,0.));
#1481=DIRECTION('',(0.,1.,0.));
#1482=DIRECTION('',(0.,-1.,0.));
#1483=DIRECTION('center_axis',(0.,0.,1.));
#1484=DIRECTION('ref_axis',(1.,0.,0.));
#1485=DIRECTION('center_axis',(0.,0.,-1.));
#1486=DIRECTION('ref_axis',(1.,0.,0.));
#1487=DIRECTION('center_axis',(0.,0.,-1.));
#1488=DIRECTION('ref_axis',(1.,0.,0.));
#1489=DIRECTION('center_axis',(0.,0.,-1.));
#1490=DIRECTION('ref_axis',(-0.707106781186547,-0.707106781186547,0.));
#1491=DIRECTION('',(0.,0.,-1.));
#1492=DIRECTION('center_axis',(0.,0.,1.));
#1493=DIRECTION('ref_axis',(-0.707106781186547,-0.707106781186547,0.));
#1494=DIRECTION('center_axis',(0.,0.,1.));
#1495=DIRECTION('ref_axis',(0.707106781186547,-0.707106781186547,0.));
#1496=DIRECTION('center_axis',(0.,0.,1.));
#1497=DIRECTION('ref_axis',(0.707106781186547,-0.707106781186547,0.));
#1498=DIRECTION('center_axis',(0.,0.,-1.));
#1499=DIRECTION('ref_axis',(-1.,0.,0.));
#1500=DIRECTION('',(0.,1.,0.));
#1501=DIRECTION('',(0.,1.,0.));
#1502=DIRECTION('center_axis',(-1.,0.,0.));
#1503=DIRECTION('ref_axis',(0.,0.,1.));
#1504=DIRECTION('center_axis',(1.,0.,0.));
#1505=DIRECTION('ref_axis',(0.,0.,-1.));
#1506=DIRECTION('center_axis',(-1.,0.,0.));
#1507=DIRECTION('ref_axis',(0.,0.,1.));
#1508=DIRECTION('',(0.,1.,0.));
#1509=DIRECTION('center_axis',(0.,0.,-1.));
#1510=DIRECTION('ref_axis',(-1.,0.,0.));
#1511=CARTESIAN_POINT('',(0.,0.,0.));
#1512=CARTESIAN_POINT('Origin',(31.25,1.99999999999999,16.));
#1513=CARTESIAN_POINT('',(32.65,5.99999999999999,16.));
#1514=CARTESIAN_POINT('Origin',(31.25,5.99999999999999,16.));
#1515=CARTESIAN_POINT('',(32.65,1.99999999999999,16.));
#1516=CARTESIAN_POINT('',(32.65,1.99999999999999,16.));
#1517=CARTESIAN_POINT('Origin',(31.25,1.99999999999999,16.));
#1518=CARTESIAN_POINT('Origin',(31.25,5.99999999999999,16.));
#1519=CARTESIAN_POINT('Origin',(40.75,1.99999999999999,15.));
#1520=CARTESIAN_POINT('',(41.5,5.99999999999999,15.));
#1521=CARTESIAN_POINT('Origin',(40.75,5.99999999999999,15.));
#1522=CARTESIAN_POINT('',(41.5,1.99999999999999,15.));
#1523=CARTESIAN_POINT('',(41.5,1.99999999999999,15.));
#1524=CARTESIAN_POINT('Origin',(40.75,1.99999999999999,15.));
#1525=CARTESIAN_POINT('Origin',(40.75,5.99999999999999,15.));
#1526=CARTESIAN_POINT('Origin',(62.75,1.99999999999999,15.));
#1527=CARTESIAN_POINT('',(63.5,5.99999999999999,15.));
#1528=CARTESIAN_POINT('Origin',(62.75,5.99999999999999,15.));
#1529=CARTESIAN_POINT('',(63.5,1.99999999999999,15.));
#1530=CARTESIAN_POINT('',(63.5,1.99999999999999,15.));
#1531=CARTESIAN_POINT('Origin',(62.75,1.99999999999999,15.));
#1532=CARTESIAN_POINT('Origin',(62.75,5.99999999999999,15.));
#1533=CARTESIAN_POINT('Origin',(62.75,1.99999999999999,-7.));
#1534=CARTESIAN_POINT('',(63.5,5.99999999999999,-7.));
#1535=CARTESIAN_POINT('Origin',(62.75,5.99999999999999,-7.));
#1536=CARTESIAN_POINT('',(63.5,1.99999999999999,-7.));
#1537=CARTESIAN_POINT('',(63.5,1.99999999999999,-7.));
#1538=CARTESIAN_POINT('Origin',(62.75,1.99999999999999,-7.));
#1539=CARTESIAN_POINT('Origin',(62.75,5.99999999999999,-7.));
#1540=CARTESIAN_POINT('Origin',(40.75,1.99999999999999,-7.));
#1541=CARTESIAN_POINT('',(41.5,5.99999999999999,-7.));
#1542=CARTESIAN_POINT('Origin',(40.75,5.99999999999999,-7.));
#1543=CARTESIAN_POINT('',(41.5,1.99999999999999,-7.));
#1544=CARTESIAN_POINT('',(41.5,1.99999999999999,-7.));
#1545=CARTESIAN_POINT('Origin',(40.75,1.99999999999999,-7.));
#1546=CARTESIAN_POINT('Origin',(40.75,5.99999999999999,-7.));
#1547=CARTESIAN_POINT('Origin',(38.75,0.,-5.));
#1548=CARTESIAN_POINT('',(38.75,0.,13.));
#1549=CARTESIAN_POINT('',(38.75,0.,-5.));
#1550=CARTESIAN_POINT('',(38.75,0.,-2.5));
#1551=CARTESIAN_POINT('',(38.75,2.,-5.));
#1552=CARTESIAN_POINT('',(38.75,0.,-5.));
#1553=CARTESIAN_POINT('',(38.75,2.,13.));
#1554=CARTESIAN_POINT('',(38.75,1.99999999999999,-2.5));
#1555=CARTESIAN_POINT('',(38.75,0.,13.));
#1556=CARTESIAN_POINT('Origin',(35.25,0.,13.));
#1557=CARTESIAN_POINT('',(64.75,1.99999999999999,13.));
#1558=CARTESIAN_POINT('',(20.125,1.99999999999999,13.));
#1559=CARTESIAN_POINT('',(64.75,4.47034770312271E-8,13.));
#1560=CARTESIAN_POINT('',(64.75,0.999999999999997,13.));
#1561=CARTESIAN_POINT('',(38.125,0.,13.));
#1562=CARTESIAN_POINT('Origin',(64.75,1.99999999999999,-5.));
#1563=CARTESIAN_POINT('',(64.75,4.47034770312271E-8,-5.));
#1564=CARTESIAN_POINT('',(64.75,1.99999999999999,-5.));
#1565=CARTESIAN_POINT('',(64.75,0.999999999999997,-5.));
#1566=CARTESIAN_POINT('',(64.75,0.,-2.5));
#1567=CARTESIAN_POINT('',(64.75,1.99999999999999,-2.5));
#1568=CARTESIAN_POINT('Origin',(0.,1.99999999999999,0.));
#1569=CARTESIAN_POINT('',(25.25,1.99999999999999,19.));
#1570=CARTESIAN_POINT('',(25.25,1.99999999999999,-19.));
#1571=CARTESIAN_POINT('',(25.25,1.99999999999999,9.5));
#1572=CARTESIAN_POINT('',(67.,1.99999999999999,19.));
#1573=CARTESIAN_POINT('',(9.25,1.99999999999999,19.));
#1574=CARTESIAN_POINT('',(67.,1.99999999999999,-20.0000002980232));
#1575=CARTESIAN_POINT('',(67.,1.99999999999999,20.));
#1576=CARTESIAN_POINT('',(55.,1.99999999999999,-20.));
#1577=CARTESIAN_POINT('',(55.,1.99999999999999,-20.0000002980232));
#1578=CARTESIAN_POINT('',(30.,1.99999999999999,-20.));
#1579=CARTESIAN_POINT('',(30.,1.99999999999999,-20.));
#1580=CARTESIAN_POINT('',(-30.,1.99999999999999,-20.));
#1581=CARTESIAN_POINT('',(-30.,1.99999999999999,-20.));
#1582=CARTESIAN_POINT('',(-30.,1.99999999999999,19.));
#1583=CARTESIAN_POINT('',(-30.,1.99999999999999,20.));
#1584=CARTESIAN_POINT('',(-21.75,1.99999999999999,19.));
#1585=CARTESIAN_POINT('',(9.25,1.99999999999999,19.));
#1586=CARTESIAN_POINT('',(-21.75,1.99999999999999,-19.));
#1587=CARTESIAN_POINT('',(-21.75,1.99999999999999,-9.5));
#1588=CARTESIAN_POINT('',(12.625,1.99999999999999,-19.));
#1589=CARTESIAN_POINT('',(28.875,1.99999999999999,-5.));
#1590=CARTESIAN_POINT('',(-25.35,1.99999999999999,16.));
#1591=CARTESIAN_POINT('Origin',(-26.75,1.99999999999999,16.));
#1592=CARTESIAN_POINT('Origin',(61.25,0.,-5.));
#1593=CARTESIAN_POINT('',(29.375,0.,-5.));
#1594=CARTESIAN_POINT('Origin',(18.5,0.,0.));
#1595=CARTESIAN_POINT('',(-21.75,0.,19.));
#1596=CARTESIAN_POINT('',(-30.,0.,19.));
#1597=CARTESIAN_POINT('',(18.5,0.,19.));
#1598=CARTESIAN_POINT('',(-30.,0.,-25.));
#1599=CARTESIAN_POINT('',(-30.,0.,-12.5));
#1600=CARTESIAN_POINT('',(67.,0.,-25.));
#1601=CARTESIAN_POINT('',(-35.,0.,-25.));
#1602=CARTESIAN_POINT('',(67.,0.,19.));
#1603=CARTESIAN_POINT('',(67.,0.,12.5));
#1604=CARTESIAN_POINT('',(25.25,0.,19.));
#1605=CARTESIAN_POINT('',(18.5,0.,19.));
#1606=CARTESIAN_POINT('',(25.25,0.,-19.));
#1607=CARTESIAN_POINT('',(25.25,0.,9.5));
#1608=CARTESIAN_POINT('',(-21.75,0.,-19.));
#1609=CARTESIAN_POINT('',(21.875,0.,-19.));
#1610=CARTESIAN_POINT('',(-21.75,0.,-9.5));
#1611=CARTESIAN_POINT('Origin',(-26.75,1.99999999999999,16.));
#1612=CARTESIAN_POINT('',(-25.35,5.99999999999999,16.));
#1613=CARTESIAN_POINT('Origin',(-26.75,5.99999999999999,16.));
#1614=CARTESIAN_POINT('',(-25.35,1.99999999999999,16.));
#1615=CARTESIAN_POINT('Origin',(-26.75,5.99999999999999,16.));
#1616=CARTESIAN_POINT('Origin',(55.,14.5000001264341,7.99999970197678));
#1617=CARTESIAN_POINT('',(55.,18.5,12.9999997019768));
#1618=CARTESIAN_POINT('',(55.,18.5,-20.0000001490116));
#1619=CARTESIAN_POINT('',(55.,18.5,7.99999970197678));
#1620=CARTESIAN_POINT('',(55.,14.5000001264341,12.9999997019768));
#1621=CARTESIAN_POINT('',(55.,18.5,12.9999997019768));
#1622=CARTESIAN_POINT('',(55.,14.5000001264341,7.99999970197678));
#1623=CARTESIAN_POINT('',(55.,14.5000001264341,7.99999970197678));
#1624=CARTESIAN_POINT('',(55.,14.4999998735659,-20.0000001137712));
#1625=CARTESIAN_POINT('',(55.,14.5000001264341,7.99999970197678));
#1626=CARTESIAN_POINT('',(55.,28.5,-20.0000002980232));
#1627=CARTESIAN_POINT('Origin',(51.48,14.5000001264341,7.99999970197678));
#1628=CARTESIAN_POINT('',(51.48,14.5000001264341,7.99999970197678));
#1629=CARTESIAN_POINT('',(30.,14.5000001264341,7.99999970197678));
#1630=CARTESIAN_POINT('',(51.48,14.5000001264341,12.9999997019768));
#1631=CARTESIAN_POINT('',(51.48,14.5000001264341,12.9999997019768));
#1632=CARTESIAN_POINT('',(51.48,14.5000001264341,7.99999970197678));
#1633=CARTESIAN_POINT('Origin',(51.48,18.5000001264341,7.99999970197678));
#1634=CARTESIAN_POINT('',(51.48,18.5000001264341,7.99999970197678));
#1635=CARTESIAN_POINT('',(51.48,39.250000063217,7.99999970197678));
#1636=CARTESIAN_POINT('',(51.48,18.5000001264341,12.9999997019768));
#1637=CARTESIAN_POINT('',(51.48,14.5000001264341,12.9999997019768));
#1638=CARTESIAN_POINT('',(51.48,18.5000001264341,7.99999970197678));
#1639=CARTESIAN_POINT('Origin',(53.24,16.5000001264341,12.9999997019768));
#1640=CARTESIAN_POINT('',(55.,18.5,12.9999997019768));
#1641=CARTESIAN_POINT('Origin',(30.,60.,7.99999970197678));
#1642=CARTESIAN_POINT('',(31.575,18.5,7.99999970197678));
#1643=CARTESIAN_POINT('',(30.,18.5,7.99999970197678));
#1644=CARTESIAN_POINT('',(31.575,14.5230540940727,7.99999970197678));
#1645=CARTESIAN_POINT('',(31.575,37.2615270470364,7.99999970197678));
#1646=CARTESIAN_POINT('',(30.,14.5230540940727,7.99999970197678));
#1647=CARTESIAN_POINT('',(30.,14.5230540940727,7.99999970197678));
#1648=CARTESIAN_POINT('',(30.,14.5000001264341,7.99999970197678));
#1649=CARTESIAN_POINT('',(30.,60.,7.99999970197678));
#1650=CARTESIAN_POINT('',(30.,14.5000001264341,7.99999970197678));
#1651=CARTESIAN_POINT('Origin',(31.575,14.5230540940727,7.99999970197678));
#1652=CARTESIAN_POINT('',(31.575,18.5,12.9999997019768));
#1653=CARTESIAN_POINT('',(31.575,18.5,7.99999970197678));
#1654=CARTESIAN_POINT('',(31.575,14.5230540940727,12.9999997019768));
#1655=CARTESIAN_POINT('',(31.575,14.5230540940727,12.9999997019768));
#1656=CARTESIAN_POINT('',(31.575,14.5230540940727,7.99999970197678));
#1657=CARTESIAN_POINT('Origin',(30.,14.5230540940727,7.99999970197678));
#1658=CARTESIAN_POINT('',(30.,14.5230540940727,12.9999997019768));
#1659=CARTESIAN_POINT('',(30.,14.5230540940727,12.9999997019768));
#1660=CARTESIAN_POINT('',(30.,14.5230540940727,7.99999970197678));
#1661=CARTESIAN_POINT('Origin',(30.7875,16.5115270470363,12.9999997019768));
#1662=CARTESIAN_POINT('',(30.,18.5,12.9999997019768));
#1663=CARTESIAN_POINT('',(31.575,18.5,12.9999997019768));
#1664=CARTESIAN_POINT('',(30.,35.,12.9999997019768));
#1665=CARTESIAN_POINT('Origin',(31.575,28.5,7.99999970197678));
#1666=CARTESIAN_POINT('',(31.575,35.,7.99999970197678));
#1667=CARTESIAN_POINT('',(31.575,28.5,7.99999970197678));
#1668=CARTESIAN_POINT('',(31.575,44.25,7.99999970197678));
#1669=CARTESIAN_POINT('',(31.575,35.,12.9999997019768));
#1670=CARTESIAN_POINT('',(31.575,35.,7.99999970197678));
#1671=CARTESIAN_POINT('',(31.575,28.5,12.9999997019768));
#1672=CARTESIAN_POINT('',(31.575,14.5230540940727,12.9999997019768));
#1673=CARTESIAN_POINT('',(31.575,28.5,7.99999970197678));
#1674=CARTESIAN_POINT('Origin',(30.7875,31.75,12.9999997019768));
#1675=CARTESIAN_POINT('',(30.,35.,12.9999997019768));
#1676=CARTESIAN_POINT('',(31.575,35.,12.9999997019768));
#1677=CARTESIAN_POINT('',(30.,28.5,12.9999997019768));
#1678=CARTESIAN_POINT('',(30.,35.,12.9999997019768));
#1679=CARTESIAN_POINT('',(31.575,28.5,12.9999997019768));
#1680=CARTESIAN_POINT('Origin',(51.48,35.,7.99999970197678));
#1681=CARTESIAN_POINT('',(51.48,28.5,7.99999970197678));
#1682=CARTESIAN_POINT('',(51.48,35.,7.99999970197678));
#1683=CARTESIAN_POINT('',(51.48,47.5,7.99999970197678));
#1684=CARTESIAN_POINT('',(51.48,28.5,12.9999997019768));
#1685=CARTESIAN_POINT('',(51.48,28.5,7.99999970197678));
#1686=CARTESIAN_POINT('',(51.48,35.,12.9999997019768));
#1687=CARTESIAN_POINT('',(51.48,35.,12.9999997019768));
#1688=CARTESIAN_POINT('',(51.48,35.,7.99999970197678));
#1689=CARTESIAN_POINT('Origin',(55.,28.5,7.99999970197678));
#1690=CARTESIAN_POINT('',(55.,35.,12.9999997019768));
#1691=CARTESIAN_POINT('',(55.,35.,-20.0000002980232));
#1692=CARTESIAN_POINT('',(55.,35.,3.99999977648258));
#1693=CARTESIAN_POINT('',(55.,28.5,12.9999997019768));
#1694=CARTESIAN_POINT('',(55.,28.5,12.9999997019768));
#1695=CARTESIAN_POINT('',(55.,28.5,-20.0000001490116));
#1696=CARTESIAN_POINT('',(55.,28.5,7.99999970197678));
#1697=CARTESIAN_POINT('',(55.,28.5,-20.0000002980232));
#1698=CARTESIAN_POINT('Origin',(48.5,18.5,12.9999997019768));
#1699=CARTESIAN_POINT('',(67.,35.,12.9999997019768));
#1700=CARTESIAN_POINT('',(51.48,28.5,12.9999997019768));
#1701=CARTESIAN_POINT('Origin',(30.,60.,7.99999970197678));
#1702=CARTESIAN_POINT('',(30.,28.5,7.99999970197678));
#1703=CARTESIAN_POINT('',(39.25,35.,7.99999970197678));
#1704=CARTESIAN_POINT('Origin',(18.5,30.,19.));
#1705=CARTESIAN_POINT('',(72.,5.,19.));
#1706=CARTESIAN_POINT('Origin',(67.,5.,19.));
#1707=CARTESIAN_POINT('',(72.,60.,19.));
#1708=CARTESIAN_POINT('',(72.,15.,19.));
#1709=CARTESIAN_POINT('',(67.,60.,19.));
#1710=CARTESIAN_POINT('',(18.5,60.,19.));
#1711=CARTESIAN_POINT('',(67.,45.,19.));
#1712=CARTESIAN_POINT('',(25.25,0.,19.));
#1713=CARTESIAN_POINT('Origin',(18.5,30.,19.));
#1714=CARTESIAN_POINT('',(-21.75,0.,19.));
#1715=CARTESIAN_POINT('',(-30.,60.,19.));
#1716=CARTESIAN_POINT('',(-30.,45.,19.));
#1717=CARTESIAN_POINT('',(-35.,60.,19.));
#1718=CARTESIAN_POINT('',(18.5,60.,19.));
#1719=CARTESIAN_POINT('',(-35.,5.,19.));
#1720=CARTESIAN_POINT('',(-35.,15.,19.));
#1721=CARTESIAN_POINT('Origin',(-30.,5.,19.));
#1722=CARTESIAN_POINT('Origin',(-30.,60.,20.));
#1723=CARTESIAN_POINT('',(-30.,60.,-20.));
#1724=CARTESIAN_POINT('',(-30.,60.,-20.));
#1725=CARTESIAN_POINT('',(-30.,60.,10.));
#1726=CARTESIAN_POINT('Origin',(67.,60.,-20.0000002980232));
#1727=CARTESIAN_POINT('',(67.,60.,-20.0000002980232));
#1728=CARTESIAN_POINT('',(67.,60.,-10.0000001490116));
#1729=CARTESIAN_POINT('',(67.,60.,-20.0000002980232));
#1730=CARTESIAN_POINT('Origin',(18.5,60.,0.));
#1731=CARTESIAN_POINT('',(-17.2,60.,-20.));
#1732=CARTESIAN_POINT('',(-5.75,60.,-20.));
#1733=CARTESIAN_POINT('',(-17.2,60.,-16.));
#1734=CARTESIAN_POINT('',(-17.2,60.,-20.));
#1735=CARTESIAN_POINT('',(-12.2,60.,-16.));
#1736=CARTESIAN_POINT('',(19.3,60.,-16.));
#1737=CARTESIAN_POINT('',(-12.2,60.,-20.));
#1738=CARTESIAN_POINT('',(-12.2,60.,-20.));
#1739=CARTESIAN_POINT('',(14.3,60.,-20.));
#1740=CARTESIAN_POINT('',(-5.75,60.,-20.));
#1741=CARTESIAN_POINT('',(14.3,60.,-16.));
#1742=CARTESIAN_POINT('',(14.3,60.,-20.));
#1743=CARTESIAN_POINT('',(19.3,60.,-16.));
#1744=CARTESIAN_POINT('',(19.3,60.,-16.));
#1745=CARTESIAN_POINT('',(19.3,60.,-20.));
#1746=CARTESIAN_POINT('',(19.3,60.,-20.));
#1747=CARTESIAN_POINT('',(24.25,60.,-20.0000002980232));
#1748=CARTESIAN_POINT('',(72.,60.,-25.));
#1749=CARTESIAN_POINT('',(72.,60.,-25.));
#1750=CARTESIAN_POINT('',(-35.,60.,-25.));
#1751=CARTESIAN_POINT('',(-35.,60.,-25.));
#1752=CARTESIAN_POINT('',(-35.,60.,25.));
#1753=CARTESIAN_POINT('Origin',(72.,0.,25.));
#1754=CARTESIAN_POINT('',(72.,5.,-25.));
#1755=CARTESIAN_POINT('',(72.,5.,12.5));
#1756=CARTESIAN_POINT('',(72.,0.,-25.));
#1757=CARTESIAN_POINT('Origin',(30.,18.5,7.99999970197678));
#1758=CARTESIAN_POINT('',(30.,18.5,-20.0000001490116));
#1759=CARTESIAN_POINT('',(30.,18.5,-6.00000014901161));
#1760=CARTESIAN_POINT('',(30.,18.5,-20.0000001490116));
#1761=CARTESIAN_POINT('Origin',(30.,28.5,-20.0000001490116));
#1762=CARTESIAN_POINT('',(30.,28.5,-20.0000001490116));
#1763=CARTESIAN_POINT('',(30.,28.5,7.99999970197678));
#1764=CARTESIAN_POINT('',(30.,28.5,-20.0000001490116));
#1765=CARTESIAN_POINT('Origin',(30.,60.,-20.));
#1766=CARTESIAN_POINT('',(30.,14.4999998735659,-20.0000001137712));
#1767=CARTESIAN_POINT('',(30.,60.,-20.));
#1768=CARTESIAN_POINT('',(30.,14.4999998735659,-19.9999998514302));
#1769=CARTESIAN_POINT('Origin',(30.,1.99999999999999,-20.));
#1770=CARTESIAN_POINT('',(30.,60.,-20.));
#1771=CARTESIAN_POINT('',(55.,35.,-20.0000002980232));
#1772=CARTESIAN_POINT('',(30.,14.4999998735659,-20.0000001137712));
#1773=CARTESIAN_POINT('Origin',(30.,14.4999998735659,-20.0000001137712));
#1774=CARTESIAN_POINT('Origin',(30.,60.,-20.));
#1775=CARTESIAN_POINT('',(30.,35.,-20.0000002980232));
#1776=CARTESIAN_POINT('',(30.,35.,-10.0000000745058));
#1777=CARTESIAN_POINT('',(30.,60.,-20.));
#1778=CARTESIAN_POINT('Origin',(48.5,35.,-1.49011611938477E-7));
#1779=CARTESIAN_POINT('',(67.,35.,-20.0000002980232));
#1780=CARTESIAN_POINT('Origin',(-12.2,25.15,-20.));
#1781=CARTESIAN_POINT('',(-12.2,25.15,-20.));
#1782=CARTESIAN_POINT('',(-12.2,42.575,-20.));
#1783=CARTESIAN_POINT('',(-12.2,25.15,-16.));
#1784=CARTESIAN_POINT('',(-12.2,60.,-16.));
#1785=CARTESIAN_POINT('',(-12.2,25.15,-20.));
#1786=CARTESIAN_POINT('Origin',(14.3,25.15,-20.));
#1787=CARTESIAN_POINT('',(14.3,25.15,-20.));
#1788=CARTESIAN_POINT('',(-7.85,25.15,-20.));
#1789=CARTESIAN_POINT('',(14.3,25.15,-16.));
#1790=CARTESIAN_POINT('',(-12.2,25.15,-16.));
#1791=CARTESIAN_POINT('',(14.3,25.15,-20.));
#1792=CARTESIAN_POINT('Origin',(14.3,60.,-20.));
#1793=CARTESIAN_POINT('',(14.3,60.,-20.));
#1794=CARTESIAN_POINT('',(14.3,25.15,-16.));
#1795=CARTESIAN_POINT('Origin',(19.3,17.58,-20.));
#1796=CARTESIAN_POINT('',(19.3,17.58,-20.));
#1797=CARTESIAN_POINT('',(19.3,38.79,-20.));
#1798=CARTESIAN_POINT('',(19.3,17.58,-16.));
#1799=CARTESIAN_POINT('',(19.3,17.58,-16.));
#1800=CARTESIAN_POINT('',(19.3,17.58,-20.));
#1801=CARTESIAN_POINT('Origin',(-17.2,17.58,-20.));
#1802=CARTESIAN_POINT('',(-17.2,17.58,-20.));
#1803=CARTESIAN_POINT('',(-23.6,17.58,-20.));
#1804=CARTESIAN_POINT('',(-17.2,17.58,-16.));
#1805=CARTESIAN_POINT('',(-17.2,17.58,-16.));
#1806=CARTESIAN_POINT('',(-17.2,17.58,-20.));
#1807=CARTESIAN_POINT('Origin',(-17.2,60.,-20.));
#1808=CARTESIAN_POINT('',(-17.2,60.,-20.));
#1809=CARTESIAN_POINT('',(-17.2,60.,-16.));
#1810=CARTESIAN_POINT('Origin',(1.05,38.79,-16.));
#1811=CARTESIAN_POINT('Origin',(-30.,60.,-20.));
#1812=CARTESIAN_POINT('Origin',(-30.,60.,-20.));
#1813=CARTESIAN_POINT('Origin',(-30.,5.,-12.5));
#1814=CARTESIAN_POINT('',(-35.,5.,-25.));
#1815=CARTESIAN_POINT('',(-35.,5.,-12.5));
#1816=CARTESIAN_POINT('Origin',(-30.,5.,-25.));
#1817=CARTESIAN_POINT('Origin',(67.,5.,12.5));
#1818=CARTESIAN_POINT('Origin',(67.,5.,-25.));
#1819=CARTESIAN_POINT('Origin',(25.25,0.,-19.));
#1820=CARTESIAN_POINT('',(-21.75,0.,-19.));
#1821=CARTESIAN_POINT('',(25.25,0.,-19.));
#1822=CARTESIAN_POINT('Origin',(-21.75,0.,-19.));
#1823=CARTESIAN_POINT('Origin',(25.25,0.,19.));
#1824=CARTESIAN_POINT('Origin',(-35.,0.,-25.));
#1825=CARTESIAN_POINT('',(-35.,0.,-25.));
#1826=CARTESIAN_POINT('Origin',(72.,0.,-25.));
#1827=UNCERTAINTY_MEASURE_WITH_UNIT(LENGTH_MEASURE(0.01),#1831,
'DISTANCE_ACCURACY_VALUE',
'Maximum model space distance between geometric entities at asserted c
onnectivities');
#1828=UNCERTAINTY_MEASURE_WITH_UNIT(LENGTH_MEASURE(0.01),#1831,
'DISTANCE_ACCURACY_VALUE',
'Maximum model space distance between geometric entities at asserted c
onnectivities');
#1829=(
GEOMETRIC_REPRESENTATION_CONTEXT(3)
GLOBAL_UNCERTAINTY_ASSIGNED_CONTEXT((#1827))
GLOBAL_UNIT_ASSIGNED_CONTEXT((#1831,#1833,#1834))
REPRESENTATION_CONTEXT('','3D')
);
#1830=(
GEOMETRIC_REPRESENTATION_CONTEXT(3)
GLOBAL_UNCERTAINTY_ASSIGNED_CONTEXT((#1828))
GLOBAL_UNIT_ASSIGNED_CONTEXT((#1831,#1833,#1834))
REPRESENTATION_CONTEXT('','3D')
);
#1831=(
LENGTH_UNIT()
NAMED_UNIT(*)
SI_UNIT(.MILLI.,.METRE.)
);
#1832=(
LENGTH_UNIT()
NAMED_UNIT(*)
SI_UNIT($,.METRE.)
);
#1833=(
NAMED_UNIT(*)
PLANE_ANGLE_UNIT()
SI_UNIT($,.RADIAN.)
);
#1834=(
NAMED_UNIT(*)
SI_UNIT($,.STERADIAN.)
SOLID_ANGLE_UNIT()
);
#1835=SHAPE_DEFINITION_REPRESENTATION(#1836,#1837);
#1836=PRODUCT_DEFINITION_SHAPE('',$,#1839);
#1837=SHAPE_REPRESENTATION('',(#1140),#1829);
#1838=PRODUCT_DEFINITION_CONTEXT('part definition',#1843,'design');
#1839=PRODUCT_DEFINITION('Fusion-Komponente','Fusion-Komponente',#1840,
#1838);
#1840=PRODUCT_DEFINITION_FORMATION('',$,#1845);
#1841=PRODUCT_RELATED_PRODUCT_CATEGORY('Fusion-Komponente',
'Fusion-Komponente',(#1845));
#1842=APPLICATION_PROTOCOL_DEFINITION('international standard',
'automotive_design',2009,#1843);
#1843=APPLICATION_CONTEXT(
'Core Data for Automotive Mechanical Design Process');
#1844=PRODUCT_CONTEXT('part definition',#1843,'mechanical');
#1845=PRODUCT('Fusion-Komponente','Fusion-Komponente',$,(#1844));
#1846=PRESENTATION_STYLE_ASSIGNMENT((#1847));
#1847=SURFACE_STYLE_USAGE(.BOTH.,#1848);
#1848=SURFACE_SIDE_STYLE('',(#1849));
#1849=SURFACE_STYLE_FILL_AREA(#1850);
#1850=FILL_AREA_STYLE('Stahl - satiniert',(#1851));
#1851=FILL_AREA_STYLE_COLOUR('Stahl - satiniert',#1852);
#1852=COLOUR_RGB('Stahl - satiniert',0.627450980392157,0.627450980392157,
0.627450980392157);
ENDSEC;
END-ISO-10303-21;
