ISO-10303-21;
HEADER;
/* Generated by software containing ST-Developer
 * from STEP Tools, Inc. (www.steptools.com) 
 */

FILE_DESCRIPTION(
/* description */ (''),
/* implementation_level */ '2;1');

FILE_NAME(
/* name */ 'Top.step',
/* time_stamp */ '2026-05-30T00:02:42+02:00',
/* author */ (''),
/* organization */ (''),
/* preprocessor_version */ 'ST-DEVELOPER v20.1',
/* originating_system */ 'Autodesk Translation Framework v15.8.0.0',
/* authorisation */ '');

FILE_SCHEMA (('AUTOMOTIVE_DESIGN { 1 0 10303 214 3 1 1 }'));
ENDSEC;

DATA;
#10=MECHANICAL_DESIGN_GEOMETRIC_PRESENTATION_REPRESENTATION('',(#13),#1853);
#11=SHAPE_REPRESENTATION_RELATIONSHIP('SRR','None',#1860,#12);
#12=ADVANCED_BREP_SHAPE_REPRESENTATION('',(#14),#1852);
#13=STYLED_ITEM('',(#1869),#14);
#14=MANIFOLD_SOLID_BREP('K\X\F6rper1',#1118);
#15=SPHERICAL_SURFACE('',#1187,5.);
#16=SPHERICAL_SURFACE('',#1189,5.);
#17=CYLINDRICAL_SURFACE('',#1180,5.);
#18=CYLINDRICAL_SURFACE('',#1182,5.);
#19=CYLINDRICAL_SURFACE('',#1184,5.);
#20=CYLINDRICAL_SURFACE('',#1191,0.499999999999998);
#21=CYLINDRICAL_SURFACE('',#1193,0.5);
#22=CYLINDRICAL_SURFACE('',#1195,0.5);
#23=CYLINDRICAL_SURFACE('',#1197,0.499999999999998);
#24=CYLINDRICAL_SURFACE('',#1199,0.500000000000003);
#25=CYLINDRICAL_SURFACE('',#1201,0.5);
#26=CYLINDRICAL_SURFACE('',#1203,0.499999999999998);
#27=CYLINDRICAL_SURFACE('',#1205,0.499999999999998);
#28=CYLINDRICAL_SURFACE('',#1207,0.499999999999998);
#29=CYLINDRICAL_SURFACE('',#1209,0.5);
#30=CYLINDRICAL_SURFACE('',#1211,0.499999999999998);
#31=CYLINDRICAL_SURFACE('',#1213,0.499999999999998);
#32=CYLINDRICAL_SURFACE('',#1219,5.);
#33=CYLINDRICAL_SURFACE('',#1221,5.);
#34=FACE_BOUND('',#145,.T.);
#35=FACE_BOUND('',#146,.T.);
#36=FACE_BOUND('',#147,.T.);
#37=FACE_BOUND('',#148,.T.);
#38=FACE_BOUND('',#157,.T.);
#39=FACE_BOUND('',#158,.T.);
#40=FACE_BOUND('',#159,.T.);
#41=FACE_BOUND('',#160,.T.);
#42=CIRCLE('',#1135,5.);
#43=CIRCLE('',#1136,5.);
#44=CIRCLE('',#1138,5.);
#45=CIRCLE('',#1139,5.);
#46=CIRCLE('',#1148,0.5);
#47=CIRCLE('',#1149,0.499999999999998);
#48=CIRCLE('',#1150,0.499999999999998);
#49=CIRCLE('',#1151,0.499999999999998);
#50=CIRCLE('',#1152,0.5);
#51=CIRCLE('',#1153,0.500000000000003);
#52=CIRCLE('',#1154,0.499999999999998);
#53=CIRCLE('',#1155,0.499999999999998);
#54=CIRCLE('',#1156,0.5);
#55=CIRCLE('',#1157,0.499999999999998);
#56=CIRCLE('',#1158,0.499999999999998);
#57=CIRCLE('',#1159,0.5);
#58=CIRCLE('',#1168,0.499999999999998);
#59=CIRCLE('',#1169,0.499999999999998);
#60=CIRCLE('',#1170,0.499999999999998);
#61=CIRCLE('',#1171,0.5);
#62=CIRCLE('',#1172,0.499999999999998);
#63=CIRCLE('',#1173,0.499999999999998);
#64=CIRCLE('',#1174,0.500000000000003);
#65=CIRCLE('',#1175,0.5);
#66=CIRCLE('',#1176,0.5);
#67=CIRCLE('',#1177,0.499999999999998);
#68=CIRCLE('',#1178,0.499999999999998);
#69=CIRCLE('',#1179,0.5);
#70=CIRCLE('',#1181,5.);
#71=CIRCLE('',#1183,5.);
#72=CIRCLE('',#1185,5.);
#73=CIRCLE('',#1186,5.);
#74=CIRCLE('',#1188,5.);
#75=CIRCLE('',#1190,5.);
#76=FACE_OUTER_BOUND('',#133,.T.);
#77=FACE_OUTER_BOUND('',#134,.T.);
#78=FACE_OUTER_BOUND('',#135,.T.);
#79=FACE_OUTER_BOUND('',#136,.T.);
#80=FACE_OUTER_BOUND('',#137,.T.);
#81=FACE_OUTER_BOUND('',#138,.T.);
#82=FACE_OUTER_BOUND('',#139,.T.);
#83=FACE_OUTER_BOUND('',#140,.T.);
#84=FACE_OUTER_BOUND('',#141,.T.);
#85=FACE_OUTER_BOUND('',#142,.T.);
#86=FACE_OUTER_BOUND('',#143,.T.);
#87=FACE_OUTER_BOUND('',#144,.T.);
#88=FACE_OUTER_BOUND('',#149,.T.);
#89=FACE_OUTER_BOUND('',#150,.T.);
#90=FACE_OUTER_BOUND('',#151,.T.);
#91=FACE_OUTER_BOUND('',#152,.T.);
#92=FACE_OUTER_BOUND('',#153,.T.);
#93=FACE_OUTER_BOUND('',#154,.T.);
#94=FACE_OUTER_BOUND('',#155,.T.);
#95=FACE_OUTER_BOUND('',#156,.T.);
#96=FACE_OUTER_BOUND('',#161,.T.);
#97=FACE_OUTER_BOUND('',#162,.T.);
#98=FACE_OUTER_BOUND('',#163,.T.);
#99=FACE_OUTER_BOUND('',#164,.T.);
#100=FACE_OUTER_BOUND('',#165,.T.);
#101=FACE_OUTER_BOUND('',#166,.T.);
#102=FACE_OUTER_BOUND('',#167,.T.);
#103=FACE_OUTER_BOUND('',#168,.T.);
#104=FACE_OUTER_BOUND('',#169,.T.);
#105=FACE_OUTER_BOUND('',#170,.T.);
#106=FACE_OUTER_BOUND('',#171,.T.);
#107=FACE_OUTER_BOUND('',#172,.T.);
#108=FACE_OUTER_BOUND('',#173,.T.);
#109=FACE_OUTER_BOUND('',#174,.T.);
#110=FACE_OUTER_BOUND('',#175,.T.);
#111=FACE_OUTER_BOUND('',#176,.T.);
#112=FACE_OUTER_BOUND('',#177,.T.);
#113=FACE_OUTER_BOUND('',#178,.T.);
#114=FACE_OUTER_BOUND('',#179,.T.);
#115=FACE_OUTER_BOUND('',#180,.T.);
#116=FACE_OUTER_BOUND('',#181,.T.);
#117=FACE_OUTER_BOUND('',#182,.T.);
#118=FACE_OUTER_BOUND('',#183,.T.);
#119=FACE_OUTER_BOUND('',#184,.T.);
#120=FACE_OUTER_BOUND('',#185,.T.);
#121=FACE_OUTER_BOUND('',#186,.T.);
#122=FACE_OUTER_BOUND('',#187,.T.);
#123=FACE_OUTER_BOUND('',#188,.T.);
#124=FACE_OUTER_BOUND('',#189,.T.);
#125=FACE_OUTER_BOUND('',#190,.T.);
#126=FACE_OUTER_BOUND('',#191,.T.);
#127=FACE_OUTER_BOUND('',#192,.T.);
#128=FACE_OUTER_BOUND('',#193,.T.);
#129=FACE_OUTER_BOUND('',#194,.T.);
#130=FACE_OUTER_BOUND('',#195,.T.);
#131=FACE_OUTER_BOUND('',#196,.T.);
#132=FACE_OUTER_BOUND('',#197,.T.);
#133=EDGE_LOOP('',(#707,#708,#709,#710));
#134=EDGE_LOOP('',(#711,#712,#713,#714));
#135=EDGE_LOOP('',(#715,#716,#717,#718,#719,#720,#721,#722,#723,#724,#725,
#726,#727,#728,#729,#730,#731,#732));
#136=EDGE_LOOP('',(#733,#734,#735,#736,#737,#738,#739,#740,#741,#742));
#137=EDGE_LOOP('',(#743,#744,#745,#746,#747,#748));
#138=EDGE_LOOP('',(#749,#750,#751,#752,#753,#754));
#139=EDGE_LOOP('',(#755,#756,#757,#758));
#140=EDGE_LOOP('',(#759,#760,#761,#762));
#141=EDGE_LOOP('',(#763,#764,#765,#766));
#142=EDGE_LOOP('',(#767,#768,#769,#770));
#143=EDGE_LOOP('',(#771,#772,#773,#774));
#144=EDGE_LOOP('',(#775,#776,#777,#778,#779,#780,#781,#782,#783,#784,#785));
#145=EDGE_LOOP('',(#786,#787,#788,#789,#790,#791,#792,#793));
#146=EDGE_LOOP('',(#794,#795,#796,#797,#798,#799,#800,#801));
#147=EDGE_LOOP('',(#802,#803,#804,#805,#806,#807,#808,#809));
#148=EDGE_LOOP('',(#810,#811,#812,#813));
#149=EDGE_LOOP('',(#814,#815,#816,#817,#818,#819));
#150=EDGE_LOOP('',(#820,#821,#822,#823));
#151=EDGE_LOOP('',(#824,#825,#826,#827));
#152=EDGE_LOOP('',(#828,#829,#830,#831));
#153=EDGE_LOOP('',(#832,#833,#834,#835,#836));
#154=EDGE_LOOP('',(#837,#838,#839,#840));
#155=EDGE_LOOP('',(#841,#842,#843,#844));
#156=EDGE_LOOP('',(#845,#846,#847,#848));
#157=EDGE_LOOP('',(#849,#850,#851,#852));
#158=EDGE_LOOP('',(#853,#854,#855,#856,#857,#858,#859,#860));
#159=EDGE_LOOP('',(#861,#862,#863,#864,#865,#866,#867,#868));
#160=EDGE_LOOP('',(#869,#870,#871,#872,#873,#874,#875,#876));
#161=EDGE_LOOP('',(#877,#878,#879,#880));
#162=EDGE_LOOP('',(#881,#882,#883,#884));
#163=EDGE_LOOP('',(#885,#886,#887,#888));
#164=EDGE_LOOP('',(#889,#890,#891));
#165=EDGE_LOOP('',(#892,#893,#894));
#166=EDGE_LOOP('',(#895,#896,#897,#898));
#167=EDGE_LOOP('',(#899,#900,#901,#902));
#168=EDGE_LOOP('',(#903,#904,#905,#906));
#169=EDGE_LOOP('',(#907,#908,#909,#910));
#170=EDGE_LOOP('',(#911,#912,#913,#914));
#171=EDGE_LOOP('',(#915,#916,#917,#918));
#172=EDGE_LOOP('',(#919,#920,#921,#922));
#173=EDGE_LOOP('',(#923,#924,#925,#926));
#174=EDGE_LOOP('',(#927,#928,#929,#930));
#175=EDGE_LOOP('',(#931,#932,#933,#934));
#176=EDGE_LOOP('',(#935,#936,#937,#938));
#177=EDGE_LOOP('',(#939,#940,#941,#942));
#178=EDGE_LOOP('',(#943,#944,#945,#946));
#179=EDGE_LOOP('',(#947,#948,#949,#950));
#180=EDGE_LOOP('',(#951,#952,#953,#954));
#181=EDGE_LOOP('',(#955,#956,#957,#958));
#182=EDGE_LOOP('',(#959,#960,#961,#962));
#183=EDGE_LOOP('',(#963,#964,#965,#966));
#184=EDGE_LOOP('',(#967,#968,#969,#970));
#185=EDGE_LOOP('',(#971,#972,#973,#974));
#186=EDGE_LOOP('',(#975,#976,#977,#978));
#187=EDGE_LOOP('',(#979,#980,#981,#982));
#188=EDGE_LOOP('',(#983,#984,#985,#986));
#189=EDGE_LOOP('',(#987,#988,#989,#990));
#190=EDGE_LOOP('',(#991,#992,#993,#994));
#191=EDGE_LOOP('',(#995,#996,#997,#998));
#192=EDGE_LOOP('',(#999,#1000,#1001,#1002));
#193=EDGE_LOOP('',(#1003,#1004,#1005,#1006));
#194=EDGE_LOOP('',(#1007,#1008,#1009,#1010));
#195=EDGE_LOOP('',(#1011,#1012,#1013,#1014));
#196=EDGE_LOOP('',(#1015,#1016,#1017,#1018));
#197=EDGE_LOOP('',(#1019,#1020,#1021,#1022));
#198=LINE('',#1535,#322);
#199=LINE('',#1537,#323);
#200=LINE('',#1539,#324);
#201=LINE('',#1540,#325);
#202=LINE('',#1543,#326);
#203=LINE('',#1545,#327);
#204=LINE('',#1546,#328);
#205=LINE('',#1550,#329);
#206=LINE('',#1552,#330);
#207=LINE('',#1556,#331);
#208=LINE('',#1560,#332);
#209=LINE('',#1562,#333);
#210=LINE('',#1564,#334);
#211=LINE('',#1566,#335);
#212=LINE('',#1568,#336);
#213=LINE('',#1570,#337);
#214=LINE('',#1572,#338);
#215=LINE('',#1574,#339);
#216=LINE('',#1576,#340);
#217=LINE('',#1577,#341);
#218=LINE('',#1579,#342);
#219=LINE('',#1580,#343);
#220=LINE('',#1583,#344);
#221=LINE('',#1585,#345);
#222=LINE('',#1586,#346);
#223=LINE('',#1588,#347);
#224=LINE('',#1592,#348);
#225=LINE('',#1595,#349);
#226=LINE('',#1598,#350);
#227=LINE('',#1600,#351);
#228=LINE('',#1601,#352);
#229=LINE('',#1604,#353);
#230=LINE('',#1606,#354);
#231=LINE('',#1608,#355);
#232=LINE('',#1610,#356);
#233=LINE('',#1611,#357);
#234=LINE('',#1613,#358);
#235=LINE('',#1615,#359);
#236=LINE('',#1618,#360);
#237=LINE('',#1619,#361);
#238=LINE('',#1622,#362);
#239=LINE('',#1623,#363);
#240=LINE('',#1626,#364);
#241=LINE('',#1627,#365);
#242=LINE('',#1630,#366);
#243=LINE('',#1632,#367);
#244=LINE('',#1634,#368);
#245=LINE('',#1636,#369);
#246=LINE('',#1637,#370);
#247=LINE('',#1640,#371);
#248=LINE('',#1644,#372);
#249=LINE('',#1648,#373);
#250=LINE('',#1652,#374);
#251=LINE('',#1656,#375);
#252=LINE('',#1660,#376);
#253=LINE('',#1664,#377);
#254=LINE('',#1668,#378);
#255=LINE('',#1672,#379);
#256=LINE('',#1676,#380);
#257=LINE('',#1680,#381);
#258=LINE('',#1684,#382);
#259=LINE('',#1688,#383);
#260=LINE('',#1690,#384);
#261=LINE('',#1692,#385);
#262=LINE('',#1693,#386);
#263=LINE('',#1695,#387);
#264=LINE('',#1696,#388);
#265=LINE('',#1699,#389);
#266=LINE('',#1700,#390);
#267=LINE('',#1702,#391);
#268=LINE('',#1707,#392);
#269=LINE('',#1708,#393);
#270=LINE('',#1711,#394);
#271=LINE('',#1713,#395);
#272=LINE('',#1714,#396);
#273=LINE('',#1717,#397);
#274=LINE('',#1719,#398);
#275=LINE('',#1721,#399);
#276=LINE('',#1722,#400);
#277=LINE('',#1725,#401);
#278=LINE('',#1729,#402);
#279=LINE('',#1733,#403);
#280=LINE('',#1737,#404);
#281=LINE('',#1741,#405);
#282=LINE('',#1745,#406);
#283=LINE('',#1749,#407);
#284=LINE('',#1753,#408);
#285=LINE('',#1757,#409);
#286=LINE('',#1761,#410);
#287=LINE('',#1765,#411);
#288=LINE('',#1769,#412);
#289=LINE('',#1775,#413);
#290=LINE('',#1781,#414);
#291=LINE('',#1788,#415);
#292=LINE('',#1789,#416);
#293=LINE('',#1791,#417);
#294=LINE('',#1793,#418);
#295=LINE('',#1795,#419);
#296=LINE('',#1797,#420);
#297=LINE('',#1799,#421);
#298=LINE('',#1801,#422);
#299=LINE('',#1804,#423);
#300=LINE('',#1805,#424);
#301=LINE('',#1807,#425);
#302=LINE('',#1809,#426);
#303=LINE('',#1811,#427);
#304=LINE('',#1813,#428);
#305=LINE('',#1815,#429);
#306=LINE('',#1817,#430);
#307=LINE('',#1820,#431);
#308=LINE('',#1821,#432);
#309=LINE('',#1823,#433);
#310=LINE('',#1825,#434);
#311=LINE('',#1827,#435);
#312=LINE('',#1829,#436);
#313=LINE('',#1831,#437);
#314=LINE('',#1833,#438);
#315=LINE('',#1836,#439);
#316=LINE('',#1837,#440);
#317=LINE('',#1839,#441);
#318=LINE('',#1841,#442);
#319=LINE('',#1844,#443);
#320=LINE('',#1846,#444);
#321=LINE('',#1848,#445);
#322=VECTOR('',#1227,10.);
#323=VECTOR('',#1228,10.);
#324=VECTOR('',#1229,10.);
#325=VECTOR('',#1230,10.);
#326=VECTOR('',#1233,10.);
#327=VECTOR('',#1234,10.);
#328=VECTOR('',#1235,10.);
#329=VECTOR('',#1238,10.);
#330=VECTOR('',#1239,10.);
#331=VECTOR('',#1242,10.);
#332=VECTOR('',#1245,10.);
#333=VECTOR('',#1246,10.);
#334=VECTOR('',#1247,10.);
#335=VECTOR('',#1248,10.);
#336=VECTOR('',#1249,10.);
#337=VECTOR('',#1250,10.);
#338=VECTOR('',#1251,10.);
#339=VECTOR('',#1252,10.);
#340=VECTOR('',#1253,10.);
#341=VECTOR('',#1254,10.);
#342=VECTOR('',#1255,10.);
#343=VECTOR('',#1256,10.);
#344=VECTOR('',#1259,10.);
#345=VECTOR('',#1260,10.);
#346=VECTOR('',#1261,10.);
#347=VECTOR('',#1262,10.);
#348=VECTOR('',#1265,10.);
#349=VECTOR('',#1268,10.);
#350=VECTOR('',#1271,10.);
#351=VECTOR('',#1272,10.);
#352=VECTOR('',#1273,10.);
#353=VECTOR('',#1276,10.);
#354=VECTOR('',#1277,10.);
#355=VECTOR('',#1278,10.);
#356=VECTOR('',#1279,10.);
#357=VECTOR('',#1280,10.);
#358=VECTOR('',#1283,10.);
#359=VECTOR('',#1286,10.);
#360=VECTOR('',#1289,10.);
#361=VECTOR('',#1290,10.);
#362=VECTOR('',#1293,10.);
#363=VECTOR('',#1294,10.);
#364=VECTOR('',#1297,10.);
#365=VECTOR('',#1298,10.);
#366=VECTOR('',#1301,10.);
#367=VECTOR('',#1302,10.);
#368=VECTOR('',#1303,10.);
#369=VECTOR('',#1304,10.);
#370=VECTOR('',#1305,10.);
#371=VECTOR('',#1306,10.);
#372=VECTOR('',#1309,10.);
#373=VECTOR('',#1312,10.);
#374=VECTOR('',#1315,10.);
#375=VECTOR('',#1318,10.);
#376=VECTOR('',#1321,10.);
#377=VECTOR('',#1324,10.);
#378=VECTOR('',#1327,10.);
#379=VECTOR('',#1330,10.);
#380=VECTOR('',#1333,10.);
#381=VECTOR('',#1336,10.);
#382=VECTOR('',#1339,10.);
#383=VECTOR('',#1342,10.);
#384=VECTOR('',#1343,10.);
#385=VECTOR('',#1344,10.);
#386=VECTOR('',#1345,10.);
#387=VECTOR('',#1348,10.);
#388=VECTOR('',#1349,10.);
#389=VECTOR('',#1354,10.);
#390=VECTOR('',#1355,10.);
#391=VECTOR('',#1358,10.);
#392=VECTOR('',#1365,10.);
#393=VECTOR('',#1366,10.);
#394=VECTOR('',#1369,10.);
#395=VECTOR('',#1370,10.);
#396=VECTOR('',#1371,10.);
#397=VECTOR('',#1372,10.);
#398=VECTOR('',#1373,10.);
#399=VECTOR('',#1374,10.);
#400=VECTOR('',#1375,10.);
#401=VECTOR('',#1376,10.);
#402=VECTOR('',#1379,10.);
#403=VECTOR('',#1382,10.);
#404=VECTOR('',#1385,10.);
#405=VECTOR('',#1388,10.);
#406=VECTOR('',#1391,10.);
#407=VECTOR('',#1394,10.);
#408=VECTOR('',#1397,10.);
#409=VECTOR('',#1400,10.);
#410=VECTOR('',#1403,10.);
#411=VECTOR('',#1406,10.);
#412=VECTOR('',#1409,10.);
#413=VECTOR('',#1418,10.);
#414=VECTOR('',#1425,10.);
#415=VECTOR('',#1438,10.);
#416=VECTOR('',#1439,10.);
#417=VECTOR('',#1442,10.);
#418=VECTOR('',#1445,10.);
#419=VECTOR('',#1448,10.);
#420=VECTOR('',#1451,10.);
#421=VECTOR('',#1454,10.);
#422=VECTOR('',#1457,10.);
#423=VECTOR('',#1462,10.);
#424=VECTOR('',#1463,10.);
#425=VECTOR('',#1466,10.);
#426=VECTOR('',#1469,10.);
#427=VECTOR('',#1472,10.);
#428=VECTOR('',#1475,10.);
#429=VECTOR('',#1478,10.);
#430=VECTOR('',#1481,10.);
#431=VECTOR('',#1486,10.);
#432=VECTOR('',#1487,10.);
#433=VECTOR('',#1490,10.);
#434=VECTOR('',#1493,10.);
#435=VECTOR('',#1496,10.);
#436=VECTOR('',#1499,10.);
#437=VECTOR('',#1502,10.);
#438=VECTOR('',#1505,10.);
#439=VECTOR('',#1510,10.);
#440=VECTOR('',#1511,10.);
#441=VECTOR('',#1514,10.);
#442=VECTOR('',#1517,10.);
#443=VECTOR('',#1522,10.);
#444=VECTOR('',#1525,10.);
#445=VECTOR('',#1528,10.);
#446=VERTEX_POINT('',#1533);
#447=VERTEX_POINT('',#1534);
#448=VERTEX_POINT('',#1536);
#449=VERTEX_POINT('',#1538);
#450=VERTEX_POINT('',#1542);
#451=VERTEX_POINT('',#1544);
#452=VERTEX_POINT('',#1548);
#453=VERTEX_POINT('',#1549);
#454=VERTEX_POINT('',#1551);
#455=VERTEX_POINT('',#1553);
#456=VERTEX_POINT('',#1555);
#457=VERTEX_POINT('',#1557);
#458=VERTEX_POINT('',#1559);
#459=VERTEX_POINT('',#1561);
#460=VERTEX_POINT('',#1563);
#461=VERTEX_POINT('',#1565);
#462=VERTEX_POINT('',#1567);
#463=VERTEX_POINT('',#1569);
#464=VERTEX_POINT('',#1571);
#465=VERTEX_POINT('',#1573);
#466=VERTEX_POINT('',#1575);
#467=VERTEX_POINT('',#1578);
#468=VERTEX_POINT('',#1582);
#469=VERTEX_POINT('',#1584);
#470=VERTEX_POINT('',#1587);
#471=VERTEX_POINT('',#1589);
#472=VERTEX_POINT('',#1591);
#473=VERTEX_POINT('',#1593);
#474=VERTEX_POINT('',#1597);
#475=VERTEX_POINT('',#1599);
#476=VERTEX_POINT('',#1603);
#477=VERTEX_POINT('',#1605);
#478=VERTEX_POINT('',#1607);
#479=VERTEX_POINT('',#1609);
#480=VERTEX_POINT('',#1617);
#481=VERTEX_POINT('',#1621);
#482=VERTEX_POINT('',#1625);
#483=VERTEX_POINT('',#1629);
#484=VERTEX_POINT('',#1631);
#485=VERTEX_POINT('',#1633);
#486=VERTEX_POINT('',#1635);
#487=VERTEX_POINT('',#1638);
#488=VERTEX_POINT('',#1639);
#489=VERTEX_POINT('',#1641);
#490=VERTEX_POINT('',#1643);
#491=VERTEX_POINT('',#1645);
#492=VERTEX_POINT('',#1647);
#493=VERTEX_POINT('',#1649);
#494=VERTEX_POINT('',#1651);
#495=VERTEX_POINT('',#1654);
#496=VERTEX_POINT('',#1655);
#497=VERTEX_POINT('',#1657);
#498=VERTEX_POINT('',#1659);
#499=VERTEX_POINT('',#1661);
#500=VERTEX_POINT('',#1663);
#501=VERTEX_POINT('',#1665);
#502=VERTEX_POINT('',#1667);
#503=VERTEX_POINT('',#1670);
#504=VERTEX_POINT('',#1671);
#505=VERTEX_POINT('',#1673);
#506=VERTEX_POINT('',#1675);
#507=VERTEX_POINT('',#1677);
#508=VERTEX_POINT('',#1679);
#509=VERTEX_POINT('',#1681);
#510=VERTEX_POINT('',#1683);
#511=VERTEX_POINT('',#1686);
#512=VERTEX_POINT('',#1687);
#513=VERTEX_POINT('',#1689);
#514=VERTEX_POINT('',#1691);
#515=VERTEX_POINT('',#1706);
#516=VERTEX_POINT('',#1710);
#517=VERTEX_POINT('',#1712);
#518=VERTEX_POINT('',#1715);
#519=VERTEX_POINT('',#1716);
#520=VERTEX_POINT('',#1718);
#521=VERTEX_POINT('',#1720);
#522=VERTEX_POINT('',#1723);
#523=VERTEX_POINT('',#1724);
#524=VERTEX_POINT('',#1726);
#525=VERTEX_POINT('',#1728);
#526=VERTEX_POINT('',#1730);
#527=VERTEX_POINT('',#1732);
#528=VERTEX_POINT('',#1734);
#529=VERTEX_POINT('',#1736);
#530=VERTEX_POINT('',#1739);
#531=VERTEX_POINT('',#1740);
#532=VERTEX_POINT('',#1742);
#533=VERTEX_POINT('',#1744);
#534=VERTEX_POINT('',#1746);
#535=VERTEX_POINT('',#1748);
#536=VERTEX_POINT('',#1750);
#537=VERTEX_POINT('',#1752);
#538=VERTEX_POINT('',#1755);
#539=VERTEX_POINT('',#1756);
#540=VERTEX_POINT('',#1758);
#541=VERTEX_POINT('',#1760);
#542=VERTEX_POINT('',#1762);
#543=VERTEX_POINT('',#1764);
#544=VERTEX_POINT('',#1766);
#545=VERTEX_POINT('',#1768);
#546=VERTEX_POINT('',#1774);
#547=VERTEX_POINT('',#1778);
#548=VERTEX_POINT('',#1780);
#549=EDGE_CURVE('',#446,#447,#198,.T.);
#550=EDGE_CURVE('',#447,#448,#199,.T.);
#551=EDGE_CURVE('',#448,#449,#200,.T.);
#552=EDGE_CURVE('',#449,#446,#201,.T.);
#553=EDGE_CURVE('',#447,#450,#202,.T.);
#554=EDGE_CURVE('',#451,#450,#203,.T.);
#555=EDGE_CURVE('',#451,#448,#204,.T.);
#556=EDGE_CURVE('',#452,#453,#205,.T.);
#557=EDGE_CURVE('',#453,#454,#206,.T.);
#558=EDGE_CURVE('',#454,#455,#42,.T.);
#559=EDGE_CURVE('',#455,#456,#207,.T.);
#560=EDGE_CURVE('',#456,#457,#43,.T.);
#561=EDGE_CURVE('',#457,#458,#208,.T.);
#562=EDGE_CURVE('',#458,#459,#209,.T.);
#563=EDGE_CURVE('',#459,#460,#210,.T.);
#564=EDGE_CURVE('',#460,#461,#211,.T.);
#565=EDGE_CURVE('',#461,#462,#212,.T.);
#566=EDGE_CURVE('',#462,#463,#213,.T.);
#567=EDGE_CURVE('',#463,#464,#214,.T.);
#568=EDGE_CURVE('',#464,#465,#215,.T.);
#569=EDGE_CURVE('',#465,#466,#216,.T.);
#570=EDGE_CURVE('',#466,#451,#217,.T.);
#571=EDGE_CURVE('',#467,#450,#218,.T.);
#572=EDGE_CURVE('',#452,#467,#219,.T.);
#573=EDGE_CURVE('',#452,#468,#220,.T.);
#574=EDGE_CURVE('',#468,#469,#221,.T.);
#575=EDGE_CURVE('',#469,#459,#222,.T.);
#576=EDGE_CURVE('',#458,#470,#223,.T.);
#577=EDGE_CURVE('',#471,#470,#44,.T.);
#578=EDGE_CURVE('',#471,#472,#224,.T.);
#579=EDGE_CURVE('',#473,#472,#45,.T.);
#580=EDGE_CURVE('',#473,#453,#225,.T.);
#581=EDGE_CURVE('',#474,#446,#226,.T.);
#582=EDGE_CURVE('',#474,#475,#227,.T.);
#583=EDGE_CURVE('',#475,#467,#228,.T.);
#584=EDGE_CURVE('',#476,#460,#229,.T.);
#585=EDGE_CURVE('',#476,#477,#230,.T.);
#586=EDGE_CURVE('',#478,#477,#231,.T.);
#587=EDGE_CURVE('',#479,#478,#232,.T.);
#588=EDGE_CURVE('',#461,#479,#233,.T.);
#589=EDGE_CURVE('',#468,#475,#234,.T.);
#590=EDGE_CURVE('',#469,#476,#235,.T.);
#591=EDGE_CURVE('',#480,#479,#236,.T.);
#592=EDGE_CURVE('',#480,#462,#237,.T.);
#593=EDGE_CURVE('',#478,#481,#238,.T.);
#594=EDGE_CURVE('',#481,#480,#239,.T.);
#595=EDGE_CURVE('',#482,#477,#240,.T.);
#596=EDGE_CURVE('',#482,#481,#241,.T.);
#597=EDGE_CURVE('',#474,#483,#242,.T.);
#598=EDGE_CURVE('',#483,#484,#243,.T.);
#599=EDGE_CURVE('',#484,#485,#244,.T.);
#600=EDGE_CURVE('',#485,#486,#245,.T.);
#601=EDGE_CURVE('',#482,#486,#246,.T.);
#602=EDGE_CURVE('',#487,#488,#247,.T.);
#603=EDGE_CURVE('',#488,#489,#46,.T.);
#604=EDGE_CURVE('',#489,#490,#248,.T.);
#605=EDGE_CURVE('',#490,#491,#47,.T.);
#606=EDGE_CURVE('',#491,#492,#249,.T.);
#607=EDGE_CURVE('',#492,#493,#48,.T.);
#608=EDGE_CURVE('',#493,#494,#250,.T.);
#609=EDGE_CURVE('',#494,#487,#49,.T.);
#610=EDGE_CURVE('',#495,#496,#251,.T.);
#611=EDGE_CURVE('',#496,#497,#50,.T.);
#612=EDGE_CURVE('',#497,#498,#252,.T.);
#613=EDGE_CURVE('',#498,#499,#51,.T.);
#614=EDGE_CURVE('',#499,#500,#253,.T.);
#615=EDGE_CURVE('',#500,#501,#52,.T.);
#616=EDGE_CURVE('',#501,#502,#254,.T.);
#617=EDGE_CURVE('',#502,#495,#53,.T.);
#618=EDGE_CURVE('',#503,#504,#255,.T.);
#619=EDGE_CURVE('',#504,#505,#54,.T.);
#620=EDGE_CURVE('',#505,#506,#256,.T.);
#621=EDGE_CURVE('',#506,#507,#55,.T.);
#622=EDGE_CURVE('',#507,#508,#257,.T.);
#623=EDGE_CURVE('',#508,#509,#56,.T.);
#624=EDGE_CURVE('',#509,#510,#258,.T.);
#625=EDGE_CURVE('',#510,#503,#57,.T.);
#626=EDGE_CURVE('',#511,#512,#259,.T.);
#627=EDGE_CURVE('',#512,#513,#260,.T.);
#628=EDGE_CURVE('',#513,#514,#261,.T.);
#629=EDGE_CURVE('',#514,#511,#262,.T.);
#630=EDGE_CURVE('',#466,#449,#263,.T.);
#631=EDGE_CURVE('',#465,#483,#264,.T.);
#632=EDGE_CURVE('',#486,#462,#265,.T.);
#633=EDGE_CURVE('',#463,#485,#266,.T.);
#634=EDGE_CURVE('',#484,#464,#267,.T.);
#635=EDGE_CURVE('',#515,#473,#268,.T.);
#636=EDGE_CURVE('',#454,#515,#269,.T.);
#637=EDGE_CURVE('',#516,#471,#270,.T.);
#638=EDGE_CURVE('',#517,#516,#271,.T.);
#639=EDGE_CURVE('',#472,#517,#272,.T.);
#640=EDGE_CURVE('',#518,#519,#273,.T.);
#641=EDGE_CURVE('',#519,#520,#274,.T.);
#642=EDGE_CURVE('',#520,#521,#275,.T.);
#643=EDGE_CURVE('',#521,#518,#276,.T.);
#644=EDGE_CURVE('',#522,#523,#277,.T.);
#645=EDGE_CURVE('',#523,#524,#58,.T.);
#646=EDGE_CURVE('',#524,#525,#278,.T.);
#647=EDGE_CURVE('',#525,#526,#59,.T.);
#648=EDGE_CURVE('',#526,#527,#279,.T.);
#649=EDGE_CURVE('',#527,#528,#60,.T.);
#650=EDGE_CURVE('',#528,#529,#280,.T.);
#651=EDGE_CURVE('',#529,#522,#61,.T.);
#652=EDGE_CURVE('',#530,#531,#281,.T.);
#653=EDGE_CURVE('',#531,#532,#62,.T.);
#654=EDGE_CURVE('',#532,#533,#282,.T.);
#655=EDGE_CURVE('',#533,#534,#63,.T.);
#656=EDGE_CURVE('',#534,#535,#283,.T.);
#657=EDGE_CURVE('',#535,#536,#64,.T.);
#658=EDGE_CURVE('',#536,#537,#284,.T.);
#659=EDGE_CURVE('',#537,#530,#65,.T.);
#660=EDGE_CURVE('',#538,#539,#285,.T.);
#661=EDGE_CURVE('',#539,#540,#66,.T.);
#662=EDGE_CURVE('',#540,#541,#286,.T.);
#663=EDGE_CURVE('',#541,#542,#67,.T.);
#664=EDGE_CURVE('',#542,#543,#287,.T.);
#665=EDGE_CURVE('',#543,#544,#68,.T.);
#666=EDGE_CURVE('',#544,#545,#288,.T.);
#667=EDGE_CURVE('',#545,#538,#69,.T.);
#668=EDGE_CURVE('',#517,#515,#70,.F.);
#669=EDGE_CURVE('',#470,#546,#289,.T.);
#670=EDGE_CURVE('',#546,#516,#71,.F.);
#671=EDGE_CURVE('',#516,#547,#72,.F.);
#672=EDGE_CURVE('',#547,#548,#290,.T.);
#673=EDGE_CURVE('',#548,#517,#73,.F.);
#674=EDGE_CURVE('',#547,#546,#74,.F.);
#675=EDGE_CURVE('',#515,#548,#75,.F.);
#676=EDGE_CURVE('',#544,#506,#291,.T.);
#677=EDGE_CURVE('',#543,#507,#292,.T.);
#678=EDGE_CURVE('',#545,#505,#293,.T.);
#679=EDGE_CURVE('',#538,#504,#294,.T.);
#680=EDGE_CURVE('',#539,#503,#295,.T.);
#681=EDGE_CURVE('',#540,#510,#296,.T.);
#682=EDGE_CURVE('',#541,#509,#297,.T.);
#683=EDGE_CURVE('',#542,#508,#298,.T.);
#684=EDGE_CURVE('',#536,#498,#299,.T.);
#685=EDGE_CURVE('',#535,#499,#300,.T.);
#686=EDGE_CURVE('',#537,#497,#301,.T.);
#687=EDGE_CURVE('',#530,#496,#302,.T.);
#688=EDGE_CURVE('',#531,#495,#303,.T.);
#689=EDGE_CURVE('',#532,#502,#304,.T.);
#690=EDGE_CURVE('',#533,#501,#305,.T.);
#691=EDGE_CURVE('',#534,#500,#306,.T.);
#692=EDGE_CURVE('',#528,#490,#307,.T.);
#693=EDGE_CURVE('',#527,#491,#308,.T.);
#694=EDGE_CURVE('',#529,#489,#309,.T.);
#695=EDGE_CURVE('',#522,#488,#310,.T.);
#696=EDGE_CURVE('',#523,#487,#311,.T.);
#697=EDGE_CURVE('',#524,#494,#312,.T.);
#698=EDGE_CURVE('',#525,#493,#313,.T.);
#699=EDGE_CURVE('',#526,#492,#314,.T.);
#700=EDGE_CURVE('',#518,#512,#315,.T.);
#701=EDGE_CURVE('',#521,#513,#316,.T.);
#702=EDGE_CURVE('',#519,#511,#317,.T.);
#703=EDGE_CURVE('',#520,#514,#318,.T.);
#704=EDGE_CURVE('',#548,#455,#319,.T.);
#705=EDGE_CURVE('',#456,#547,#320,.T.);
#706=EDGE_CURVE('',#546,#457,#321,.T.);
#707=ORIENTED_EDGE('',*,*,#549,.T.);
#708=ORIENTED_EDGE('',*,*,#550,.T.);
#709=ORIENTED_EDGE('',*,*,#551,.T.);
#710=ORIENTED_EDGE('',*,*,#552,.T.);
#711=ORIENTED_EDGE('',*,*,#553,.T.);
#712=ORIENTED_EDGE('',*,*,#554,.F.);
#713=ORIENTED_EDGE('',*,*,#555,.T.);
#714=ORIENTED_EDGE('',*,*,#550,.F.);
#715=ORIENTED_EDGE('',*,*,#556,.T.);
#716=ORIENTED_EDGE('',*,*,#557,.T.);
#717=ORIENTED_EDGE('',*,*,#558,.T.);
#718=ORIENTED_EDGE('',*,*,#559,.T.);
#719=ORIENTED_EDGE('',*,*,#560,.T.);
#720=ORIENTED_EDGE('',*,*,#561,.T.);
#721=ORIENTED_EDGE('',*,*,#562,.T.);
#722=ORIENTED_EDGE('',*,*,#563,.T.);
#723=ORIENTED_EDGE('',*,*,#564,.T.);
#724=ORIENTED_EDGE('',*,*,#565,.T.);
#725=ORIENTED_EDGE('',*,*,#566,.T.);
#726=ORIENTED_EDGE('',*,*,#567,.T.);
#727=ORIENTED_EDGE('',*,*,#568,.T.);
#728=ORIENTED_EDGE('',*,*,#569,.T.);
#729=ORIENTED_EDGE('',*,*,#570,.T.);
#730=ORIENTED_EDGE('',*,*,#554,.T.);
#731=ORIENTED_EDGE('',*,*,#571,.F.);
#732=ORIENTED_EDGE('',*,*,#572,.F.);
#733=ORIENTED_EDGE('',*,*,#556,.F.);
#734=ORIENTED_EDGE('',*,*,#573,.T.);
#735=ORIENTED_EDGE('',*,*,#574,.T.);
#736=ORIENTED_EDGE('',*,*,#575,.T.);
#737=ORIENTED_EDGE('',*,*,#562,.F.);
#738=ORIENTED_EDGE('',*,*,#576,.T.);
#739=ORIENTED_EDGE('',*,*,#577,.F.);
#740=ORIENTED_EDGE('',*,*,#578,.T.);
#741=ORIENTED_EDGE('',*,*,#579,.F.);
#742=ORIENTED_EDGE('',*,*,#580,.T.);
#743=ORIENTED_EDGE('',*,*,#581,.F.);
#744=ORIENTED_EDGE('',*,*,#582,.T.);
#745=ORIENTED_EDGE('',*,*,#583,.T.);
#746=ORIENTED_EDGE('',*,*,#571,.T.);
#747=ORIENTED_EDGE('',*,*,#553,.F.);
#748=ORIENTED_EDGE('',*,*,#549,.F.);
#749=ORIENTED_EDGE('',*,*,#564,.F.);
#750=ORIENTED_EDGE('',*,*,#584,.F.);
#751=ORIENTED_EDGE('',*,*,#585,.T.);
#752=ORIENTED_EDGE('',*,*,#586,.F.);
#753=ORIENTED_EDGE('',*,*,#587,.F.);
#754=ORIENTED_EDGE('',*,*,#588,.F.);
#755=ORIENTED_EDGE('',*,*,#572,.T.);
#756=ORIENTED_EDGE('',*,*,#583,.F.);
#757=ORIENTED_EDGE('',*,*,#589,.F.);
#758=ORIENTED_EDGE('',*,*,#573,.F.);
#759=ORIENTED_EDGE('',*,*,#563,.F.);
#760=ORIENTED_EDGE('',*,*,#575,.F.);
#761=ORIENTED_EDGE('',*,*,#590,.T.);
#762=ORIENTED_EDGE('',*,*,#584,.T.);
#763=ORIENTED_EDGE('',*,*,#588,.T.);
#764=ORIENTED_EDGE('',*,*,#591,.F.);
#765=ORIENTED_EDGE('',*,*,#592,.T.);
#766=ORIENTED_EDGE('',*,*,#565,.F.);
#767=ORIENTED_EDGE('',*,*,#587,.T.);
#768=ORIENTED_EDGE('',*,*,#593,.T.);
#769=ORIENTED_EDGE('',*,*,#594,.T.);
#770=ORIENTED_EDGE('',*,*,#591,.T.);
#771=ORIENTED_EDGE('',*,*,#586,.T.);
#772=ORIENTED_EDGE('',*,*,#595,.F.);
#773=ORIENTED_EDGE('',*,*,#596,.T.);
#774=ORIENTED_EDGE('',*,*,#593,.F.);
#775=ORIENTED_EDGE('',*,*,#597,.T.);
#776=ORIENTED_EDGE('',*,*,#598,.T.);
#777=ORIENTED_EDGE('',*,*,#599,.T.);
#778=ORIENTED_EDGE('',*,*,#600,.T.);
#779=ORIENTED_EDGE('',*,*,#601,.F.);
#780=ORIENTED_EDGE('',*,*,#595,.T.);
#781=ORIENTED_EDGE('',*,*,#585,.F.);
#782=ORIENTED_EDGE('',*,*,#590,.F.);
#783=ORIENTED_EDGE('',*,*,#574,.F.);
#784=ORIENTED_EDGE('',*,*,#589,.T.);
#785=ORIENTED_EDGE('',*,*,#582,.F.);
#786=ORIENTED_EDGE('',*,*,#602,.T.);
#787=ORIENTED_EDGE('',*,*,#603,.T.);
#788=ORIENTED_EDGE('',*,*,#604,.T.);
#789=ORIENTED_EDGE('',*,*,#605,.T.);
#790=ORIENTED_EDGE('',*,*,#606,.T.);
#791=ORIENTED_EDGE('',*,*,#607,.T.);
#792=ORIENTED_EDGE('',*,*,#608,.T.);
#793=ORIENTED_EDGE('',*,*,#609,.T.);
#794=ORIENTED_EDGE('',*,*,#610,.T.);
#795=ORIENTED_EDGE('',*,*,#611,.T.);
#796=ORIENTED_EDGE('',*,*,#612,.T.);
#797=ORIENTED_EDGE('',*,*,#613,.T.);
#798=ORIENTED_EDGE('',*,*,#614,.T.);
#799=ORIENTED_EDGE('',*,*,#615,.T.);
#800=ORIENTED_EDGE('',*,*,#616,.T.);
#801=ORIENTED_EDGE('',*,*,#617,.T.);
#802=ORIENTED_EDGE('',*,*,#618,.T.);
#803=ORIENTED_EDGE('',*,*,#619,.T.);
#804=ORIENTED_EDGE('',*,*,#620,.T.);
#805=ORIENTED_EDGE('',*,*,#621,.T.);
#806=ORIENTED_EDGE('',*,*,#622,.T.);
#807=ORIENTED_EDGE('',*,*,#623,.T.);
#808=ORIENTED_EDGE('',*,*,#624,.T.);
#809=ORIENTED_EDGE('',*,*,#625,.T.);
#810=ORIENTED_EDGE('',*,*,#626,.T.);
#811=ORIENTED_EDGE('',*,*,#627,.T.);
#812=ORIENTED_EDGE('',*,*,#628,.T.);
#813=ORIENTED_EDGE('',*,*,#629,.T.);
#814=ORIENTED_EDGE('',*,*,#581,.T.);
#815=ORIENTED_EDGE('',*,*,#552,.F.);
#816=ORIENTED_EDGE('',*,*,#630,.F.);
#817=ORIENTED_EDGE('',*,*,#569,.F.);
#818=ORIENTED_EDGE('',*,*,#631,.T.);
#819=ORIENTED_EDGE('',*,*,#597,.F.);
#820=ORIENTED_EDGE('',*,*,#570,.F.);
#821=ORIENTED_EDGE('',*,*,#630,.T.);
#822=ORIENTED_EDGE('',*,*,#551,.F.);
#823=ORIENTED_EDGE('',*,*,#555,.F.);
#824=ORIENTED_EDGE('',*,*,#566,.F.);
#825=ORIENTED_EDGE('',*,*,#632,.F.);
#826=ORIENTED_EDGE('',*,*,#600,.F.);
#827=ORIENTED_EDGE('',*,*,#633,.F.);
#828=ORIENTED_EDGE('',*,*,#634,.T.);
#829=ORIENTED_EDGE('',*,*,#567,.F.);
#830=ORIENTED_EDGE('',*,*,#633,.T.);
#831=ORIENTED_EDGE('',*,*,#599,.F.);
#832=ORIENTED_EDGE('',*,*,#596,.F.);
#833=ORIENTED_EDGE('',*,*,#601,.T.);
#834=ORIENTED_EDGE('',*,*,#632,.T.);
#835=ORIENTED_EDGE('',*,*,#592,.F.);
#836=ORIENTED_EDGE('',*,*,#594,.F.);
#837=ORIENTED_EDGE('',*,*,#568,.F.);
#838=ORIENTED_EDGE('',*,*,#634,.F.);
#839=ORIENTED_EDGE('',*,*,#598,.F.);
#840=ORIENTED_EDGE('',*,*,#631,.F.);
#841=ORIENTED_EDGE('',*,*,#557,.F.);
#842=ORIENTED_EDGE('',*,*,#580,.F.);
#843=ORIENTED_EDGE('',*,*,#635,.F.);
#844=ORIENTED_EDGE('',*,*,#636,.F.);
#845=ORIENTED_EDGE('',*,*,#637,.F.);
#846=ORIENTED_EDGE('',*,*,#638,.F.);
#847=ORIENTED_EDGE('',*,*,#639,.F.);
#848=ORIENTED_EDGE('',*,*,#578,.F.);
#849=ORIENTED_EDGE('',*,*,#640,.T.);
#850=ORIENTED_EDGE('',*,*,#641,.T.);
#851=ORIENTED_EDGE('',*,*,#642,.T.);
#852=ORIENTED_EDGE('',*,*,#643,.T.);
#853=ORIENTED_EDGE('',*,*,#644,.T.);
#854=ORIENTED_EDGE('',*,*,#645,.T.);
#855=ORIENTED_EDGE('',*,*,#646,.T.);
#856=ORIENTED_EDGE('',*,*,#647,.T.);
#857=ORIENTED_EDGE('',*,*,#648,.T.);
#858=ORIENTED_EDGE('',*,*,#649,.T.);
#859=ORIENTED_EDGE('',*,*,#650,.T.);
#860=ORIENTED_EDGE('',*,*,#651,.T.);
#861=ORIENTED_EDGE('',*,*,#652,.T.);
#862=ORIENTED_EDGE('',*,*,#653,.T.);
#863=ORIENTED_EDGE('',*,*,#654,.T.);
#864=ORIENTED_EDGE('',*,*,#655,.T.);
#865=ORIENTED_EDGE('',*,*,#656,.T.);
#866=ORIENTED_EDGE('',*,*,#657,.T.);
#867=ORIENTED_EDGE('',*,*,#658,.T.);
#868=ORIENTED_EDGE('',*,*,#659,.T.);
#869=ORIENTED_EDGE('',*,*,#660,.T.);
#870=ORIENTED_EDGE('',*,*,#661,.T.);
#871=ORIENTED_EDGE('',*,*,#662,.T.);
#872=ORIENTED_EDGE('',*,*,#663,.T.);
#873=ORIENTED_EDGE('',*,*,#664,.T.);
#874=ORIENTED_EDGE('',*,*,#665,.T.);
#875=ORIENTED_EDGE('',*,*,#666,.T.);
#876=ORIENTED_EDGE('',*,*,#667,.T.);
#877=ORIENTED_EDGE('',*,*,#579,.T.);
#878=ORIENTED_EDGE('',*,*,#639,.T.);
#879=ORIENTED_EDGE('',*,*,#668,.T.);
#880=ORIENTED_EDGE('',*,*,#635,.T.);
#881=ORIENTED_EDGE('',*,*,#577,.T.);
#882=ORIENTED_EDGE('',*,*,#669,.T.);
#883=ORIENTED_EDGE('',*,*,#670,.T.);
#884=ORIENTED_EDGE('',*,*,#637,.T.);
#885=ORIENTED_EDGE('',*,*,#671,.T.);
#886=ORIENTED_EDGE('',*,*,#672,.T.);
#887=ORIENTED_EDGE('',*,*,#673,.T.);
#888=ORIENTED_EDGE('',*,*,#638,.T.);
#889=ORIENTED_EDGE('',*,*,#670,.F.);
#890=ORIENTED_EDGE('',*,*,#674,.F.);
#891=ORIENTED_EDGE('',*,*,#671,.F.);
#892=ORIENTED_EDGE('',*,*,#668,.F.);
#893=ORIENTED_EDGE('',*,*,#673,.F.);
#894=ORIENTED_EDGE('',*,*,#675,.F.);
#895=ORIENTED_EDGE('',*,*,#621,.F.);
#896=ORIENTED_EDGE('',*,*,#676,.F.);
#897=ORIENTED_EDGE('',*,*,#665,.F.);
#898=ORIENTED_EDGE('',*,*,#677,.T.);
#899=ORIENTED_EDGE('',*,*,#620,.F.);
#900=ORIENTED_EDGE('',*,*,#678,.F.);
#901=ORIENTED_EDGE('',*,*,#666,.F.);
#902=ORIENTED_EDGE('',*,*,#676,.T.);
#903=ORIENTED_EDGE('',*,*,#619,.F.);
#904=ORIENTED_EDGE('',*,*,#679,.F.);
#905=ORIENTED_EDGE('',*,*,#667,.F.);
#906=ORIENTED_EDGE('',*,*,#678,.T.);
#907=ORIENTED_EDGE('',*,*,#618,.F.);
#908=ORIENTED_EDGE('',*,*,#680,.F.);
#909=ORIENTED_EDGE('',*,*,#660,.F.);
#910=ORIENTED_EDGE('',*,*,#679,.T.);
#911=ORIENTED_EDGE('',*,*,#625,.F.);
#912=ORIENTED_EDGE('',*,*,#681,.F.);
#913=ORIENTED_EDGE('',*,*,#661,.F.);
#914=ORIENTED_EDGE('',*,*,#680,.T.);
#915=ORIENTED_EDGE('',*,*,#624,.F.);
#916=ORIENTED_EDGE('',*,*,#682,.F.);
#917=ORIENTED_EDGE('',*,*,#662,.F.);
#918=ORIENTED_EDGE('',*,*,#681,.T.);
#919=ORIENTED_EDGE('',*,*,#623,.F.);
#920=ORIENTED_EDGE('',*,*,#683,.F.);
#921=ORIENTED_EDGE('',*,*,#663,.F.);
#922=ORIENTED_EDGE('',*,*,#682,.T.);
#923=ORIENTED_EDGE('',*,*,#622,.F.);
#924=ORIENTED_EDGE('',*,*,#677,.F.);
#925=ORIENTED_EDGE('',*,*,#664,.F.);
#926=ORIENTED_EDGE('',*,*,#683,.T.);
#927=ORIENTED_EDGE('',*,*,#613,.F.);
#928=ORIENTED_EDGE('',*,*,#684,.F.);
#929=ORIENTED_EDGE('',*,*,#657,.F.);
#930=ORIENTED_EDGE('',*,*,#685,.T.);
#931=ORIENTED_EDGE('',*,*,#612,.F.);
#932=ORIENTED_EDGE('',*,*,#686,.F.);
#933=ORIENTED_EDGE('',*,*,#658,.F.);
#934=ORIENTED_EDGE('',*,*,#684,.T.);
#935=ORIENTED_EDGE('',*,*,#611,.F.);
#936=ORIENTED_EDGE('',*,*,#687,.F.);
#937=ORIENTED_EDGE('',*,*,#659,.F.);
#938=ORIENTED_EDGE('',*,*,#686,.T.);
#939=ORIENTED_EDGE('',*,*,#610,.F.);
#940=ORIENTED_EDGE('',*,*,#688,.F.);
#941=ORIENTED_EDGE('',*,*,#652,.F.);
#942=ORIENTED_EDGE('',*,*,#687,.T.);
#943=ORIENTED_EDGE('',*,*,#617,.F.);
#944=ORIENTED_EDGE('',*,*,#689,.F.);
#945=ORIENTED_EDGE('',*,*,#653,.F.);
#946=ORIENTED_EDGE('',*,*,#688,.T.);
#947=ORIENTED_EDGE('',*,*,#616,.F.);
#948=ORIENTED_EDGE('',*,*,#690,.F.);
#949=ORIENTED_EDGE('',*,*,#654,.F.);
#950=ORIENTED_EDGE('',*,*,#689,.T.);
#951=ORIENTED_EDGE('',*,*,#615,.F.);
#952=ORIENTED_EDGE('',*,*,#691,.F.);
#953=ORIENTED_EDGE('',*,*,#655,.F.);
#954=ORIENTED_EDGE('',*,*,#690,.T.);
#955=ORIENTED_EDGE('',*,*,#614,.F.);
#956=ORIENTED_EDGE('',*,*,#685,.F.);
#957=ORIENTED_EDGE('',*,*,#656,.F.);
#958=ORIENTED_EDGE('',*,*,#691,.T.);
#959=ORIENTED_EDGE('',*,*,#605,.F.);
#960=ORIENTED_EDGE('',*,*,#692,.F.);
#961=ORIENTED_EDGE('',*,*,#649,.F.);
#962=ORIENTED_EDGE('',*,*,#693,.T.);
#963=ORIENTED_EDGE('',*,*,#604,.F.);
#964=ORIENTED_EDGE('',*,*,#694,.F.);
#965=ORIENTED_EDGE('',*,*,#650,.F.);
#966=ORIENTED_EDGE('',*,*,#692,.T.);
#967=ORIENTED_EDGE('',*,*,#603,.F.);
#968=ORIENTED_EDGE('',*,*,#695,.F.);
#969=ORIENTED_EDGE('',*,*,#651,.F.);
#970=ORIENTED_EDGE('',*,*,#694,.T.);
#971=ORIENTED_EDGE('',*,*,#602,.F.);
#972=ORIENTED_EDGE('',*,*,#696,.F.);
#973=ORIENTED_EDGE('',*,*,#644,.F.);
#974=ORIENTED_EDGE('',*,*,#695,.T.);
#975=ORIENTED_EDGE('',*,*,#609,.F.);
#976=ORIENTED_EDGE('',*,*,#697,.F.);
#977=ORIENTED_EDGE('',*,*,#645,.F.);
#978=ORIENTED_EDGE('',*,*,#696,.T.);
#979=ORIENTED_EDGE('',*,*,#608,.F.);
#980=ORIENTED_EDGE('',*,*,#698,.F.);
#981=ORIENTED_EDGE('',*,*,#646,.F.);
#982=ORIENTED_EDGE('',*,*,#697,.T.);
#983=ORIENTED_EDGE('',*,*,#607,.F.);
#984=ORIENTED_EDGE('',*,*,#699,.F.);
#985=ORIENTED_EDGE('',*,*,#647,.F.);
#986=ORIENTED_EDGE('',*,*,#698,.T.);
#987=ORIENTED_EDGE('',*,*,#606,.F.);
#988=ORIENTED_EDGE('',*,*,#693,.F.);
#989=ORIENTED_EDGE('',*,*,#648,.F.);
#990=ORIENTED_EDGE('',*,*,#699,.T.);
#991=ORIENTED_EDGE('',*,*,#627,.F.);
#992=ORIENTED_EDGE('',*,*,#700,.F.);
#993=ORIENTED_EDGE('',*,*,#643,.F.);
#994=ORIENTED_EDGE('',*,*,#701,.T.);
#995=ORIENTED_EDGE('',*,*,#626,.F.);
#996=ORIENTED_EDGE('',*,*,#702,.F.);
#997=ORIENTED_EDGE('',*,*,#640,.F.);
#998=ORIENTED_EDGE('',*,*,#700,.T.);
#999=ORIENTED_EDGE('',*,*,#629,.F.);
#1000=ORIENTED_EDGE('',*,*,#703,.F.);
#1001=ORIENTED_EDGE('',*,*,#641,.F.);
#1002=ORIENTED_EDGE('',*,*,#702,.T.);
#1003=ORIENTED_EDGE('',*,*,#628,.F.);
#1004=ORIENTED_EDGE('',*,*,#701,.F.);
#1005=ORIENTED_EDGE('',*,*,#642,.F.);
#1006=ORIENTED_EDGE('',*,*,#703,.T.);
#1007=ORIENTED_EDGE('',*,*,#558,.F.);
#1008=ORIENTED_EDGE('',*,*,#636,.T.);
#1009=ORIENTED_EDGE('',*,*,#675,.T.);
#1010=ORIENTED_EDGE('',*,*,#704,.T.);
#1011=ORIENTED_EDGE('',*,*,#559,.F.);
#1012=ORIENTED_EDGE('',*,*,#704,.F.);
#1013=ORIENTED_EDGE('',*,*,#672,.F.);
#1014=ORIENTED_EDGE('',*,*,#705,.F.);
#1015=ORIENTED_EDGE('',*,*,#560,.F.);
#1016=ORIENTED_EDGE('',*,*,#705,.T.);
#1017=ORIENTED_EDGE('',*,*,#674,.T.);
#1018=ORIENTED_EDGE('',*,*,#706,.T.);
#1019=ORIENTED_EDGE('',*,*,#561,.F.);
#1020=ORIENTED_EDGE('',*,*,#706,.F.);
#1021=ORIENTED_EDGE('',*,*,#669,.F.);
#1022=ORIENTED_EDGE('',*,*,#576,.F.);
#1023=PLANE('',#1132);
#1024=PLANE('',#1133);
#1025=PLANE('',#1134);
#1026=PLANE('',#1137);
#1027=PLANE('',#1140);
#1028=PLANE('',#1141);
#1029=PLANE('',#1142);
#1030=PLANE('',#1143);
#1031=PLANE('',#1144);
#1032=PLANE('',#1145);
#1033=PLANE('',#1146);
#1034=PLANE('',#1147);
#1035=PLANE('',#1160);
#1036=PLANE('',#1161);
#1037=PLANE('',#1162);
#1038=PLANE('',#1163);
#1039=PLANE('',#1164);
#1040=PLANE('',#1165);
#1041=PLANE('',#1166);
#1042=PLANE('',#1167);
#1043=PLANE('',#1192);
#1044=PLANE('',#1194);
#1045=PLANE('',#1196);
#1046=PLANE('',#1198);
#1047=PLANE('',#1200);
#1048=PLANE('',#1202);
#1049=PLANE('',#1204);
#1050=PLANE('',#1206);
#1051=PLANE('',#1208);
#1052=PLANE('',#1210);
#1053=PLANE('',#1212);
#1054=PLANE('',#1214);
#1055=PLANE('',#1215);
#1056=PLANE('',#1216);
#1057=PLANE('',#1217);
#1058=PLANE('',#1218);
#1059=PLANE('',#1220);
#1060=PLANE('',#1222);
#1061=ADVANCED_FACE('',(#76),#1023,.T.);
#1062=ADVANCED_FACE('',(#77),#1024,.T.);
#1063=ADVANCED_FACE('',(#78),#1025,.T.);
#1064=ADVANCED_FACE('',(#79),#1026,.T.);
#1065=ADVANCED_FACE('',(#80),#1027,.F.);
#1066=ADVANCED_FACE('',(#81),#1028,.F.);
#1067=ADVANCED_FACE('',(#82),#1029,.F.);
#1068=ADVANCED_FACE('',(#83),#1030,.F.);
#1069=ADVANCED_FACE('',(#84),#1031,.T.);
#1070=ADVANCED_FACE('',(#85),#1032,.T.);
#1071=ADVANCED_FACE('',(#86),#1033,.T.);
#1072=ADVANCED_FACE('',(#87,#34,#35,#36,#37),#1034,.F.);
#1073=ADVANCED_FACE('',(#88),#1035,.T.);
#1074=ADVANCED_FACE('',(#89),#1036,.T.);
#1075=ADVANCED_FACE('',(#90),#1037,.F.);
#1076=ADVANCED_FACE('',(#91),#1038,.F.);
#1077=ADVANCED_FACE('',(#92),#1039,.F.);
#1078=ADVANCED_FACE('',(#93),#1040,.F.);
#1079=ADVANCED_FACE('',(#94),#1041,.T.);
#1080=ADVANCED_FACE('',(#95,#38,#39,#40,#41),#1042,.T.);
#1081=ADVANCED_FACE('',(#96),#17,.T.);
#1082=ADVANCED_FACE('',(#97),#18,.T.);
#1083=ADVANCED_FACE('',(#98),#19,.T.);
#1084=ADVANCED_FACE('',(#99),#15,.T.);
#1085=ADVANCED_FACE('',(#100),#16,.T.);
#1086=ADVANCED_FACE('',(#101),#20,.F.);
#1087=ADVANCED_FACE('',(#102),#1043,.F.);
#1088=ADVANCED_FACE('',(#103),#21,.F.);
#1089=ADVANCED_FACE('',(#104),#1044,.F.);
#1090=ADVANCED_FACE('',(#105),#22,.F.);
#1091=ADVANCED_FACE('',(#106),#1045,.F.);
#1092=ADVANCED_FACE('',(#107),#23,.F.);
#1093=ADVANCED_FACE('',(#108),#1046,.F.);
#1094=ADVANCED_FACE('',(#109),#24,.F.);
#1095=ADVANCED_FACE('',(#110),#1047,.F.);
#1096=ADVANCED_FACE('',(#111),#25,.F.);
#1097=ADVANCED_FACE('',(#112),#1048,.F.);
#1098=ADVANCED_FACE('',(#113),#26,.F.);
#1099=ADVANCED_FACE('',(#114),#1049,.F.);
#1100=ADVANCED_FACE('',(#115),#27,.F.);
#1101=ADVANCED_FACE('',(#116),#1050,.F.);
#1102=ADVANCED_FACE('',(#117),#28,.F.);
#1103=ADVANCED_FACE('',(#118),#1051,.F.);
#1104=ADVANCED_FACE('',(#119),#29,.F.);
#1105=ADVANCED_FACE('',(#120),#1052,.F.);
#1106=ADVANCED_FACE('',(#121),#30,.F.);
#1107=ADVANCED_FACE('',(#122),#1053,.F.);
#1108=ADVANCED_FACE('',(#123),#31,.F.);
#1109=ADVANCED_FACE('',(#124),#1054,.F.);
#1110=ADVANCED_FACE('',(#125),#1055,.F.);
#1111=ADVANCED_FACE('',(#126),#1056,.F.);
#1112=ADVANCED_FACE('',(#127),#1057,.F.);
#1113=ADVANCED_FACE('',(#128),#1058,.F.);
#1114=ADVANCED_FACE('',(#129),#32,.T.);
#1115=ADVANCED_FACE('',(#130),#1059,.F.);
#1116=ADVANCED_FACE('',(#131),#33,.T.);
#1117=ADVANCED_FACE('',(#132),#1060,.T.);
#1118=CLOSED_SHELL('',(#1061,#1062,#1063,#1064,#1065,#1066,#1067,#1068,
#1069,#1070,#1071,#1072,#1073,#1074,#1075,#1076,#1077,#1078,#1079,#1080,
#1081,#1082,#1083,#1084,#1085,#1086,#1087,#1088,#1089,#1090,#1091,#1092,
#1093,#1094,#1095,#1096,#1097,#1098,#1099,#1100,#1101,#1102,#1103,#1104,
#1105,#1106,#1107,#1108,#1109,#1110,#1111,#1112,#1113,#1114,#1115,#1116,
#1117));
#1119=DERIVED_UNIT_ELEMENT(#1121,1.);
#1120=DERIVED_UNIT_ELEMENT(#1855,-3.);
#1121=(
MASS_UNIT()
NAMED_UNIT(*)
SI_UNIT(.KILO.,.GRAM.)
);
#1122=DERIVED_UNIT((#1119,#1120));
#1123=MEASURE_REPRESENTATION_ITEM('density measure',
POSITIVE_RATIO_MEASURE(7850.),#1122);
#1124=PROPERTY_DEFINITION_REPRESENTATION(#1129,#1126);
#1125=PROPERTY_DEFINITION_REPRESENTATION(#1130,#1127);
#1126=REPRESENTATION('material name',(#1128),#1852);
#1127=REPRESENTATION('density',(#1123),#1852);
#1128=DESCRIPTIVE_REPRESENTATION_ITEM('Stahl','Stahl');
#1129=PROPERTY_DEFINITION('material property','material name',#1862);
#1130=PROPERTY_DEFINITION('material property','density of part',#1862);
#1131=AXIS2_PLACEMENT_3D('',#1531,#1223,#1224);
#1132=AXIS2_PLACEMENT_3D('',#1532,#1225,#1226);
#1133=AXIS2_PLACEMENT_3D('',#1541,#1231,#1232);
#1134=AXIS2_PLACEMENT_3D('',#1547,#1236,#1237);
#1135=AXIS2_PLACEMENT_3D('',#1554,#1240,#1241);
#1136=AXIS2_PLACEMENT_3D('',#1558,#1243,#1244);
#1137=AXIS2_PLACEMENT_3D('',#1581,#1257,#1258);
#1138=AXIS2_PLACEMENT_3D('',#1590,#1263,#1264);
#1139=AXIS2_PLACEMENT_3D('',#1594,#1266,#1267);
#1140=AXIS2_PLACEMENT_3D('',#1596,#1269,#1270);
#1141=AXIS2_PLACEMENT_3D('',#1602,#1274,#1275);
#1142=AXIS2_PLACEMENT_3D('',#1612,#1281,#1282);
#1143=AXIS2_PLACEMENT_3D('',#1614,#1284,#1285);
#1144=AXIS2_PLACEMENT_3D('',#1616,#1287,#1288);
#1145=AXIS2_PLACEMENT_3D('',#1620,#1291,#1292);
#1146=AXIS2_PLACEMENT_3D('',#1624,#1295,#1296);
#1147=AXIS2_PLACEMENT_3D('',#1628,#1299,#1300);
#1148=AXIS2_PLACEMENT_3D('',#1642,#1307,#1308);
#1149=AXIS2_PLACEMENT_3D('',#1646,#1310,#1311);
#1150=AXIS2_PLACEMENT_3D('',#1650,#1313,#1314);
#1151=AXIS2_PLACEMENT_3D('',#1653,#1316,#1317);
#1152=AXIS2_PLACEMENT_3D('',#1658,#1319,#1320);
#1153=AXIS2_PLACEMENT_3D('',#1662,#1322,#1323);
#1154=AXIS2_PLACEMENT_3D('',#1666,#1325,#1326);
#1155=AXIS2_PLACEMENT_3D('',#1669,#1328,#1329);
#1156=AXIS2_PLACEMENT_3D('',#1674,#1331,#1332);
#1157=AXIS2_PLACEMENT_3D('',#1678,#1334,#1335);
#1158=AXIS2_PLACEMENT_3D('',#1682,#1337,#1338);
#1159=AXIS2_PLACEMENT_3D('',#1685,#1340,#1341);
#1160=AXIS2_PLACEMENT_3D('',#1694,#1346,#1347);
#1161=AXIS2_PLACEMENT_3D('',#1697,#1350,#1351);
#1162=AXIS2_PLACEMENT_3D('',#1698,#1352,#1353);
#1163=AXIS2_PLACEMENT_3D('',#1701,#1356,#1357);
#1164=AXIS2_PLACEMENT_3D('',#1703,#1359,#1360);
#1165=AXIS2_PLACEMENT_3D('',#1704,#1361,#1362);
#1166=AXIS2_PLACEMENT_3D('',#1705,#1363,#1364);
#1167=AXIS2_PLACEMENT_3D('',#1709,#1367,#1368);
#1168=AXIS2_PLACEMENT_3D('',#1727,#1377,#1378);
#1169=AXIS2_PLACEMENT_3D('',#1731,#1380,#1381);
#1170=AXIS2_PLACEMENT_3D('',#1735,#1383,#1384);
#1171=AXIS2_PLACEMENT_3D('',#1738,#1386,#1387);
#1172=AXIS2_PLACEMENT_3D('',#1743,#1389,#1390);
#1173=AXIS2_PLACEMENT_3D('',#1747,#1392,#1393);
#1174=AXIS2_PLACEMENT_3D('',#1751,#1395,#1396);
#1175=AXIS2_PLACEMENT_3D('',#1754,#1398,#1399);
#1176=AXIS2_PLACEMENT_3D('',#1759,#1401,#1402);
#1177=AXIS2_PLACEMENT_3D('',#1763,#1404,#1405);
#1178=AXIS2_PLACEMENT_3D('',#1767,#1407,#1408);
#1179=AXIS2_PLACEMENT_3D('',#1770,#1410,#1411);
#1180=AXIS2_PLACEMENT_3D('',#1771,#1412,#1413);
#1181=AXIS2_PLACEMENT_3D('',#1772,#1414,#1415);
#1182=AXIS2_PLACEMENT_3D('',#1773,#1416,#1417);
#1183=AXIS2_PLACEMENT_3D('',#1776,#1419,#1420);
#1184=AXIS2_PLACEMENT_3D('',#1777,#1421,#1422);
#1185=AXIS2_PLACEMENT_3D('',#1779,#1423,#1424);
#1186=AXIS2_PLACEMENT_3D('',#1782,#1426,#1427);
#1187=AXIS2_PLACEMENT_3D('',#1783,#1428,#1429);
#1188=AXIS2_PLACEMENT_3D('',#1784,#1430,#1431);
#1189=AXIS2_PLACEMENT_3D('',#1785,#1432,#1433);
#1190=AXIS2_PLACEMENT_3D('',#1786,#1434,#1435);
#1191=AXIS2_PLACEMENT_3D('',#1787,#1436,#1437);
#1192=AXIS2_PLACEMENT_3D('',#1790,#1440,#1441);
#1193=AXIS2_PLACEMENT_3D('',#1792,#1443,#1444);
#1194=AXIS2_PLACEMENT_3D('',#1794,#1446,#1447);
#1195=AXIS2_PLACEMENT_3D('',#1796,#1449,#1450);
#1196=AXIS2_PLACEMENT_3D('',#1798,#1452,#1453);
#1197=AXIS2_PLACEMENT_3D('',#1800,#1455,#1456);
#1198=AXIS2_PLACEMENT_3D('',#1802,#1458,#1459);
#1199=AXIS2_PLACEMENT_3D('',#1803,#1460,#1461);
#1200=AXIS2_PLACEMENT_3D('',#1806,#1464,#1465);
#1201=AXIS2_PLACEMENT_3D('',#1808,#1467,#1468);
#1202=AXIS2_PLACEMENT_3D('',#1810,#1470,#1471);
#1203=AXIS2_PLACEMENT_3D('',#1812,#1473,#1474);
#1204=AXIS2_PLACEMENT_3D('',#1814,#1476,#1477);
#1205=AXIS2_PLACEMENT_3D('',#1816,#1479,#1480);
#1206=AXIS2_PLACEMENT_3D('',#1818,#1482,#1483);
#1207=AXIS2_PLACEMENT_3D('',#1819,#1484,#1485);
#1208=AXIS2_PLACEMENT_3D('',#1822,#1488,#1489);
#1209=AXIS2_PLACEMENT_3D('',#1824,#1491,#1492);
#1210=AXIS2_PLACEMENT_3D('',#1826,#1494,#1495);
#1211=AXIS2_PLACEMENT_3D('',#1828,#1497,#1498);
#1212=AXIS2_PLACEMENT_3D('',#1830,#1500,#1501);
#1213=AXIS2_PLACEMENT_3D('',#1832,#1503,#1504);
#1214=AXIS2_PLACEMENT_3D('',#1834,#1506,#1507);
#1215=AXIS2_PLACEMENT_3D('',#1835,#1508,#1509);
#1216=AXIS2_PLACEMENT_3D('',#1838,#1512,#1513);
#1217=AXIS2_PLACEMENT_3D('',#1840,#1515,#1516);
#1218=AXIS2_PLACEMENT_3D('',#1842,#1518,#1519);
#1219=AXIS2_PLACEMENT_3D('',#1843,#1520,#1521);
#1220=AXIS2_PLACEMENT_3D('',#1845,#1523,#1524);
#1221=AXIS2_PLACEMENT_3D('',#1847,#1526,#1527);
#1222=AXIS2_PLACEMENT_3D('',#1849,#1529,#1530);
#1223=DIRECTION('axis',(0.,0.,1.));
#1224=DIRECTION('refdir',(1.,0.,0.));
#1225=DIRECTION('center_axis',(0.,0.,-1.));
#1226=DIRECTION('ref_axis',(-1.,0.,0.));
#1227=DIRECTION('',(1.,9.15647855360954E-17,0.));
#1228=DIRECTION('',(1.53134210293125E-16,-1.,0.));
#1229=DIRECTION('',(-1.,0.,0.));
#1230=DIRECTION('',(-4.44089209850062E-15,1.,0.));
#1231=DIRECTION('center_axis',(1.,1.53134210293125E-16,0.));
#1232=DIRECTION('ref_axis',(1.53134210293125E-16,-1.,0.));
#1233=DIRECTION('',(0.,0.,1.));
#1234=DIRECTION('',(-1.53134210293125E-16,1.,0.));
#1235=DIRECTION('',(0.,0.,-1.));
#1236=DIRECTION('center_axis',(0.,0.,-1.));
#1237=DIRECTION('ref_axis',(-1.,0.,0.));
#1238=DIRECTION('',(1.,0.,0.));
#1239=DIRECTION('',(0.,-1.,0.));
#1240=DIRECTION('center_axis',(0.,0.,-1.));
#1241=DIRECTION('ref_axis',(0.707106781186547,-0.707106781186547,0.));
#1242=DIRECTION('',(-1.,0.,0.));
#1243=DIRECTION('center_axis',(0.,0.,-1.));
#1244=DIRECTION('ref_axis',(-0.707106781186547,-0.707106781186547,0.));
#1245=DIRECTION('',(0.,1.,0.));
#1246=DIRECTION('',(1.,0.,0.));
#1247=DIRECTION('',(0.,-1.,0.));
#1248=DIRECTION('',(1.,9.15647855360954E-17,0.));
#1249=DIRECTION('',(0.,-1.,0.));
#1250=DIRECTION('',(0.,-1.,0.));
#1251=DIRECTION('',(1.,0.,0.));
#1252=DIRECTION('',(1.,0.,0.));
#1253=DIRECTION('',(0.,1.,0.));
#1254=DIRECTION('',(1.,0.,0.));
#1255=DIRECTION('',(1.,0.,0.));
#1256=DIRECTION('',(9.15647855360954E-17,-1.,0.));
#1257=DIRECTION('center_axis',(0.,1.,0.));
#1258=DIRECTION('ref_axis',(0.,0.,1.));
#1259=DIRECTION('',(0.,0.,1.));
#1260=DIRECTION('',(-1.,0.,0.));
#1261=DIRECTION('',(0.,0.,-1.));
#1262=DIRECTION('',(0.,0.,1.));
#1263=DIRECTION('center_axis',(0.,-1.,0.));
#1264=DIRECTION('ref_axis',(-0.707106781186547,0.,0.707106781186547));
#1265=DIRECTION('',(1.,0.,0.));
#1266=DIRECTION('center_axis',(0.,-1.,0.));
#1267=DIRECTION('ref_axis',(0.707106781186547,0.,0.707106781186547));
#1268=DIRECTION('',(0.,0.,-1.));
#1269=DIRECTION('center_axis',(9.15647855360954E-17,-1.,0.));
#1270=DIRECTION('ref_axis',(0.,0.,-1.));
#1271=DIRECTION('',(0.,0.,-1.));
#1272=DIRECTION('',(1.,9.15647855360954E-17,0.));
#1273=DIRECTION('',(0.,0.,-1.));
#1274=DIRECTION('center_axis',(9.15647855360954E-17,-1.,0.));
#1275=DIRECTION('ref_axis',(0.,0.,-1.));
#1276=DIRECTION('',(0.,0.,-1.));
#1277=DIRECTION('',(1.,9.15647855360954E-17,0.));
#1278=DIRECTION('',(0.,0.,1.));
#1279=DIRECTION('',(1.,9.15647855360954E-17,0.));
#1280=DIRECTION('',(0.,0.,-1.));
#1281=DIRECTION('center_axis',(1.,9.15647855360954E-17,0.));
#1282=DIRECTION('ref_axis',(0.,0.,-1.));
#1283=DIRECTION('',(5.55111512312578E-17,-1.,0.));
#1284=DIRECTION('center_axis',(-1.,-5.55111512312578E-17,0.));
#1285=DIRECTION('ref_axis',(0.,0.,-1.));
#1286=DIRECTION('',(5.55111512312578E-17,-1.,0.));
#1287=DIRECTION('center_axis',(-1.,0.,0.));
#1288=DIRECTION('ref_axis',(0.,1.,0.));
#1289=DIRECTION('',(0.,1.,0.));
#1290=DIRECTION('',(0.,0.,1.));
#1291=DIRECTION('center_axis',(0.,0.,-1.));
#1292=DIRECTION('ref_axis',(-1.,0.,0.));
#1293=DIRECTION('',(0.,-1.,0.));
#1294=DIRECTION('',(-1.,0.,0.));
#1295=DIRECTION('center_axis',(1.,0.,0.));
#1296=DIRECTION('ref_axis',(0.,-1.,0.));
#1297=DIRECTION('',(0.,1.,0.));
#1298=DIRECTION('',(0.,0.,-1.));
#1299=DIRECTION('center_axis',(0.,0.,1.));
#1300=DIRECTION('ref_axis',(-1.,0.,0.));
#1301=DIRECTION('',(0.,-1.,0.));
#1302=DIRECTION('',(-1.,0.,0.));
#1303=DIRECTION('',(-1.,0.,0.));
#1304=DIRECTION('',(0.,1.,0.));
#1305=DIRECTION('',(-1.,0.,0.));
#1306=DIRECTION('',(1.,-2.4980018054066E-16,0.));
#1307=DIRECTION('center_axis',(0.,0.,1.));
#1308=DIRECTION('ref_axis',(-2.4980018054066E-16,-1.,0.));
#1309=DIRECTION('',(2.4980018054066E-16,1.,0.));
#1310=DIRECTION('center_axis',(0.,0.,1.));
#1311=DIRECTION('ref_axis',(1.,-2.4980018054066E-16,0.));
#1312=DIRECTION('',(-1.,2.4980018054066E-16,0.));
#1313=DIRECTION('center_axis',(0.,0.,1.));
#1314=DIRECTION('ref_axis',(2.4980018054066E-16,1.,0.));
#1315=DIRECTION('',(-2.4980018054066E-16,-1.,0.));
#1316=DIRECTION('center_axis',(0.,0.,1.));
#1317=DIRECTION('ref_axis',(-1.,2.4980018054066E-16,0.));
#1318=DIRECTION('',(1.,-2.4980018054066E-16,0.));
#1319=DIRECTION('center_axis',(0.,0.,1.));
#1320=DIRECTION('ref_axis',(-2.4980018054066E-16,-1.,0.));
#1321=DIRECTION('',(2.4980018054066E-16,1.,0.));
#1322=DIRECTION('center_axis',(0.,0.,1.));
#1323=DIRECTION('ref_axis',(1.,-2.4980018054066E-16,0.));
#1324=DIRECTION('',(-1.,2.4980018054066E-16,0.));
#1325=DIRECTION('center_axis',(0.,0.,1.));
#1326=DIRECTION('ref_axis',(2.4980018054066E-16,1.,0.));
#1327=DIRECTION('',(-2.4980018054066E-16,-1.,0.));
#1328=DIRECTION('center_axis',(0.,0.,1.));
#1329=DIRECTION('ref_axis',(-1.,2.4980018054066E-16,0.));
#1330=DIRECTION('',(1.,-2.4980018054066E-16,0.));
#1331=DIRECTION('center_axis',(0.,0.,1.));
#1332=DIRECTION('ref_axis',(-2.4980018054066E-16,-1.,0.));
#1333=DIRECTION('',(2.4980018054066E-16,1.,0.));
#1334=DIRECTION('center_axis',(0.,0.,1.));
#1335=DIRECTION('ref_axis',(1.,-2.4980018054066E-16,0.));
#1336=DIRECTION('',(-1.,2.4980018054066E-16,0.));
#1337=DIRECTION('center_axis',(0.,0.,1.));
#1338=DIRECTION('ref_axis',(2.4980018054066E-16,1.,0.));
#1339=DIRECTION('',(-2.4980018054066E-16,-1.,0.));
#1340=DIRECTION('center_axis',(0.,0.,1.));
#1341=DIRECTION('ref_axis',(-1.,2.4980018054066E-16,0.));
#1342=DIRECTION('',(0.,1.,0.));
#1343=DIRECTION('',(-1.,0.,0.));
#1344=DIRECTION('',(0.,-1.,0.));
#1345=DIRECTION('',(1.,0.,0.));
#1346=DIRECTION('center_axis',(-1.,0.,0.));
#1347=DIRECTION('ref_axis',(0.,1.,0.));
#1348=DIRECTION('',(0.,0.,-1.));
#1349=DIRECTION('',(0.,0.,1.));
#1350=DIRECTION('center_axis',(0.,-1.,0.));
#1351=DIRECTION('ref_axis',(-1.,0.,0.));
#1352=DIRECTION('center_axis',(-1.,0.,0.));
#1353=DIRECTION('ref_axis',(0.,0.,1.));
#1354=DIRECTION('',(0.,0.,-1.));
#1355=DIRECTION('',(0.,5.96046501044612E-8,0.999999999999998));
#1356=DIRECTION('center_axis',(0.,-0.999999999999998,5.96046501044612E-8));
#1357=DIRECTION('ref_axis',(0.,5.96046501044612E-8,0.999999999999998));
#1358=DIRECTION('',(0.,0.,-1.));
#1359=DIRECTION('center_axis',(0.,1.,0.));
#1360=DIRECTION('ref_axis',(0.,0.,-1.));
#1361=DIRECTION('center_axis',(0.,-1.,0.));
#1362=DIRECTION('ref_axis',(0.,0.,-1.));
#1363=DIRECTION('center_axis',(1.,0.,0.));
#1364=DIRECTION('ref_axis',(0.,0.,-1.));
#1365=DIRECTION('',(0.,1.,0.));
#1366=DIRECTION('',(0.,0.,1.));
#1367=DIRECTION('center_axis',(0.,0.,1.));
#1368=DIRECTION('ref_axis',(1.,0.,0.));
#1369=DIRECTION('',(0.,1.,0.));
#1370=DIRECTION('',(-1.,0.,0.));
#1371=DIRECTION('',(0.,-1.,0.));
#1372=DIRECTION('',(0.,-1.,0.));
#1373=DIRECTION('',(-1.,0.,0.));
#1374=DIRECTION('',(0.,1.,0.));
#1375=DIRECTION('',(1.,0.,0.));
#1376=DIRECTION('',(-1.,2.4980018054066E-16,0.));
#1377=DIRECTION('center_axis',(0.,0.,-1.));
#1378=DIRECTION('ref_axis',(-1.,2.4980018054066E-16,0.));
#1379=DIRECTION('',(2.4980018054066E-16,1.,0.));
#1380=DIRECTION('center_axis',(0.,0.,-1.));
#1381=DIRECTION('ref_axis',(2.4980018054066E-16,1.,0.));
#1382=DIRECTION('',(1.,-2.4980018054066E-16,0.));
#1383=DIRECTION('center_axis',(0.,0.,-1.));
#1384=DIRECTION('ref_axis',(1.,-2.4980018054066E-16,0.));
#1385=DIRECTION('',(-2.4980018054066E-16,-1.,0.));
#1386=DIRECTION('center_axis',(0.,0.,-1.));
#1387=DIRECTION('ref_axis',(-2.4980018054066E-16,-1.,0.));
#1388=DIRECTION('',(-1.,2.4980018054066E-16,0.));
#1389=DIRECTION('center_axis',(0.,0.,-1.));
#1390=DIRECTION('ref_axis',(-1.,2.4980018054066E-16,0.));
#1391=DIRECTION('',(2.4980018054066E-16,1.,0.));
#1392=DIRECTION('center_axis',(0.,0.,-1.));
#1393=DIRECTION('ref_axis',(2.4980018054066E-16,1.,0.));
#1394=DIRECTION('',(1.,-2.4980018054066E-16,0.));
#1395=DIRECTION('center_axis',(0.,0.,-1.));
#1396=DIRECTION('ref_axis',(1.,-2.4980018054066E-16,0.));
#1397=DIRECTION('',(-2.4980018054066E-16,-1.,0.));
#1398=DIRECTION('center_axis',(0.,0.,-1.));
#1399=DIRECTION('ref_axis',(-2.4980018054066E-16,-1.,0.));
#1400=DIRECTION('',(-1.,2.4980018054066E-16,0.));
#1401=DIRECTION('center_axis',(0.,0.,-1.));
#1402=DIRECTION('ref_axis',(-1.,2.4980018054066E-16,0.));
#1403=DIRECTION('',(2.4980018054066E-16,1.,0.));
#1404=DIRECTION('center_axis',(0.,0.,-1.));
#1405=DIRECTION('ref_axis',(2.4980018054066E-16,1.,0.));
#1406=DIRECTION('',(1.,-2.4980018054066E-16,0.));
#1407=DIRECTION('center_axis',(0.,0.,-1.));
#1408=DIRECTION('ref_axis',(1.,-2.4980018054066E-16,0.));
#1409=DIRECTION('',(-2.4980018054066E-16,-1.,0.));
#1410=DIRECTION('center_axis',(0.,0.,-1.));
#1411=DIRECTION('ref_axis',(-2.4980018054066E-16,-1.,0.));
#1412=DIRECTION('center_axis',(0.,1.,0.));
#1413=DIRECTION('ref_axis',(0.707106781186547,0.,0.707106781186547));
#1414=DIRECTION('center_axis',(0.,-1.,0.));
#1415=DIRECTION('ref_axis',(0.,0.,1.));
#1416=DIRECTION('center_axis',(0.,1.,0.));
#1417=DIRECTION('ref_axis',(-0.707106781186547,0.,0.707106781186547));
#1418=DIRECTION('',(0.,-1.,0.));
#1419=DIRECTION('center_axis',(0.,-1.,0.));
#1420=DIRECTION('ref_axis',(-1.,0.,0.));
#1421=DIRECTION('center_axis',(-1.,0.,0.));
#1422=DIRECTION('ref_axis',(0.,-0.707106781186547,0.707106781186547));
#1423=DIRECTION('center_axis',(-1.,0.,0.));
#1424=DIRECTION('ref_axis',(0.,0.,1.));
#1425=DIRECTION('',(1.,0.,0.));
#1426=DIRECTION('center_axis',(1.,0.,0.));
#1427=DIRECTION('ref_axis',(0.,-1.,0.));
#1428=DIRECTION('center_axis',(0.408248290463863,-0.816496580927726,-0.408248290463863));
#1429=DIRECTION('ref_axis',(-0.577350269189626,-0.577350269189626,0.577350269189626));
#1430=DIRECTION('center_axis',(0.,0.,1.));
#1431=DIRECTION('ref_axis',(0.,-1.,0.));
#1432=DIRECTION('center_axis',(-0.408248290463863,-0.816496580927726,-0.408248290463863));
#1433=DIRECTION('ref_axis',(0.577350269189626,-0.577350269189626,0.577350269189626));
#1434=DIRECTION('center_axis',(0.,0.,1.));
#1435=DIRECTION('ref_axis',(1.,0.,0.));
#1436=DIRECTION('center_axis',(0.,0.,-1.));
#1437=DIRECTION('ref_axis',(1.,-2.4980018054066E-16,0.));
#1438=DIRECTION('',(0.,0.,-1.));
#1439=DIRECTION('',(0.,0.,-1.));
#1440=DIRECTION('center_axis',(1.,-2.4980018054066E-16,0.));
#1441=DIRECTION('ref_axis',(-2.4980018054066E-16,-1.,1.11022302462516E-16));
#1442=DIRECTION('',(0.,0.,-1.));
#1443=DIRECTION('center_axis',(0.,0.,-1.));
#1444=DIRECTION('ref_axis',(-2.4980018054066E-16,-1.,0.));
#1445=DIRECTION('',(0.,0.,-1.));
#1446=DIRECTION('center_axis',(-2.4980018054066E-16,-1.,0.));
#1447=DIRECTION('ref_axis',(-1.,2.4980018054066E-16,5.55111512312578E-17));
#1448=DIRECTION('',(0.,0.,-1.));
#1449=DIRECTION('center_axis',(0.,0.,-1.));
#1450=DIRECTION('ref_axis',(-1.,2.4980018054066E-16,0.));
#1451=DIRECTION('',(0.,0.,-1.));
#1452=DIRECTION('center_axis',(-1.,2.4980018054066E-16,0.));
#1453=DIRECTION('ref_axis',(2.4980018054066E-16,1.,-1.11022302462516E-16));
#1454=DIRECTION('',(0.,0.,-1.));
#1455=DIRECTION('center_axis',(0.,0.,-1.));
#1456=DIRECTION('ref_axis',(2.4980018054066E-16,1.,0.));
#1457=DIRECTION('',(0.,0.,-1.));
#1458=DIRECTION('center_axis',(2.4980018054066E-16,1.,0.));
#1459=DIRECTION('ref_axis',(1.,-2.4980018054066E-16,-5.55111512312578E-17));
#1460=DIRECTION('center_axis',(0.,0.,-1.));
#1461=DIRECTION('ref_axis',(1.,-2.4980018054066E-16,0.));
#1462=DIRECTION('',(0.,0.,-1.));
#1463=DIRECTION('',(0.,0.,-1.));
#1464=DIRECTION('center_axis',(1.,-2.4980018054066E-16,0.));
#1465=DIRECTION('ref_axis',(-2.4980018054066E-16,-1.,1.11022302462516E-16));
#1466=DIRECTION('',(0.,0.,-1.));
#1467=DIRECTION('center_axis',(0.,0.,-1.));
#1468=DIRECTION('ref_axis',(-2.4980018054066E-16,-1.,0.));
#1469=DIRECTION('',(0.,0.,-1.));
#1470=DIRECTION('center_axis',(-2.4980018054066E-16,-1.,0.));
#1471=DIRECTION('ref_axis',(-1.,2.4980018054066E-16,5.55111512312578E-17));
#1472=DIRECTION('',(0.,0.,-1.));
#1473=DIRECTION('center_axis',(0.,0.,-1.));
#1474=DIRECTION('ref_axis',(-1.,2.4980018054066E-16,0.));
#1475=DIRECTION('',(0.,0.,-1.));
#1476=DIRECTION('center_axis',(-1.,2.4980018054066E-16,0.));
#1477=DIRECTION('ref_axis',(2.4980018054066E-16,1.,-1.11022302462516E-16));
#1478=DIRECTION('',(0.,0.,-1.));
#1479=DIRECTION('center_axis',(0.,0.,-1.));
#1480=DIRECTION('ref_axis',(2.4980018054066E-16,1.,0.));
#1481=DIRECTION('',(0.,0.,-1.));
#1482=DIRECTION('center_axis',(2.4980018054066E-16,1.,0.));
#1483=DIRECTION('ref_axis',(1.,-2.4980018054066E-16,-5.55111512312578E-17));
#1484=DIRECTION('center_axis',(0.,0.,-1.));
#1485=DIRECTION('ref_axis',(1.,-2.4980018054066E-16,0.));
#1486=DIRECTION('',(0.,0.,-1.));
#1487=DIRECTION('',(0.,0.,-1.));
#1488=DIRECTION('center_axis',(1.,-2.4980018054066E-16,0.));
#1489=DIRECTION('ref_axis',(-2.4980018054066E-16,-1.,1.11022302462516E-16));
#1490=DIRECTION('',(0.,0.,-1.));
#1491=DIRECTION('center_axis',(0.,0.,-1.));
#1492=DIRECTION('ref_axis',(-2.4980018054066E-16,-1.,0.));
#1493=DIRECTION('',(0.,0.,-1.));
#1494=DIRECTION('center_axis',(-2.4980018054066E-16,-1.,0.));
#1495=DIRECTION('ref_axis',(-1.,2.4980018054066E-16,5.55111512312578E-17));
#1496=DIRECTION('',(0.,0.,-1.));
#1497=DIRECTION('center_axis',(0.,0.,-1.));
#1498=DIRECTION('ref_axis',(-1.,2.4980018054066E-16,0.));
#1499=DIRECTION('',(0.,0.,-1.));
#1500=DIRECTION('center_axis',(-1.,2.4980018054066E-16,0.));
#1501=DIRECTION('ref_axis',(2.4980018054066E-16,1.,-1.11022302462516E-16));
#1502=DIRECTION('',(0.,0.,-1.));
#1503=DIRECTION('center_axis',(0.,0.,-1.));
#1504=DIRECTION('ref_axis',(2.4980018054066E-16,1.,0.));
#1505=DIRECTION('',(0.,0.,-1.));
#1506=DIRECTION('center_axis',(2.4980018054066E-16,1.,0.));
#1507=DIRECTION('ref_axis',(1.,-2.4980018054066E-16,-5.55111512312578E-17));
#1508=DIRECTION('center_axis',(0.,1.,0.));
#1509=DIRECTION('ref_axis',(1.,0.,0.));
#1510=DIRECTION('',(0.,0.,-1.));
#1511=DIRECTION('',(0.,0.,-1.));
#1512=DIRECTION('center_axis',(1.,0.,0.));
#1513=DIRECTION('ref_axis',(0.,-1.,0.));
#1514=DIRECTION('',(0.,0.,-1.));
#1515=DIRECTION('center_axis',(0.,-1.,0.));
#1516=DIRECTION('ref_axis',(-1.,0.,0.));
#1517=DIRECTION('',(0.,0.,-1.));
#1518=DIRECTION('center_axis',(-1.,0.,0.));
#1519=DIRECTION('ref_axis',(0.,1.,0.));
#1520=DIRECTION('center_axis',(0.,0.,1.));
#1521=DIRECTION('ref_axis',(0.707106781186547,-0.707106781186547,0.));
#1522=DIRECTION('',(0.,0.,-1.));
#1523=DIRECTION('center_axis',(0.,1.,0.));
#1524=DIRECTION('ref_axis',(1.,0.,0.));
#1525=DIRECTION('',(0.,0.,1.));
#1526=DIRECTION('center_axis',(0.,0.,-1.));
#1527=DIRECTION('ref_axis',(-0.707106781186547,-0.707106781186547,0.));
#1528=DIRECTION('',(0.,0.,-1.));
#1529=DIRECTION('center_axis',(-1.,0.,0.));
#1530=DIRECTION('ref_axis',(0.,0.,1.));
#1531=CARTESIAN_POINT('',(0.,0.,0.));
#1532=CARTESIAN_POINT('Origin',(66.,34.25,16.));
#1533=CARTESIAN_POINT('',(65.,57.9470469131626,16.));
#1534=CARTESIAN_POINT('',(67.,57.9470469131626,16.));
#1535=CARTESIAN_POINT('',(17.9969243650565,57.9470469131626,16.));
#1536=CARTESIAN_POINT('',(67.,8.49999999999999,16.));
#1537=CARTESIAN_POINT('',(67.,1.99999999999999,16.));
#1538=CARTESIAN_POINT('',(65.,8.49999999999999,16.));
#1539=CARTESIAN_POINT('',(65.,8.49999999999999,16.));
#1540=CARTESIAN_POINT('',(65.,58.,16.));
#1541=CARTESIAN_POINT('Origin',(67.,60.,20.));
#1542=CARTESIAN_POINT('',(67.,57.9470469131626,19.));
#1543=CARTESIAN_POINT('',(67.,57.9470469131626,19.500000141561));
#1544=CARTESIAN_POINT('',(67.,8.49999999999999,19.));
#1545=CARTESIAN_POINT('',(67.,45.,19.));
#1546=CARTESIAN_POINT('',(67.,8.49999999999999,20.));
#1547=CARTESIAN_POINT('Origin',(18.5,30.,19.));
#1548=CARTESIAN_POINT('',(66.9938487301131,60.0000008940697,19.0000002831221));
#1549=CARTESIAN_POINT('',(72.,60.,19.));
#1550=CARTESIAN_POINT('',(18.5,60.,19.));
#1551=CARTESIAN_POINT('',(72.,5.,19.));
#1552=CARTESIAN_POINT('',(72.,15.,19.));
#1553=CARTESIAN_POINT('',(67.,0.,19.));
#1554=CARTESIAN_POINT('Origin',(67.,5.,19.));
#1555=CARTESIAN_POINT('',(-30.,0.,19.));
#1556=CARTESIAN_POINT('',(18.5,0.,19.));
#1557=CARTESIAN_POINT('',(-35.,5.,19.));
#1558=CARTESIAN_POINT('Origin',(-30.,5.,19.));
#1559=CARTESIAN_POINT('',(-35.,60.,19.));
#1560=CARTESIAN_POINT('',(-35.,15.,19.));
#1561=CARTESIAN_POINT('',(-30.0061512698869,60.,19.));
#1562=CARTESIAN_POINT('',(18.5,60.,19.));
#1563=CARTESIAN_POINT('',(-30.0061512698869,57.9470469131626,19.));
#1564=CARTESIAN_POINT('',(-30.0061512698869,44.9735234565813,19.));
#1565=CARTESIAN_POINT('',(-30.,57.9470469131626,19.));
#1566=CARTESIAN_POINT('',(-5.75307563494347,57.9470469131626,19.));
#1567=CARTESIAN_POINT('',(-30.,8.00000011920929,19.));
#1568=CARTESIAN_POINT('',(-30.,45.,19.));
#1569=CARTESIAN_POINT('',(-30.,1.99999999999999,19.));
#1570=CARTESIAN_POINT('',(-30.,45.,19.));
#1571=CARTESIAN_POINT('',(-28.,1.99999999999999,19.));
#1572=CARTESIAN_POINT('',(9.25,1.99999999999999,19.));
#1573=CARTESIAN_POINT('',(65.,2.00000005960464,19.));
#1574=CARTESIAN_POINT('',(20.125,2.00000005960464,19.));
#1575=CARTESIAN_POINT('',(65.,8.49999999999999,19.));
#1576=CARTESIAN_POINT('',(65.,17.0000000298023,19.));
#1577=CARTESIAN_POINT('',(42.75,8.49999999999999,19.));
#1578=CARTESIAN_POINT('',(66.9938487301131,57.9470469131626,19.0000002831221));
#1579=CARTESIAN_POINT('',(66.9938487301131,57.9470469131626,19.0000002831221));
#1580=CARTESIAN_POINT('',(66.9938487301131,59.9735239036162,19.0000002831221));
#1581=CARTESIAN_POINT('Origin',(18.5,60.,0.));
#1582=CARTESIAN_POINT('',(66.9938487301131,60.,20.));
#1583=CARTESIAN_POINT('',(66.9938487301131,60.,10.));
#1584=CARTESIAN_POINT('',(-30.0061512698869,60.,20.));
#1585=CARTESIAN_POINT('',(-5.75307563494347,60.,20.));
#1586=CARTESIAN_POINT('',(-30.0061512698869,60.,9.5));
#1587=CARTESIAN_POINT('',(-35.,60.,20.));
#1588=CARTESIAN_POINT('',(-35.,60.,25.));
#1589=CARTESIAN_POINT('',(-30.,60.,25.));
#1590=CARTESIAN_POINT('Origin',(-30.,60.,20.));
#1591=CARTESIAN_POINT('',(67.,60.,25.));
#1592=CARTESIAN_POINT('',(72.,60.,25.));
#1593=CARTESIAN_POINT('',(72.,60.,20.));
#1594=CARTESIAN_POINT('Origin',(67.,60.,20.));
#1595=CARTESIAN_POINT('',(72.,60.,-25.));
#1596=CARTESIAN_POINT('Origin',(-30.0061512698869,57.9470469131626,20.));
#1597=CARTESIAN_POINT('',(65.,57.9470469131626,20.));
#1598=CARTESIAN_POINT('',(65.,57.9470469131626,20.));
#1599=CARTESIAN_POINT('',(66.9938487301131,57.9470469131626,20.));
#1600=CARTESIAN_POINT('',(-30.0061512698869,57.9470469131626,20.));
#1601=CARTESIAN_POINT('',(66.9938487301131,57.9470469131626,-20.));
#1602=CARTESIAN_POINT('Origin',(-30.0061512698869,57.9470469131626,20.));
#1603=CARTESIAN_POINT('',(-30.0061512698869,57.9470469131626,20.));
#1604=CARTESIAN_POINT('',(-30.0061512698869,57.9470469131626,-20.));
#1605=CARTESIAN_POINT('',(-28.,57.9470469131626,20.));
#1606=CARTESIAN_POINT('',(-30.0061512698869,57.9470469131626,20.));
#1607=CARTESIAN_POINT('',(-28.,57.9470469131626,16.));
#1608=CARTESIAN_POINT('',(-28.,57.9470469131626,20.));
#1609=CARTESIAN_POINT('',(-30.,57.9470469131626,16.));
#1610=CARTESIAN_POINT('',(-27.9405756349435,57.9470469131626,16.0000002533197));
#1611=CARTESIAN_POINT('',(-30.,57.9470469131626,20.));
#1612=CARTESIAN_POINT('Origin',(66.9938487301131,59.9470469131626,20.));
#1613=CARTESIAN_POINT('',(66.9938487301131,59.9470469131626,20.));
#1614=CARTESIAN_POINT('Origin',(-30.0061512698869,59.9470469131626,20.));
#1615=CARTESIAN_POINT('',(-30.0061512698869,59.9470469131626,20.));
#1616=CARTESIAN_POINT('Origin',(-30.,1.99999999999999,20.));
#1617=CARTESIAN_POINT('',(-30.,8.00000011920929,16.0000002533197));
#1618=CARTESIAN_POINT('',(-30.,60.,16.));
#1619=CARTESIAN_POINT('',(-30.,8.00000011920929,20.));
#1620=CARTESIAN_POINT('Origin',(-25.875,31.,16.0000002533197));
#1621=CARTESIAN_POINT('',(-28.,8.00000011920929,16.0000002533197));
#1622=CARTESIAN_POINT('',(-28.,58.,16.));
#1623=CARTESIAN_POINT('',(-26.9375,8.00000011920929,16.));
#1624=CARTESIAN_POINT('Origin',(-28.,60.,20.));
#1625=CARTESIAN_POINT('',(-28.,8.00000011920929,20.));
#1626=CARTESIAN_POINT('',(-28.,60.,20.));
#1627=CARTESIAN_POINT('',(-28.,8.00000011920929,20.));
#1628=CARTESIAN_POINT('Origin',(30.,60.,20.));
#1629=CARTESIAN_POINT('',(65.,2.00000005960464,20.));
#1630=CARTESIAN_POINT('',(65.,32.0000000298023,20.));
#1631=CARTESIAN_POINT('',(-28.,2.00000005960464,20.));
#1632=CARTESIAN_POINT('',(30.,1.99999999999999,20.));
#1633=CARTESIAN_POINT('',(-30.,2.00000005960464,20.));
#1634=CARTESIAN_POINT('',(-28.,2.00000005960464,20.));
#1635=CARTESIAN_POINT('',(-30.,8.00000011920929,20.));
#1636=CARTESIAN_POINT('',(-30.,60.,20.));
#1637=CARTESIAN_POINT('',(-28.,8.00000011920929,20.));
#1638=CARTESIAN_POINT('',(12.55,15.4749999999999,20.));
#1639=CARTESIAN_POINT('',(25.55,15.4749999999999,20.));
#1640=CARTESIAN_POINT('',(27.775,15.4749999999999,20.));
#1641=CARTESIAN_POINT('',(26.05,15.9749999999999,20.));
#1642=CARTESIAN_POINT('Origin',(25.55,15.9749999999999,20.));
#1643=CARTESIAN_POINT('',(26.05,28.9749999999999,20.));
#1644=CARTESIAN_POINT('',(26.05,44.4875,20.));
#1645=CARTESIAN_POINT('',(25.55,29.4749999999999,20.));
#1646=CARTESIAN_POINT('Origin',(25.55,28.9749999999999,20.));
#1647=CARTESIAN_POINT('',(12.55,29.4749999999999,20.));
#1648=CARTESIAN_POINT('',(21.275,29.4749999999999,20.));
#1649=CARTESIAN_POINT('',(12.05,28.9749999999999,20.));
#1650=CARTESIAN_POINT('Origin',(12.55,28.9749999999999,20.));
#1651=CARTESIAN_POINT('',(12.05,15.9749999999999,20.));
#1652=CARTESIAN_POINT('',(12.05,37.9875,20.));
#1653=CARTESIAN_POINT('Origin',(12.55,15.9749999999999,20.));
#1654=CARTESIAN_POINT('',(-6.50000000000003,15.4749999999999,20.));
#1655=CARTESIAN_POINT('',(6.49999999999998,15.4749999999999,20.));
#1656=CARTESIAN_POINT('',(18.25,15.4749999999999,20.));
#1657=CARTESIAN_POINT('',(6.99999999999998,15.9749999999999,20.));
#1658=CARTESIAN_POINT('Origin',(6.49999999999998,15.9749999999999,20.));
#1659=CARTESIAN_POINT('',(6.99999999999998,28.9749999999999,20.));
#1660=CARTESIAN_POINT('',(6.99999999999999,44.4875,20.));
#1661=CARTESIAN_POINT('',(6.49999999999998,29.4749999999999,20.));
#1662=CARTESIAN_POINT('Origin',(6.49999999999998,28.9749999999999,20.));
#1663=CARTESIAN_POINT('',(-6.50000000000002,29.4749999999999,20.));
#1664=CARTESIAN_POINT('',(11.75,29.4749999999999,20.));
#1665=CARTESIAN_POINT('',(-7.00000000000002,28.9749999999999,20.));
#1666=CARTESIAN_POINT('Origin',(-6.50000000000002,28.9749999999999,20.));
#1667=CARTESIAN_POINT('',(-7.00000000000002,15.9749999999999,20.));
#1668=CARTESIAN_POINT('',(-7.00000000000002,37.9875,20.));
#1669=CARTESIAN_POINT('Origin',(-6.50000000000003,15.9749999999999,20.));
#1670=CARTESIAN_POINT('',(-25.55,15.4749999999999,20.));
#1671=CARTESIAN_POINT('',(-12.55,15.4749999999999,20.));
#1672=CARTESIAN_POINT('',(8.72499999999998,15.4749999999999,20.));
#1673=CARTESIAN_POINT('',(-12.05,15.9749999999999,20.));
#1674=CARTESIAN_POINT('Origin',(-12.55,15.9749999999999,20.));
#1675=CARTESIAN_POINT('',(-12.05,28.9749999999999,20.));
#1676=CARTESIAN_POINT('',(-12.05,44.4875,20.));
#1677=CARTESIAN_POINT('',(-12.55,29.4749999999999,20.));
#1678=CARTESIAN_POINT('Origin',(-12.55,28.9749999999999,20.));
#1679=CARTESIAN_POINT('',(-25.55,29.4749999999999,20.));
#1680=CARTESIAN_POINT('',(2.22499999999998,29.4749999999999,20.));
#1681=CARTESIAN_POINT('',(-26.05,28.9749999999999,20.));
#1682=CARTESIAN_POINT('Origin',(-25.55,28.9749999999999,20.));
#1683=CARTESIAN_POINT('',(-26.05,15.9749999999999,20.));
#1684=CARTESIAN_POINT('',(-26.05,37.9875,20.));
#1685=CARTESIAN_POINT('Origin',(-25.55,15.9749999999999,20.));
#1686=CARTESIAN_POINT('',(46.05,15.475,20.));
#1687=CARTESIAN_POINT('',(46.05,29.475,20.));
#1688=CARTESIAN_POINT('',(46.05,44.7375,20.));
#1689=CARTESIAN_POINT('',(32.05,29.475,20.));
#1690=CARTESIAN_POINT('',(31.025,29.475,20.));
#1691=CARTESIAN_POINT('',(32.05,15.475,20.));
#1692=CARTESIAN_POINT('',(32.05,37.7375,20.));
#1693=CARTESIAN_POINT('',(38.025,15.475,20.));
#1694=CARTESIAN_POINT('Origin',(65.,4.00000005960464,20.));
#1695=CARTESIAN_POINT('',(65.,8.49999999999999,20.));
#1696=CARTESIAN_POINT('',(65.,2.00000005960464,20.));
#1697=CARTESIAN_POINT('Origin',(67.,8.49999999999999,20.));
#1698=CARTESIAN_POINT('Origin',(-30.,5.00000005960464,18.5));
#1699=CARTESIAN_POINT('',(-30.,8.00000011920929,17.0000002533197));
#1700=CARTESIAN_POINT('',(-30.,2.00000005960464,20.));
#1701=CARTESIAN_POINT('Origin',(-28.,1.99999999999999,19.));
#1702=CARTESIAN_POINT('',(-28.,2.00000005960464,20.));
#1703=CARTESIAN_POINT('Origin',(-28.,8.00000011920929,20.));
#1704=CARTESIAN_POINT('Origin',(0.,1.99999999999999,0.));
#1705=CARTESIAN_POINT('Origin',(72.,0.,25.));
#1706=CARTESIAN_POINT('',(72.,5.,20.));
#1707=CARTESIAN_POINT('',(72.,0.,20.));
#1708=CARTESIAN_POINT('',(72.,5.,12.5));
#1709=CARTESIAN_POINT('Origin',(-35.,0.,25.));
#1710=CARTESIAN_POINT('',(-30.,5.,25.));
#1711=CARTESIAN_POINT('',(-30.,0.,25.));
#1712=CARTESIAN_POINT('',(67.,5.,25.));
#1713=CARTESIAN_POINT('',(-8.25,5.,25.));
#1714=CARTESIAN_POINT('',(67.,0.,25.));
#1715=CARTESIAN_POINT('',(46.05,29.475,25.));
#1716=CARTESIAN_POINT('',(46.05,15.475,25.));
#1717=CARTESIAN_POINT('',(46.05,14.7375,25.));
#1718=CARTESIAN_POINT('',(32.05,15.475,25.));
#1719=CARTESIAN_POINT('',(5.52499999999999,15.475,25.));
#1720=CARTESIAN_POINT('',(32.05,29.475,25.));
#1721=CARTESIAN_POINT('',(32.05,7.7375,25.));
#1722=CARTESIAN_POINT('',(-1.47500000000001,29.475,25.));
#1723=CARTESIAN_POINT('',(25.55,15.4749999999999,25.));
#1724=CARTESIAN_POINT('',(12.55,15.4749999999999,25.));
#1725=CARTESIAN_POINT('',(-4.72500000000001,15.4749999999999,25.));
#1726=CARTESIAN_POINT('',(12.05,15.9749999999999,25.));
#1727=CARTESIAN_POINT('Origin',(12.55,15.9749999999999,25.));
#1728=CARTESIAN_POINT('',(12.05,28.9749999999999,25.));
#1729=CARTESIAN_POINT('',(12.05,7.98749999999996,25.));
#1730=CARTESIAN_POINT('',(12.55,29.4749999999999,25.));
#1731=CARTESIAN_POINT('Origin',(12.55,28.9749999999999,25.));
#1732=CARTESIAN_POINT('',(25.55,29.4749999999999,25.));
#1733=CARTESIAN_POINT('',(-11.225,29.4749999999999,25.));
#1734=CARTESIAN_POINT('',(26.05,28.9749999999999,25.));
#1735=CARTESIAN_POINT('Origin',(25.55,28.9749999999999,25.));
#1736=CARTESIAN_POINT('',(26.05,15.9749999999999,25.));
#1737=CARTESIAN_POINT('',(26.05,14.4875,25.));
#1738=CARTESIAN_POINT('Origin',(25.55,15.9749999999999,25.));
#1739=CARTESIAN_POINT('',(6.49999999999998,15.4749999999999,25.));
#1740=CARTESIAN_POINT('',(-6.50000000000003,15.4749999999999,25.));
#1741=CARTESIAN_POINT('',(-14.25,15.4749999999999,25.));
#1742=CARTESIAN_POINT('',(-7.00000000000002,15.9749999999999,25.));
#1743=CARTESIAN_POINT('Origin',(-6.50000000000003,15.9749999999999,25.));
#1744=CARTESIAN_POINT('',(-7.00000000000002,28.9749999999999,25.));
#1745=CARTESIAN_POINT('',(-7.00000000000003,7.98749999999996,25.));
#1746=CARTESIAN_POINT('',(-6.50000000000002,29.4749999999999,25.));
#1747=CARTESIAN_POINT('Origin',(-6.50000000000002,28.9749999999999,25.));
#1748=CARTESIAN_POINT('',(6.49999999999998,29.4749999999999,25.));
#1749=CARTESIAN_POINT('',(-20.75,29.4749999999999,25.));
#1750=CARTESIAN_POINT('',(6.99999999999998,28.9749999999999,25.));
#1751=CARTESIAN_POINT('Origin',(6.49999999999998,28.9749999999999,25.));
#1752=CARTESIAN_POINT('',(6.99999999999998,15.9749999999999,25.));
#1753=CARTESIAN_POINT('',(6.99999999999998,14.4875,25.));
#1754=CARTESIAN_POINT('Origin',(6.49999999999998,15.9749999999999,25.));
#1755=CARTESIAN_POINT('',(-12.55,15.4749999999999,25.));
#1756=CARTESIAN_POINT('',(-25.55,15.4749999999999,25.));
#1757=CARTESIAN_POINT('',(-23.775,15.4749999999999,25.));
#1758=CARTESIAN_POINT('',(-26.05,15.9749999999999,25.));
#1759=CARTESIAN_POINT('Origin',(-25.55,15.9749999999999,25.));
#1760=CARTESIAN_POINT('',(-26.05,28.9749999999999,25.));
#1761=CARTESIAN_POINT('',(-26.05,7.98749999999997,25.));
#1762=CARTESIAN_POINT('',(-25.55,29.4749999999999,25.));
#1763=CARTESIAN_POINT('Origin',(-25.55,28.9749999999999,25.));
#1764=CARTESIAN_POINT('',(-12.55,29.4749999999999,25.));
#1765=CARTESIAN_POINT('',(-30.275,29.4749999999999,25.));
#1766=CARTESIAN_POINT('',(-12.05,28.9749999999999,25.));
#1767=CARTESIAN_POINT('Origin',(-12.55,28.9749999999999,25.));
#1768=CARTESIAN_POINT('',(-12.05,15.9749999999999,25.));
#1769=CARTESIAN_POINT('',(-12.05,14.4875,25.));
#1770=CARTESIAN_POINT('Origin',(-12.55,15.9749999999999,25.));
#1771=CARTESIAN_POINT('Origin',(67.,0.,20.));
#1772=CARTESIAN_POINT('Origin',(67.,5.,20.));
#1773=CARTESIAN_POINT('Origin',(-30.,0.,20.));
#1774=CARTESIAN_POINT('',(-35.,5.,20.));
#1775=CARTESIAN_POINT('',(-35.,0.,20.));
#1776=CARTESIAN_POINT('Origin',(-30.,5.,20.));
#1777=CARTESIAN_POINT('Origin',(-8.25,5.,20.));
#1778=CARTESIAN_POINT('',(-30.,0.,20.));
#1779=CARTESIAN_POINT('Origin',(-30.,5.,20.));
#1780=CARTESIAN_POINT('',(67.,0.,20.));
#1781=CARTESIAN_POINT('',(-8.25,0.,20.));
#1782=CARTESIAN_POINT('Origin',(67.,5.,20.));
#1783=CARTESIAN_POINT('Origin',(-30.,5.,20.));
#1784=CARTESIAN_POINT('Origin',(-30.,5.,20.));
#1785=CARTESIAN_POINT('Origin',(67.,5.,20.));
#1786=CARTESIAN_POINT('Origin',(67.,5.,20.));
#1787=CARTESIAN_POINT('Origin',(-12.55,28.9749999999999,25.));
#1788=CARTESIAN_POINT('',(-12.05,28.9749999999999,25.));
#1789=CARTESIAN_POINT('',(-12.55,29.4749999999999,25.));
#1790=CARTESIAN_POINT('Origin',(-12.05,28.9749999999999,25.));
#1791=CARTESIAN_POINT('',(-12.05,15.9749999999999,25.));
#1792=CARTESIAN_POINT('Origin',(-12.55,15.9749999999999,25.));
#1793=CARTESIAN_POINT('',(-12.55,15.4749999999999,25.));
#1794=CARTESIAN_POINT('Origin',(-12.55,15.4749999999999,25.));
#1795=CARTESIAN_POINT('',(-25.55,15.4749999999999,25.));
#1796=CARTESIAN_POINT('Origin',(-25.55,15.9749999999999,25.));
#1797=CARTESIAN_POINT('',(-26.05,15.9749999999999,25.));
#1798=CARTESIAN_POINT('Origin',(-26.05,15.9749999999999,25.));
#1799=CARTESIAN_POINT('',(-26.05,28.9749999999999,25.));
#1800=CARTESIAN_POINT('Origin',(-25.55,28.9749999999999,25.));
#1801=CARTESIAN_POINT('',(-25.55,29.4749999999999,25.));
#1802=CARTESIAN_POINT('Origin',(-25.55,29.4749999999999,25.));
#1803=CARTESIAN_POINT('Origin',(6.49999999999998,28.9749999999999,25.));
#1804=CARTESIAN_POINT('',(6.99999999999998,28.9749999999999,25.));
#1805=CARTESIAN_POINT('',(6.49999999999998,29.4749999999999,25.));
#1806=CARTESIAN_POINT('Origin',(6.99999999999998,28.9749999999999,25.));
#1807=CARTESIAN_POINT('',(6.99999999999998,15.9749999999999,25.));
#1808=CARTESIAN_POINT('Origin',(6.49999999999998,15.9749999999999,25.));
#1809=CARTESIAN_POINT('',(6.49999999999998,15.4749999999999,25.));
#1810=CARTESIAN_POINT('Origin',(6.49999999999998,15.4749999999999,25.));
#1811=CARTESIAN_POINT('',(-6.50000000000003,15.4749999999999,25.));
#1812=CARTESIAN_POINT('Origin',(-6.50000000000003,15.9749999999999,25.));
#1813=CARTESIAN_POINT('',(-7.00000000000002,15.9749999999999,25.));
#1814=CARTESIAN_POINT('Origin',(-7.00000000000002,15.9749999999999,25.));
#1815=CARTESIAN_POINT('',(-7.00000000000002,28.9749999999999,25.));
#1816=CARTESIAN_POINT('Origin',(-6.50000000000002,28.9749999999999,25.));
#1817=CARTESIAN_POINT('',(-6.50000000000002,29.4749999999999,25.));
#1818=CARTESIAN_POINT('Origin',(-6.50000000000002,29.4749999999999,25.));
#1819=CARTESIAN_POINT('Origin',(25.55,28.9749999999999,25.));
#1820=CARTESIAN_POINT('',(26.05,28.9749999999999,25.));
#1821=CARTESIAN_POINT('',(25.55,29.4749999999999,25.));
#1822=CARTESIAN_POINT('Origin',(26.05,28.9749999999999,25.));
#1823=CARTESIAN_POINT('',(26.05,15.9749999999999,25.));
#1824=CARTESIAN_POINT('Origin',(25.55,15.9749999999999,25.));
#1825=CARTESIAN_POINT('',(25.55,15.4749999999999,25.));
#1826=CARTESIAN_POINT('Origin',(25.55,15.4749999999999,25.));
#1827=CARTESIAN_POINT('',(12.55,15.4749999999999,25.));
#1828=CARTESIAN_POINT('Origin',(12.55,15.9749999999999,25.));
#1829=CARTESIAN_POINT('',(12.05,15.9749999999999,25.));
#1830=CARTESIAN_POINT('Origin',(12.05,15.9749999999999,25.));
#1831=CARTESIAN_POINT('',(12.05,28.9749999999999,25.));
#1832=CARTESIAN_POINT('Origin',(12.55,28.9749999999999,25.));
#1833=CARTESIAN_POINT('',(12.55,29.4749999999999,25.));
#1834=CARTESIAN_POINT('Origin',(12.55,29.4749999999999,25.));
#1835=CARTESIAN_POINT('Origin',(32.05,29.475,25.));
#1836=CARTESIAN_POINT('',(46.05,29.475,25.));
#1837=CARTESIAN_POINT('',(32.05,29.475,25.));
#1838=CARTESIAN_POINT('Origin',(46.05,29.475,25.));
#1839=CARTESIAN_POINT('',(46.05,15.475,25.));
#1840=CARTESIAN_POINT('Origin',(46.05,15.475,25.));
#1841=CARTESIAN_POINT('',(32.05,15.475,25.));
#1842=CARTESIAN_POINT('Origin',(32.05,15.475,25.));
#1843=CARTESIAN_POINT('Origin',(67.,5.,12.5));
#1844=CARTESIAN_POINT('',(67.,0.,12.5));
#1845=CARTESIAN_POINT('Origin',(18.5,0.,0.));
#1846=CARTESIAN_POINT('',(-30.,0.,-12.5));
#1847=CARTESIAN_POINT('Origin',(-30.,5.,-12.5));
#1848=CARTESIAN_POINT('',(-35.,5.,-12.5));
#1849=CARTESIAN_POINT('Origin',(-35.,0.,-25.));
#1850=UNCERTAINTY_MEASURE_WITH_UNIT(LENGTH_MEASURE(0.01),#1854,
'DISTANCE_ACCURACY_VALUE',
'Maximum model space distance between geometric entities at asserted c
onnectivities');
#1851=UNCERTAINTY_MEASURE_WITH_UNIT(LENGTH_MEASURE(0.01),#1854,
'DISTANCE_ACCURACY_VALUE',
'Maximum model space distance between geometric entities at asserted c
onnectivities');
#1852=(
GEOMETRIC_REPRESENTATION_CONTEXT(3)
GLOBAL_UNCERTAINTY_ASSIGNED_CONTEXT((#1850))
GLOBAL_UNIT_ASSIGNED_CONTEXT((#1854,#1856,#1857))
REPRESENTATION_CONTEXT('','3D')
);
#1853=(
GEOMETRIC_REPRESENTATION_CONTEXT(3)
GLOBAL_UNCERTAINTY_ASSIGNED_CONTEXT((#1851))
GLOBAL_UNIT_ASSIGNED_CONTEXT((#1854,#1856,#1857))
REPRESENTATION_CONTEXT('','3D')
);
#1854=(
LENGTH_UNIT()
NAMED_UNIT(*)
SI_UNIT(.MILLI.,.METRE.)
);
#1855=(
LENGTH_UNIT()
NAMED_UNIT(*)
SI_UNIT($,.METRE.)
);
#1856=(
NAMED_UNIT(*)
PLANE_ANGLE_UNIT()
SI_UNIT($,.RADIAN.)
);
#1857=(
NAMED_UNIT(*)
SI_UNIT($,.STERADIAN.)
SOLID_ANGLE_UNIT()
);
#1858=SHAPE_DEFINITION_REPRESENTATION(#1859,#1860);
#1859=PRODUCT_DEFINITION_SHAPE('',$,#1862);
#1860=SHAPE_REPRESENTATION('',(#1131),#1852);
#1861=PRODUCT_DEFINITION_CONTEXT('part definition',#1866,'design');
#1862=PRODUCT_DEFINITION('Fusion-Komponente','Fusion-Komponente',#1863,
#1861);
#1863=PRODUCT_DEFINITION_FORMATION('',$,#1868);
#1864=PRODUCT_RELATED_PRODUCT_CATEGORY('Fusion-Komponente',
'Fusion-Komponente',(#1868));
#1865=APPLICATION_PROTOCOL_DEFINITION('international standard',
'automotive_design',2009,#1866);
#1866=APPLICATION_CONTEXT(
'Core Data for Automotive Mechanical Design Process');
#1867=PRODUCT_CONTEXT('part definition',#1866,'mechanical');
#1868=PRODUCT('Fusion-Komponente','Fusion-Komponente',$,(#1867));
#1869=PRESENTATION_STYLE_ASSIGNMENT((#1870));
#1870=SURFACE_STYLE_USAGE(.BOTH.,#1871);
#1871=SURFACE_SIDE_STYLE('',(#1872));
#1872=SURFACE_STYLE_FILL_AREA(#1873);
#1873=FILL_AREA_STYLE('Stahl - satiniert',(#1874));
#1874=FILL_AREA_STYLE_COLOUR('Stahl - satiniert',#1875);
#1875=COLOUR_RGB('Stahl - satiniert',0.627450980392157,0.627450980392157,
0.627450980392157);
ENDSEC;
END-ISO-10303-21;
